<?xml version="1.0" encoding="UTF-8" standalone="no"?><svg xmlns="http://www.w3.org/2000/svg" xmlns:xlink="http://www.w3.org/1999/xlink" contentScriptType="text/ecmascript" fill="#000000" width="491.4" zoomAndPan="magnify" contentStyleType="text/css" viewBox="-0.7 -1.1 491.4 456.5" height="456.5" preserveAspectRatio="xMidYMid meet" version="1"><g data-name="Layer 2"><g data-name="Layer 1"><g id="change1_1"><path fill="#1f0153" d="M220.48,197.62s6.83,16.9,22.53,17.51,25.74-14.56,25.74-14.56l18.08,245.85s-15.32,3.06-42.09,3.06-41.27-4.08-41.27-4.08Z"/></g><g id="change2_1"><path fill="#ffc4b1" d="M416,204.2s6.46-10,7.37-13.28,5.25-9.25,9.54-10.47,7.51-8.94,8.22-15c0,0,.62-2.14,3.43-.87s5.36,9.3,1.68,13.79L443,184.79s8.89-4.44,13.39-4.9c0,0,16.89-13.71,19.24-13.35s2.06,2.11,1,3.9c0,0,6.59-3.77,8.38-1.79,2,2.2-.71,5.87-3.47,7.92,0,0,4.9-2.92,6.89-.36s-.71,6.38-3.16,8.27c0,0,3.47-1.73,4.44.87s-.61,5.31-4.34,8-8.12,5.82-10.27,8.27-7.32,4.86-9.6,6.7c-3.12,2.5-17.18,11.44-28.56,12.13l-1.27,1.25S416.42,211.15,416,204.2Z"/></g><g id="change2_2"><path fill="#ffc4b1" d="M74,204.2s-6.46-10-7.37-13.28-5.25-9.25-9.54-10.47-7.51-8.94-8.22-15c0,0-.62-2.14-3.43-.87s-5.36,9.3-1.68,13.79L47,184.79s-8.89-4.44-13.39-4.9c0,0-16.89-13.71-19.24-13.35s-2.06,2.11-1,3.9c0,0-6.59-3.77-8.38-1.79-2,2.2.71,5.87,3.47,7.92,0,0-4.9-2.92-6.89-.36s.71,6.38,3.16,8.27c0,0-3.47-1.73-4.44.87s.61,5.31,4.34,8,8.12,5.82,10.27,8.27,7.32,4.86,9.6,6.7c3.12,2.5,17.18,11.44,28.56,12.13l1.27,1.25S73.58,211.15,74,204.2Z"/></g><g id="change1_2"><path fill="#1f0153" d="M80.81,206.86s-4.45-4.14-6.06-4.29-19.61,3.67-22.22,20.3c0,0,1.46,7.35,3.83,9.27C56.36,232.14,67.24,212.6,80.81,206.86Z"/></g><g id="change1_3"><path fill="#1f0153" d="M222,176.21s-34.73-6.23-35.75-35.76c0,0-5.52,7.15-9.4,7.05s3.06-5.82,2.86-10.11-11.75-10.63-11.44-23.6,9.6-24.42,9.6-24.42S162.61,92,162.61,81.3c0,0,11.13-1.12,15.73-5.1s20.38-51.39,48.73-53.69,40.46,10.42,40.46,10.42-3.78-8.27-8.28-10.7-.31-5.39,4.7-4.06S275.7,31.65,275.7,31.65s9.81-7.86,15.22-6.43S284.18,33,283.57,37c0,0,1.73-4.4,15.52-1.13S318.3,72,325.45,74.66s12.05,2.15,9.19,5.93-10.42,7.66-15.12,5.72,13.08,16.24,11.24,30.14-8.89,19.51-10.42,15.73-4.08-7.66-6.23-7.56,3.37,13-5.06,25.69c-6.77,10.23-21.6,27.28-37.54,25.9Z"/></g><g id="change2_3"><path fill="#ffc4b1" d="M302.26,121a8.48,8.48,0,0,0-9.83.36c.17-5.46.06-11.88-.2-18.34-4.68-4.58-6.65-12-6.65-12s1.61,14.1-5.9,13.48-12.33-31.26-12.33-31.26c-6.9,16-43.68,24.44-46.66,22.76-2.8-1.58,3.94-9.67,4.81-10.7-.95,1.12-14,16.19-19.14,11.39-5.37-5,9.88-25.82,9.88-25.82-8.73,3.54-16.61,18.77-19.46,24.83-.41,8.58-.63,17.64-.35,25a8.35,8.35,0,0,0-8.69.34c-6.66,4-7.4,13.09-3.39,20.17,3.39,6,11.49,8.83,15.79,6.13,3.78,14.23,10.93,27,23.84,33.54v25.41s6.39,14.25,21.07,13.79,20.36-11.34,20.36-11.34l.51-28c12.79-6.65,19.71-19.58,23.25-33.89,4.08,3.51,12.9.68,16.48-5.63C309.67,134.08,308.93,125,302.26,121Z"/></g><g id="change3_1"><path fill="#ffb266" d="M223.9,188.88s-51.79,5.85-61.29,17.35-33.76,47.52-34.84,55c0,0-18.16-43.22-47-55.48,0,0-23.83,2.38-26,26.28,0,0,42,96.6,66.35,97.82s42-36.7,42-36.7-27.38,102.76-27.38,137.1c0,0,29,25.13,74.78,21.45L224,205.55Z"/></g><g id="change1_4"><path fill="#1f0153" d="M409.19,206.86s4.45-4.14,6.06-4.29,19.61,3.67,22.22,20.3c0,0-1.46,7.35-3.83,9.27C433.64,232.14,422.76,212.6,409.19,206.86Z"/></g><g id="change3_2"><path fill="#ffb266" d="M265.79,188s52.34,6.77,61.84,18.27,33.52,47.52,34.6,55c0,0,18.16-43.22,47-55.48,0,0,23.83,2.38,26,26.28,0,0-42.64,97.77-66.95,99s-41.44-37.88-41.44-37.88,27.38,102.76,27.38,137.1c0,0-31.93,24.84-77.7,21.16l-11-244.22Z"/></g><g id="change4_1"><path fill="#f29b84" d="M49,206.23a1.36,1.36,0,0,1-.85-.3c-12.51-9.93-27.43-8.46-27.58-8.45a1.34,1.34,0,0,1-1.23-.53c-1-1.27-8.65-6.87-13.26-10.09a1.36,1.36,0,1,1,1.56-2.23c1.88,1.31,10.73,7.54,13.33,10.09a43.77,43.77,0,0,1,28.88,9.08,1.36,1.36,0,0,1-.85,2.43Z"/></g><g id="change4_2"><path fill="#f29b84" d="M53.81,203.31a1.39,1.39,0,0,1-.65-.16c-6.53-3.55-6.55-11.46-5.57-15.67l-.41-.63a1.36,1.36,0,0,1,2.29-1.48l.73,1.13a1.32,1.32,0,0,1,.17,1.11c-.11.39-2.56,9.53,4.09,13.15a1.36,1.36,0,0,1-.65,2.55Z"/></g><g id="change4_3"><path fill="#f29b84" d="M32.67,198.51a1.36,1.36,0,0,1-1.17-2c3.86-6.72,16.08-8.85,16.6-8.94a1.36,1.36,0,0,1,.45,2.69c-.11,0-11.47,2-14.69,7.6A1.38,1.38,0,0,1,32.67,198.51Z"/></g><g id="change4_4"><path fill="#f29b84" d="M33.15,187.1a1.41,1.41,0,0,1-.68-.18c-.61-.35-6.91-4.1-6.91-4.1l-10.9-9a1.36,1.36,0,1,1,1.74-2.1l10.72,8.89h0s6.11,3.61,6.71,4a1.36,1.36,0,0,1-.68,2.54Z"/></g><g id="change4_5"><path fill="#f29b84" d="M29.09,191.9a1.38,1.38,0,0,1-.62-.15A44.83,44.83,0,0,0,23,189.61a1.41,1.41,0,0,1-.42-.22L8.8,178.82a1.36,1.36,0,0,1,1.66-2.16l13.6,10.43a43.41,43.41,0,0,1,5.65,2.24,1.36,1.36,0,0,1-.62,2.57Z"/></g><g id="change4_6"><path fill="#f29b84" d="M439.77,206.23a1.36,1.36,0,0,1-.85-2.43,43.74,43.74,0,0,1,28.88-9.08c2.6-2.55,11.44-8.78,13.32-10.09a1.35,1.35,0,0,1,1.9.33,1.37,1.37,0,0,1-.33,1.9c-4.62,3.22-12.3,8.82-13.26,10.09a1.39,1.39,0,0,1-1.23.53c-.16,0-15.08-1.48-27.59,8.45A1.35,1.35,0,0,1,439.77,206.23Z"/></g><g id="change4_7"><path fill="#f29b84" d="M435,203.31a1.33,1.33,0,0,1-1.19-.71,1.35,1.35,0,0,1,.54-1.84c6.66-3.62,4.2-12.76,4.09-13.15a1.4,1.4,0,0,1,.17-1.11l.73-1.13a1.36,1.36,0,0,1,2.29,1.48l-.41.63c1,4.21,1,12.12-5.57,15.67A1.36,1.36,0,0,1,435,203.31Z"/></g><g id="change4_8"><path fill="#f29b84" d="M456.1,198.51a1.36,1.36,0,0,1-1.18-.69c-3.23-5.59-14.59-7.58-14.7-7.6a1.37,1.37,0,0,1-1.12-1.57,1.38,1.38,0,0,1,1.57-1.12c.52.09,12.74,2.22,16.61,8.94a1.37,1.37,0,0,1-.5,1.86A1.41,1.41,0,0,1,456.1,198.51Z"/></g><g id="change4_9"><path fill="#f29b84" d="M455.62,187.1a1.36,1.36,0,0,1-.67-2.54c.61-.35,6.87-4.08,6.87-4.08l10.56-8.77a1.36,1.36,0,0,1,1.74,2.1l-10.73,8.89c-.17.12-6.47,3.87-7.09,4.22A1.36,1.36,0,0,1,455.62,187.1Z"/></g><g id="change4_10"><path fill="#f29b84" d="M459.69,191.9a1.36,1.36,0,0,1-.63-2.57,44.56,44.56,0,0,1,5.65-2.24l13.61-10.43a1.36,1.36,0,0,1,1.91.25,1.38,1.38,0,0,1-.25,1.91l-13.79,10.57a1.41,1.41,0,0,1-.42.22,43.54,43.54,0,0,0-5.46,2.14A1.38,1.38,0,0,1,459.69,191.9Z"/></g><g id="change5_1"><ellipse rx="4.94" ry="7.11" fill="#3c4144" cx="261.08" cy="117.45"/></g><g id="change5_2"><ellipse rx="4.94" ry="7.11" fill="#3c4144" cx="223.98" cy="117.45"/></g><g id="change6_1"><path fill="#fdfdfd" d="M235.58,150s1-6.74,5.27-7.05,6.53,7,5.76,8.36S236,153.56,235.58,150Z"/></g><g id="change4_11"><path fill="#f29b84" d="M245.63,186.47a52.3,52.3,0,0,1-8.52-.79,1.37,1.37,0,0,1-1.12-1.57,1.39,1.39,0,0,1,1.57-1.12,39.17,39.17,0,0,0,12.6.41,1.36,1.36,0,0,1,.44,2.69A31.15,31.15,0,0,1,245.63,186.47Z"/></g><g id="change1_5"><path fill="#1f0153" d="M272.3,111.66h-.16a30.38,30.38,0,0,1-21.43-10.24A2.72,2.72,0,1,1,255,98.06a24.91,24.91,0,0,0,17.46,8.16,2.72,2.72,0,0,1-.16,5.44Z"/></g><g id="change1_6"><path fill="#1f0153" d="M211.45,111.66a2.72,2.72,0,0,1-.16-5.44,25,25,0,0,0,17.45-8.15,2.73,2.73,0,1,1,4.3,3.35,30.38,30.38,0,0,1-21.43,10.24Z"/></g><g id="change4_12"><path fill="#f29b84" d="M293.66,132.88a1.24,1.24,0,0,1-.33,0,1.35,1.35,0,0,1-1-1.64c.05-.19,1.16-4.52,4.43-6a6.38,6.38,0,0,1,5.68.31,1.36,1.36,0,1,1-1.2,2.45,3.76,3.76,0,0,0-3.33-.29c-1.73.8-2.71,3.33-2.94,4.24A1.36,1.36,0,0,1,293.66,132.88Z"/></g><g id="change4_13"><path fill="#f29b84" d="M196,132.88a1.37,1.37,0,0,1-1.32-1c-.23-.91-1.21-3.44-2.94-4.24a3.76,3.76,0,0,0-3.33.29,1.36,1.36,0,1,1-1.19-2.45,6.38,6.38,0,0,1,5.68-.31c3.27,1.53,4.38,5.86,4.42,6a1.35,1.35,0,0,1-1,1.64A1.24,1.24,0,0,1,196,132.88Z"/></g><g id="change4_14"><path fill="#f29b84" d="M242,134.65c-2.7,0-4.72-1.52-5.17-3.87-.4-2.07,1.51-11,2.1-13.63a1.36,1.36,0,0,1,2.66.59c-1.15,5.21-2.28,11.48-2.09,12.53a2.26,2.26,0,0,0,2.5,1.65,1.37,1.37,0,0,1,0,2.73Z"/></g><g id="change7_1"><path fill="#ff9e9e" d="M242.7,159.18h-3.06a1.36,1.36,0,1,1,0-2.72h3.06a1.36,1.36,0,1,1,0,2.72Z"/></g><g id="change7_2"><circle fill="#ff9e9e" r="8.56" cx="272.3" cy="137.31"/></g><g id="change7_3"><circle fill="#ff9e9e" r="8.56" cx="213.3" cy="137.31"/></g><g id="change8_1"><path fill="#3e0497" d="M301.59,109.81c-3.68,0-7.77-4-8.29-4.51a1.36,1.36,0,0,1,1.93-1.92c1.45,1.45,4.95,4.19,6.83,3.65.23-1.31-1.75-6.11-3.07-9.32-2.09-5.07-4.26-10.32-4-13.52A1.39,1.39,0,0,1,296.51,83a1.36,1.36,0,0,1,1.23,1.48c-.23,2.54,1.89,7.68,3.76,12.23,2.77,6.71,4.77,11.55,1.8,12.81A4.38,4.38,0,0,1,301.59,109.81Z"/></g><g id="change8_2"><path fill="#3e0497" d="M285.38,89.23a1.37,1.37,0,0,1-1.34-1.1,74.83,74.83,0,0,1-1.4-12.55A1.3,1.3,0,0,1,284,74.25a1.36,1.36,0,0,1,1.33,1.39,74.39,74.39,0,0,0,1.35,12,1.35,1.35,0,0,1-1.07,1.6Z"/></g><g id="change8_3"><path fill="#3e0497" d="M227,84.9a1.37,1.37,0,0,1-1-2.29c.37-.4,9.18-10,16.64-15.46a1.36,1.36,0,0,1,1.6,2.2c-7.23,5.3-16.14,15-16.23,15.1A1.35,1.35,0,0,1,227,84.9Z"/></g><g id="change8_4"><path fill="#3e0497" d="M180.08,89.66a1.36,1.36,0,0,1-.21-2.7,11.21,11.21,0,0,0,5.44-2.78,1.36,1.36,0,1,1,1.92,1.93,13.75,13.75,0,0,1-6.95,3.54Z"/></g><g id="change8_5"><path fill="#3e0497" d="M189,105.08a3.45,3.45,0,0,1-2.27-.88c-1.26-1.06-1.65-3.25-1.21-6.68,1.39-10.63,11.89-35.19,29.9-43.8a1.36,1.36,0,0,1,1.82.64,1.38,1.38,0,0,1-.64,1.82c-16.3,7.79-27,30.93-28.38,41.69-.38,3,.06,4.08.27,4.26a.71.71,0,0,0,.67.21c1.34-.29,3.28-3.18,4.16-5a1.37,1.37,0,1,1,2.47,1.17c-.47,1-2.93,5.86-6,6.53A3.81,3.81,0,0,1,189,105.08Z"/></g><g id="change8_6"><path fill="#3e0497" d="M316.26,87h-.14c-10.66-1-14.63-14.36-17.83-25.08-1.5-5-3-10.19-4.69-11.11a1.36,1.36,0,1,1,1.33-2.37c2.61,1.45,4.09,6.42,6,12.7,3,9.94,6.65,22.3,15.49,23.15a1.36,1.36,0,0,1-.13,2.72Z"/></g><g id="change9_1"><path fill="#ed9656" d="M167.65,280l-.22,0a1.3,1.3,0,0,1-1.07-1.5c3.75-22.81,0-65.42,0-65.85a1.31,1.31,0,0,1,2.61-.23c0,.43,3.79,43.37,0,66.5A1.3,1.3,0,0,1,167.65,280Z"/></g><g id="change9_2"><path fill="#ed9656" d="M322.54,273.16a1.32,1.32,0,0,1-1.27-1c-6.08-22.78,2.18-61.14,2.54-62.76a1.31,1.31,0,1,1,2.55.56c-.08.39-8.49,39.36-2.56,61.53a1.3,1.3,0,0,1-.93,1.6A1.26,1.26,0,0,1,322.54,273.16Z"/></g><g id="change9_3"><path fill="#ed9656" d="M129.61,298.45l-.24,0a1.31,1.31,0,0,1-1.05-1.52c2.09-11.19-1.92-32.63-2-32.85a1.31,1.31,0,1,1,2.57-.48c.17.89,4.14,22.14,2,33.81A1.3,1.3,0,0,1,129.61,298.45Z"/></g><g id="change9_4"><path fill="#ed9656" d="M359.69,304.38a1.3,1.3,0,0,1-1.26-1c-4.31-15.9,1.79-39.25,2.06-40.24a1.29,1.29,0,0,1,1.59-.93,1.31,1.31,0,0,1,.93,1.6c-.06.23-6.18,23.67-2.06,38.88a1.29,1.29,0,0,1-.92,1.6A1.33,1.33,0,0,1,359.69,304.38Z"/></g><g id="change3_3"><path fill="#ffb266" d="M134.29,130.34A18.25,18.25,0,0,0,112,128.78c-7.58,4.89-10.73,13.88-8,22.88a16.38,16.38,0,0,0,5.4,8.2c2.76,2.19,8.77,2.94,13.68.33,2.81-1.51,7.43-5.32,6.71-14.07a3.11,3.11,0,0,0-1.08-2.11,3.09,3.09,0,0,0-5.08,2.61c.32,4-.83,6.71-3.46,8.11-2.83,1.51-6.17.88-6.91.29a10.11,10.11,0,0,1-3.33-5.13A13.75,13.75,0,0,1,115.35,134a12.09,12.09,0,0,1,14.9,1.05c4.69,4,4.46,6.34,4,10.91-.6,6-1.41,14.23,8.32,28.73l.13.18s1.38,1.75,3.37,4a3.09,3.09,0,0,0,4.13.44l.24-.2a3.09,3.09,0,0,0,.24-4.36c-1.56-1.75-2.75-3.22-3-3.57-8.44-12.6-7.78-19.25-7.25-24.59C140.9,141.59,141.41,136.48,134.29,130.34Z"/></g><g id="change3_4"><path fill="#ffb266" d="M152.47,180.47a3.31,3.31,0,1,0,4.63.72A3.33,3.33,0,0,0,152.47,180.47Z"/></g><g id="change3_5"><path fill="#ffb266" d="M394.1,126.79a18.27,18.27,0,0,0-1.37-22.31c-5.84-6.87-15.17-8.82-23.74-5a16.36,16.36,0,0,0-7.42,6.43c-1.81,3-1.77,9.08,1.47,13.61,1.86,2.59,6.24,6.66,14.83,4.8a3.07,3.07,0,0,0,1.94-1.34,3,3,0,0,0,.42-2.33,3.09,3.09,0,0,0-3.67-2.37c-3.9.84-6.76.06-8.49-2.36-1.87-2.61-1.69-6-1.2-6.82a10.27,10.27,0,0,1,4.65-4,13.75,13.75,0,0,1,16.5,3.35,12.09,12.09,0,0,1,.91,14.91c-3.39,5.17-5.7,5.25-10.28,5.4-6,.19-14.29.47-27.4,12l-.16.16s-1.55,1.59-3.5,3.86a3.07,3.07,0,0,0,.11,4.15l.22.21a3.09,3.09,0,0,0,4.36-.33c1.53-1.78,2.83-3.15,3.14-3.48,11.39-10,18.06-10.23,23.43-10.4C383.81,134.81,389,134.64,394.1,126.79Z"/></g><g id="change3_6"><path fill="#ffb266" d="M346.79,151.38a3.31,3.31,0,1,0-.11,4.69A3.33,3.33,0,0,0,346.79,151.38Z"/></g><g id="change3_7"><path fill="#ffb266" d="M361.72,32.78a15,15,0,0,0-4.92-17.72c-5.88-4.52-13.72-4.49-19.95.06A13.48,13.48,0,0,0,332,21.57c-.94,2.74.13,7.61,3.51,10.69,1.94,1.77,6.17,4.3,12.76,1.33a2.52,2.52,0,0,0,1.33-1.41,2.49,2.49,0,0,0-.06-1.95A2.55,2.55,0,0,0,346.15,29c-3,1.35-5.42,1.21-7.24-.44s-2.38-4.55-2.12-5.28a8.3,8.3,0,0,1,3.06-4,11.32,11.32,0,0,1,13.85-.14A9.94,9.94,0,0,1,357,30.94c-1.84,4.74-3.68,5.2-7.35,6.1-4.82,1.19-11.42,2.83-20,14.36l-.11.16s-1,1.54-2.16,3.7a2.54,2.54,0,0,0,.8,3.32l.22.14a2.5,2.5,0,0,0,1.93.2,2.53,2.53,0,0,0,1.52-1.22c.93-1.69,1.73-3,1.93-3.33,7.45-10,12.79-11.33,17.07-12.39C354.82,41,358.92,40,361.72,32.78Z"/></g><g id="change3_8"><path fill="#ffb266" d="M327.86,60.67a2.73,2.73,0,1,0,.72,3.79A2.74,2.74,0,0,0,327.86,60.67Z"/></g><g id="change3_9"><path fill="#ffb266" d="M176.57,4.41A11.28,11.28,0,0,0,163.21.89a12.25,12.25,0,0,0-7.52,13,10.16,10.16,0,0,0,2.33,5.6c1.43,1.65,5,2.8,8.27,1.77,1.88-.59,5.12-2.37,5.7-7.77a1.93,1.93,0,0,0-.42-1.4,1.88,1.88,0,0,0-1.28-.7,1.91,1.91,0,0,0-2.1,1.7c-.26,2.45-1.28,4-3,4.53a4.91,4.91,0,0,1-4.23-.62,6.37,6.37,0,0,1-1.43-3.5,8.49,8.49,0,0,1,5.16-9,7.47,7.47,0,0,1,8.92,2.35c2.38,3,2,4.36,1.18,7.09-1.05,3.57-2.49,8.48,1.75,18.4l.06.13s.63,1.22,1.58,2.8a1.9,1.9,0,0,0,2.46.74.7.7,0,0,0,.17-.09,1.91,1.91,0,0,0,.87-1.17,1.94,1.94,0,0,0-.22-1.45c-.75-1.24-1.3-2.27-1.43-2.52-3.67-8.62-2.51-12.58-1.57-15.77C179.28,12,180.18,9,176.57,4.41Z"/></g><g id="change3_10"><path fill="#ffb266" d="M181.84,36.94a2,2,0,1,0,2.72,1A2,2,0,0,0,181.84,36.94Z"/></g></g></g></svg>