<?xml version="1.0" encoding="UTF-8"?><svg xmlns="http://www.w3.org/2000/svg" xmlns:xlink="http://www.w3.org/1999/xlink" contentScriptType="text/ecmascript" fill="#000000" width="366.7" zoomAndPan="magnify" contentStyleType="text/css" viewBox="0.0 -2.2 366.7 487.3" height="487.3" preserveAspectRatio="xMidYMid meet" version="1"><defs><clipPath id="a"><path d="M 146 48 L 366.660156 48 L 366.660156 485.070312 L 146 485.070312 Z M 146 48"/></clipPath></defs><g><g id="change1_1"><path fill="#ffae9a" d="M 203.917969 57.386719 L 206.167969 74.886719 L 203.667969 103.886719 L 187.917969 94.386719 L 185.167969 65.636719 L 203.917969 57.386719"/></g><g id="change2_1"><path fill="#000000" d="M 226.472656 209.878906 C 248.308594 199.53125 280.335938 201.636719 280.335938 201.636719 C 280.335938 201.636719 262.679688 179.992188 280.335938 201.636719 C 297.988281 223.277344 310.953125 315.625 310.953125 315.625 C 310.953125 315.625 328.195312 331.714844 339.113281 364.476562 C 350.035156 397.234375 359.230469 427.695312 359.230469 427.695312 L 329.34375 444.933594 L 320.148438 421.945312 C 320.148438 421.945312 317.851562 416.199219 306.355469 394.359375 C 294.863281 372.519531 287.390625 341.488281 280.492188 329.417969 C 273.597656 317.347656 237.964844 255.277344 237.964844 255.277344 C 241.414062 277.695312 231.167969 346.636719 231.167969 346.636719 C 231.167969 346.636719 235.089844 358.152344 237.964844 385.738281 C 240.839844 413.324219 246.011719 459.878906 246.011719 459.878906 L 208.65625 458.152344 C 208.65625 458.152344 196.011719 354.703125 191.414062 308.152344 C 186.816406 261.601562 190.839844 235.738281 190.839844 235.738281 C 190.839844 235.738281 204.632812 220.222656 226.472656 209.878906"/></g><g id="change3_1"><path fill="#ffae9a" d="M 156.667969 26.300781 L 156.5 39.636719 C 156.5 39.636719 152.5 39.300781 152.832031 44.96875 C 153.167969 50.636719 158 53.46875 158 53.46875 C 158 53.46875 163.667969 73.300781 185.167969 71.46875 C 206.667969 69.636719 210.167969 53.800781 213 50.636719 C 215.835938 47.46875 221.835938 43.96875 220.167969 36.300781 C 218.5 28.636719 208.835938 37.136719 208.835938 37.136719 C 208.835938 37.136719 191 30.46875 199.835938 9.800781 C 199.835938 9.800781 167.167969 28.800781 156.667969 26.300781 Z M 270.667969 178.136719 C 277.417969 172.886719 283.167969 159.886719 281.167969 151.386719 C 279.167969 142.886719 276.667969 135.136719 276.667969 135.136719 L 259.667969 151.636719 Z M 172.335938 164.300781 C 172.335938 164.300781 177.417969 158.386719 172.335938 164.300781 C 167.25 170.21875 143.917969 177.386719 123.667969 171.386719 C 103.417969 165.386719 86.167969 160.386719 83.417969 160.886719 C 80.667969 161.386719 76.417969 162.386719 76.417969 162.386719 L 68.417969 149.886719 C 62.667969 149.886719 57.167969 147.636719 55.167969 143.636719 C 53.167969 139.636719 48.417969 133.636719 48.417969 130.386719 C 48.417969 127.136719 55.417969 130.386719 55.417969 130.386719 C 55.417969 130.386719 54.667969 128.136719 55.667969 126.636719 C 56.667969 125.136719 65.667969 129.136719 72.417969 131.386719 C 79.167969 133.636719 86.417969 144.636719 86.417969 144.636719 L 146.332031 149.636719 L 172.335938 164.300781"/></g><g id="change4_1"><path fill="#000000" d="M 239.59375 258.125 C 233.1875 247.644531 225.296875 248.035156 224.964844 248.058594 L 225.027344 249.058594 C 225.117188 249.054688 232.667969 248.710938 238.738281 258.648438 Z M 66.945312 145.71875 L 66.390625 146.550781 C 68.3125 147.835938 67.945312 149.699219 67.925781 149.78125 L 68.417969 149.886719 L 67.929688 149.777344 L 68.90625 149.992188 C 68.929688 149.890625 69.449219 147.390625 66.945312 145.71875 Z M 68.34375 145.875 C 68.933594 145.402344 69.121094 144.617188 68.90625 143.539062 C 68.105469 139.542969 64.707031 138.453125 64.5625 138.40625 L 64.269531 139.363281 C 64.300781 139.371094 67.242188 140.316406 67.925781 143.734375 C 68.0625 144.417969 67.992188 144.875 67.71875 145.09375 C 67.058594 145.617188 65.179688 145.042969 64.34375 144.667969 L 55.84375 141.417969 L 55.488281 142.351562 L 63.960938 145.59375 C 64.179688 145.691406 65.59375 146.304688 66.871094 146.304688 C 67.421875 146.300781 67.949219 146.191406 68.34375 145.875 Z M 68.632812 136.070312 L 67.703125 135.699219 C 67.6875 135.734375 66.316406 138.984375 64.574219 138.410156 C 62.355469 137.671875 52.429688 134.199219 52.332031 134.164062 L 52 135.109375 C 52.101562 135.144531 62.03125 138.617188 64.257812 139.359375 C 64.523438 139.449219 64.78125 139.488281 65.023438 139.488281 C 67.234375 139.488281 68.570312 136.226562 68.632812 136.070312 Z M 76.59375 148.917969 C 69.007812 146.074219 68.667969 135.976562 68.667969 135.875 L 68.660156 135.554688 L 55.613281 129.925781 L 55.21875 130.84375 L 67.683594 136.222656 C 67.816406 138.050781 68.828125 147.074219 76.242188 149.855469 Z M 68.417969 149.886719 C 66.828125 149.886719 65.257812 149.707031 63.777344 149.375 L 83.332031 184.96875 L 87.667969 182.96875 L 74.488281 159.371094 Z M 55.417969 130.386719 C 55.417969 130.386719 54.667969 128.136719 55.667969 126.636719 C 55.746094 126.515625 55.890625 126.445312 56.066406 126.390625 L 3.332031 31.96875 L 0 33.300781 L 52.804688 129.40625 C 54.210938 129.828125 55.417969 130.386719 55.417969 130.386719 Z M 156.667969 26.300781 C 167.167969 28.800781 199.835938 9.800781 199.835938 9.800781 C 191 30.46875 208.835938 37.136719 208.835938 37.136719 C 208.835938 37.136719 217.203125 29.78125 219.707031 34.941406 C 221.167969 30.632812 222.191406 25.914062 221.835938 21.636719 C 220.835938 9.636719 206.835938 7.46875 206.835938 7.46875 C 206.835938 7.46875 202.667969 -2.199219 183.667969 0.46875 C 164.667969 3.136719 159.667969 13.136719 156.667969 17.96875 C 153.667969 22.800781 156.5 39.636719 156.5 39.636719 Z M 187.503906 94.101562 C 184.777344 98.066406 183.296875 98.472656 182.65625 98.371094 C 181.753906 98.21875 181.203125 96.863281 180.898438 95.753906 C 179.421875 90.335938 177.921875 82.863281 177.90625 82.789062 L 176.925781 82.984375 C 176.941406 83.058594 178.445312 90.5625 179.933594 96.015625 C 180.492188 98.066406 181.328125 99.160156 182.488281 99.355469 C 182.605469 99.378906 182.722656 99.386719 182.84375 99.386719 C 184.351562 99.386719 186.148438 97.839844 188.328125 94.667969 C 191.042969 90.722656 193.050781 87.957031 193.070312 87.929688 L 192.261719 87.34375 C 192.242188 87.367188 190.226562 90.144531 187.503906 94.101562 Z M 215.417969 71.65625 C 215.785156 80.632812 216.039062 90.28125 214.359375 91.140625 C 214.03125 91.308594 213.484375 91.089844 212.726562 90.492188 C 209.269531 87.777344 201.066406 81.066406 200.984375 81 L 200.351562 81.773438 C 200.433594 81.839844 208.644531 88.558594 212.109375 91.277344 C 212.644531 91.699219 213.378906 92.195312 214.117188 92.195312 C 214.351562 92.195312 214.589844 92.144531 214.816406 92.027344 C 216.648438 91.09375 217.019531 86.324219 216.417969 71.613281 Z M 242.625 111.1875 L 241.707031 111.585938 L 259.207031 151.835938 L 260.125 151.4375 Z M 161.675781 115.488281 L 171.84375 164.402344 L 172.824219 164.199219 L 162.65625 115.285156 Z M 176.058594 38.480469 L 175.722656 37.539062 L 169.75 39.664062 L 170.085938 40.605469 Z M 189.761719 28.148438 C 184.773438 23.425781 178.449219 27.679688 178.382812 27.722656 L 178.949219 28.546875 C 179.007812 28.507812 184.664062 24.699219 189.074219 28.875 Z M 170.164062 30.816406 L 170.671875 29.953125 C 164.878906 26.53125 160.828125 31.140625 160.785156 31.1875 L 161.546875 31.835938 C 161.6875 31.671875 165.105469 27.828125 170.164062 30.816406 Z M 186.542969 35.949219 C 185.507812 35.949219 184.667969 37.261719 184.667969 38.886719 C 184.667969 40.507812 185.507812 41.824219 186.542969 41.824219 C 187.578125 41.824219 188.417969 40.507812 188.417969 38.886719 C 188.417969 37.261719 187.578125 35.949219 186.542969 35.949219 Z M 165.945312 39.6875 C 164.90625 39.6875 164.070312 41.003906 164.070312 42.628906 C 164.070312 44.25 164.90625 45.5625 165.945312 45.5625 C 166.980469 45.5625 167.820312 44.25 167.820312 42.628906 C 167.820312 41.003906 166.980469 39.6875 165.945312 39.6875 Z M 175.300781 52.066406 C 177.160156 50.945312 178.28125 50.324219 178.285156 50.324219 L 177.800781 49.449219 C 177.800781 49.449219 176.667969 50.078125 174.785156 51.207031 C 174.015625 51.667969 172.726562 52.4375 172.265625 52.160156 C 172.128906 52.074219 171.8125 51.710938 171.914062 50.167969 C 172.164062 46.421875 172.414062 42.796875 172.414062 42.796875 L 171.417969 42.726562 C 171.417969 42.726562 171.167969 46.351562 170.917969 50.101562 C 170.8125 51.679688 171.074219 52.601562 171.746094 53.011719 C 171.980469 53.15625 172.242188 53.21875 172.515625 53.21875 C 173.375 53.21875 174.382812 52.613281 175.300781 52.066406 Z M 161.792969 34.484375 C 157.433594 34.484375 153.890625 38.027344 153.890625 42.386719 C 153.890625 46.742188 157.433594 50.285156 161.792969 50.285156 C 166.148438 50.285156 169.691406 46.742188 169.691406 42.386719 C 169.691406 38.027344 166.148438 34.484375 161.792969 34.484375 Z M 161.792969 51.285156 C 156.882812 51.285156 152.890625 47.292969 152.890625 42.386719 C 152.890625 37.476562 156.882812 33.484375 161.792969 33.484375 C 166.699219 33.484375 170.691406 37.476562 170.691406 42.386719 C 170.691406 47.292969 166.699219 51.285156 161.792969 51.285156 Z M 184.292969 30.109375 C 179.933594 30.109375 176.390625 33.652344 176.390625 38.011719 C 176.390625 42.367188 179.933594 45.910156 184.292969 45.910156 C 188.648438 45.910156 192.191406 42.367188 192.191406 38.011719 C 192.191406 33.652344 188.648438 30.109375 184.292969 30.109375 Z M 184.292969 46.910156 C 179.382812 46.910156 175.390625 42.917969 175.390625 38.011719 C 175.390625 33.101562 179.382812 29.109375 184.292969 29.109375 C 189.199219 29.109375 193.191406 33.101562 193.191406 38.011719 C 193.191406 42.917969 189.199219 46.910156 184.292969 46.910156"/></g><g id="change5_1" clip-path="url(#a)"><path fill="#f46e16" d="M 259.667969 151.636719 L 259.207031 151.835938 L 241.707031 111.585938 L 242.625 111.1875 L 260.066406 151.296875 L 275.667969 138.070312 C 280.570312 133.914062 281.519531 126.734375 277.894531 121.429688 C 273.730469 115.34375 268.660156 107.21875 266 100.300781 C 261 87.300781 252 77.636719 236.335938 74.636719 C 220.667969 71.636719 205.335938 69.636719 205.335938 69.636719 L 200.667969 79.636719 L 200.378906 81.738281 L 200.984375 81 C 201.066406 81.066406 209.269531 87.777344 212.726562 90.492188 C 213.484375 91.089844 214.03125 91.308594 214.359375 91.140625 C 216.039062 90.28125 215.785156 80.632812 215.417969 71.65625 L 216.417969 71.613281 C 217.019531 86.324219 216.648438 91.09375 214.816406 92.027344 C 214.589844 92.144531 214.351562 92.195312 214.117188 92.195312 C 213.378906 92.195312 212.644531 91.699219 212.109375 91.277344 C 208.6875 88.589844 200.644531 82.015625 200.371094 81.789062 L 199.113281 90.949219 C 198.847656 92.902344 196.292969 93.46875 195.222656 91.808594 L 192.886719 88.183594 C 192.339844 88.941406 190.578125 91.398438 188.328125 94.667969 C 186.148438 97.839844 184.351562 99.386719 182.84375 99.386719 C 182.722656 99.386719 182.605469 99.378906 182.488281 99.355469 C 181.328125 99.160156 180.492188 98.066406 179.933594 96.015625 C 178.445312 90.5625 176.941406 83.058594 176.925781 82.984375 L 177.90625 82.789062 C 177.921875 82.863281 179.421875 90.335938 180.898438 95.753906 C 181.203125 96.863281 181.753906 98.21875 182.65625 98.371094 C 183.296875 98.472656 184.777344 98.066406 187.503906 94.101562 C 190.226562 90.144531 192.242188 87.367188 192.261719 87.34375 L 192.421875 87.457031 L 185.667969 76.96875 C 185.667969 76.96875 173 84.300781 162 95.300781 C 151 106.300781 146.332031 126.636719 146.332031 149.636719 L 171.757812 163.976562 L 161.675781 115.488281 L 162.65625 115.285156 L 172.824219 164.199219 L 172.335938 164.300781 L 185.292969 230.304688 C 186.011719 233.960938 189.847656 236.089844 193.332031 234.765625 L 280.335938 201.636719 Z M 182.042969 57.886719 C 186.417969 57.886719 189.417969 54.886719 190.542969 51.636719 C 191.667969 48.386719 189.292969 47.136719 187.542969 50.011719 C 185.792969 52.886719 182.238281 54.34375 179.667969 54.886719 C 177.292969 55.386719 177.667969 57.886719 182.042969 57.886719 Z M 210.652344 458.246094 C 206.792969 461.429688 200.285156 466.136719 193 468.636719 C 183.25 471.980469 176.757812 473.925781 175.085938 479.535156 C 174.523438 481.414062 175.957031 483.304688 177.917969 483.304688 L 244.035156 483.304688 C 246.066406 483.304688 247.570312 481.417969 247.117188 479.4375 L 242.628906 459.722656 Z M 358.105469 428.34375 L 330.3125 444.378906 C 330.035156 448.933594 329.113281 455.375 326.335938 461.304688 C 322.644531 469.167969 320.226562 476.488281 321.351562 482.066406 C 321.921875 484.902344 325.347656 486.058594 327.472656 484.089844 L 364.601562 449.753906 C 366.785156 447.734375 367.289062 444.472656 365.816406 441.886719 Z M 356.039062 417.203125 L 355.527344 416.34375 L 324.660156 434.707031 L 325.171875 435.566406 Z M 244.386719 450.148438 L 206.914062 448.882812 L 206.949219 447.882812 L 244.421875 449.148438 L 244.386719 450.148438"/></g></g></svg>