<?xml version="1.0" encoding="UTF-8"?><svg xmlns="http://www.w3.org/2000/svg" xmlns:xlink="http://www.w3.org/1999/xlink" contentScriptType="text/ecmascript" fill="#000000" width="389.9" zoomAndPan="magnify" contentStyleType="text/css" viewBox="-0.5 -6.7 389.9 464.3" height="464.3" preserveAspectRatio="xMidYMid meet" version="1"><g data-name="Layer 3"><g id="change1_1"><path fill="#2d3456" d="M357.42,230.42c-15.18,6.46-176.62,12.4-196.31-15-14.84-20.62-9.28-42,14.92-56,22.44-13,28.61-89.71,29.39-100.82-7.36-4.48-16.36-12.79-14.12-26,5-29.7,33.36-20.11,33.36-20.11l-9.15,43.79,96.26-9.34s18.83,81.26,21.53,91.62c5.44,20.83,16.71,30.54,32.52,50.37C375.67,201.28,372.6,224,357.42,230.42Z"/></g><g id="change2_1"><path fill="#d2583a" d="M330.93,317.9c1.88,9.41,34.13,123.5,34.13,123.5C303,455.83,224.22,457.61,161.9,443.63c0,0,26.47-86.54,29.23-113.5,5-48.24-29.16-105-29.16-105,0-46.81,45.51-84.76,101.66-84.76s101.67,38,101.67,84.76C365.3,225.08,330,279.77,330.93,317.9Z"/></g><g id="change3_1"><path fill="#dfa78e" d="M191.33,279.82s-2.73,8.24-14.73,55.55-60.72,66-87.19,13.06c-12.46-24.92-43.17-80-47.78-88.27A19.33,19.33,0,0,1,36.46,257c-14.13-12-19.87-19.9-19.87-19.9L1.35,221.28a4.83,4.83,0,0,1-.11-6.59l.36-.4a4.84,4.84,0,0,1,6.53-.61l1.12-2.19L4.69,201.42a4.84,4.84,0,0,1,7.7-5.85l3.56.57-2.75-11a4.86,4.86,0,0,1,.91-5.59l.5-.5a4.84,4.84,0,0,1,7.4.66l9.85,9.17-1.32-8.34a4.83,4.83,0,0,1,3.07-6.42l.09,0a4.85,4.85,0,0,1,5.83,2.62L62.23,215l1.06-20.45a5.5,5.5,0,0,1,10.87-1.4c1.89,8.73,5.75,36.53,3,48.39,10.14,13.47,52.35,69.63,53.59,73.36,1.41,4.24,29.55-93.68,29.55-93.68Z"/></g><g id="change2_2"><path fill="#d2583a" d="M192.84,269,191,290.58,145.3,273.24l18.59-65.67Z"/></g><g id="change3_2"><path fill="#dfa78e" d="M322,79.52a13.4,13.4,0,0,1-18.25,12.29,56.56,56.56,0,0,1-16,26.5v48.2l-8.25,2.6a62.38,62.38,0,0,1-36.7.26l-9.5-2.86V117h.26A57.3,57.3,0,0,1,219,91.79a13.22,13.22,0,1,1-2.84-26.09c.22,0,.43,0,.65,0,2.9-27.4,21.74-48.55,44.57-48.55,23.06,0,42,21.58,44.65,49.38a13.55,13.55,0,0,1,2.56-.24A13.3,13.3,0,0,1,322,79.52Z"/></g><g id="change2_3"><path fill="#d2583a" d="M243.47,89.17a5.09,5.09,0,1,1-4.54-5.58A5.08,5.08,0,0,1,243.47,89.17Z"/></g><g id="change4_1"><path fill="#231f20" d="M288.92,62.86a3.18,3.18,0,0,1-.49,3c-1.08,1.24-3.05,1.09-4.62.6a17,17,0,0,1-5.64-3,7,7,0,0,1-2.57-3.36,3.27,3.27,0,0,1,1.29-3.76A4.9,4.9,0,0,1,279.2,56a7.67,7.67,0,0,1,3,.53,14.14,14.14,0,0,1,5,3.65A7.08,7.08,0,0,1,288.92,62.86ZM236.37,66.5a17.14,17.14,0,0,0,5.64-3,7,7,0,0,0,2.57-3.36,3.27,3.27,0,0,0-1.3-3.76A4.88,4.88,0,0,0,241,56a7.73,7.73,0,0,0-3,.53,14.23,14.23,0,0,0-5,3.65,7.2,7.2,0,0,0-1.75,2.68,3.2,3.2,0,0,0,.49,3C232.83,67.14,234.79,67,236.37,66.5Zm43,19.74a1.11,1.11,0,0,0-1.51.44c-3.35,6.12-7.61,9.28-12.66,9.37a1.11,1.11,0,0,0,0,2.22h0c4.05-.08,9.87-2,14.56-10.53A1.1,1.1,0,0,0,279.39,86.24ZM240.22,69.4a2.5,2.5,0,1,0,2.23,2.74A2.5,2.5,0,0,0,240.22,69.4Zm37.72,0a2.5,2.5,0,1,0,2.23,2.74A2.5,2.5,0,0,0,277.94,69.4ZM262.68,87.58h.17a1.11,1.11,0,0,0,.17-2.2,3.52,3.52,0,0,1-2.37-1.54c-3.6-5-1.37-18.71-1.35-18.84a1.11,1.11,0,1,0-2.18-.37c-.1.6-2.41,14.79,1.73,20.5A5.72,5.72,0,0,0,262.68,87.58Zm2.46,36.92c-14.31,5.25-26.35-3.44-30.86-7.42a1.1,1.1,0,0,0-1.56.09,2.12,2.12,0,0,0-.12.2.6.6,0,0,0-.08-.08v.23a1,1,0,0,0,0,.74v19.66s6.83-2,21.4-9.64c.69.05,1.4.08,2.11.08a28.51,28.51,0,0,0,9.87-1.78,1.11,1.11,0,0,0-.76-2.08Zm51.93-48.63c-2.16-1.74-4.27-2.38-6.27-1.9-3.13.75-4.65,4-4.71,4.16a1.1,1.1,0,0,0,.55,1.47,1.06,1.06,0,0,0,.46.1,1.11,1.11,0,0,0,1-.65s1.15-2.43,3.21-2.92c1.29-.31,2.76.18,4.37,1.47a1.11,1.11,0,0,0,1.38-1.73ZM213.94,74c-2-.48-4.1.16-6.27,1.9a1.1,1.1,0,0,0-.17,1.55,1.11,1.11,0,0,0,1.56.18c1.6-1.28,3.06-1.78,4.35-1.48,2.08.49,3.22,2.91,3.23,2.93a1.1,1.1,0,0,0,1,.65,1,1,0,0,0,.45-.1,1.12,1.12,0,0,0,.56-1.47C218.59,78,217.07,74.72,213.94,74Z"/></g><g id="change1_2"><path fill="#2d3456" d="M250.86.62C303.45-6.71,313.19,53,313.19,53c-2.48.74-6.73,13.29-6.73,13.29S297.89,43.15,294.29,44c-48.83,11.57-63.74-7.25-63.74-7.25-7.16,12.85-11.66,31.74-11.66,31.74l-7.57-6.69S201.4,7.52,250.86.62Z"/></g><g id="change5_1"><path fill="#faf9f5" d="M218.55,91.49a5.86,5.86,0,1,1-5.86-5.86A5.86,5.86,0,0,1,218.55,91.49Zm91.26-5.86a5.86,5.86,0,1,0,5.86,5.86A5.86,5.86,0,0,0,309.81,85.63Z"/></g><g id="change5_2"><path fill="#faf9f5" d="M283.29,211c-10,0-21.49-11.46-25.15-15.42-2.41,3.58-9.07,12.39-17.27,13.66-4.05.63-7.88-.66-11.38-3.81-14-12.56-21.66-48.8-22-50.34a1.31,1.31,0,0,1,2.57-.54c.07.37,7.86,37,21.17,48.93,2.93,2.64,5.95,3.68,9.23,3.17,8.9-1.37,16.29-13.77,16.36-13.89a1.27,1.27,0,0,1,1-.64,1.29,1.29,0,0,1,1.11.45c.16.18,16.14,18.63,26.92,15.46,4.83-1.42,12.21-10.78,19.25-24.43,6.46-12.5,10.7-25.12,10.09-30a1.31,1.31,0,0,1,1.13-1.46,1.32,1.32,0,0,1,1.47,1.13c.79,6.38-4.63,20.44-10.36,31.54-2.8,5.42-12.58,23.31-20.84,25.74A11.62,11.62,0,0,1,283.29,211Zm-18.78,10a6.05,6.05,0,1,0-6.05,6.05A6.05,6.05,0,0,0,264.51,221Zm-2.61,0a3.44,3.44,0,1,1-3.44-3.44A3.45,3.45,0,0,1,261.9,221Zm2.61,30a6.05,6.05,0,1,0-6.05,6.05A6.05,6.05,0,0,0,264.51,251Zm-2.61,0a3.44,3.44,0,1,1-3.44-3.44A3.44,3.44,0,0,1,261.9,251Z"/></g><g id="change1_3"><path fill="#2d3456" d="M317.14,417.7H199.94V251.43h117.2Z"/></g><g id="change2_4"><path fill="#d2583a" d="M212,419H199.94a1.31,1.31,0,0,1-1.31-1.31V251.43a1.31,1.31,0,0,1,1.31-1.3H212a1.31,1.31,0,0,1,1.31,1.3V417.7A1.31,1.31,0,0,1,212,419Zm-10.78-2.61h9.47V252.74h-9.47Z"/></g><g id="change3_3"><path fill="#dfa78e" d="M384.53,368.2c-4.25,11.53-106.28,12.89-134.88,13a18.39,18.39,0,0,1-1.7.71c-17.43,6.3-27.13,7.38-27.13,7.38l-21,5.3a5.13,5.13,0,0,1-3.25-9.69l5.74-3.68-7.1.89a5.13,5.13,0,0,1-5.92-3.84l-.59-2.46a5.13,5.13,0,0,1,4-6.24l3.85-2.49L190.72,365a5.13,5.13,0,0,1-4.39-5l0-1.69a5.12,5.12,0,0,1,4.52-5.2l1-2.2-1.55-1.34a5.13,5.13,0,0,1-4.55-5l-.06-3.07a5.12,5.12,0,0,1,5.5-5.21l33.07,2.41-17.22-11.08a5.5,5.5,0,0,1,4.18-10.13c7.32,2.32,27.59,10.36,38.8,17.85l80.13-8.83-6.7-56.83,40.24-48S389.47,354.78,384.53,368.2Z"/></g><g id="change2_5"><path fill="#d2583a" d="M362.29,212.05l10.62,57.2L321.34,285l-1.59-19.5Z"/></g><g id="change2_6"><path fill="#d2583a" d="M293.07,305.73h-61.4a1.31,1.31,0,0,1-1.31-1.31V280a1.31,1.31,0,0,1,1.71-1.33c3.09.18,37.9-1.26,60.94-2.3a1.35,1.35,0,0,1,1,.36,1.31,1.31,0,0,1,.4.95v26.79A1.31,1.31,0,0,1,293.07,305.73ZM233,303.11h58.78V279c-4.08.18-16.66.74-29.26,1.25-18.72.77-26.32,1.08-29.52,1Z"/></g><g id="change4_2"><path fill="#231f20" d="M151.43,346.79a1.13,1.13,0,0,1-.37,1.53,1.1,1.1,0,0,1-.58.16,1.12,1.12,0,0,1-.95-.53l-19.77-32.48a1.11,1.11,0,1,1,1.9-1.15ZM353,321.56c-.61.07-15,1.8-23.1,3.91a1.11,1.11,0,0,0,.28,2.18.86.86,0,0,0,.28,0c8-2.07,22.65-3.83,22.8-3.85a1.11,1.11,0,0,0,1-1.23A1.09,1.09,0,0,0,353,321.56ZM228.13,350.74a1.07,1.07,0,0,0-1.12-1.1l-35.72.37a1.11,1.11,0,0,0,0,2.22h0l35.72-.37A1.12,1.12,0,0,0,228.13,350.74Zm1.48,13.67a1.1,1.1,0,0,0-1.2-1l-32.75,3a1.11,1.11,0,0,0,.1,2.21h.1l32.75-3A1.11,1.11,0,0,0,229.61,364.41Zm-.65,8.71-28.47,7.81a1.11,1.11,0,0,0-.77,1.37,1.1,1.1,0,0,0,1.06.81,1,1,0,0,0,.3,0l28.46-7.81a1.11,1.11,0,0,0-.58-2.14ZM54.74,218.66a16.59,16.59,0,0,0-4.61.68L32,187.78a1.1,1.1,0,0,0-1.51-.41,1.09,1.09,0,0,0-.41,1.51L48,220.09a30.69,30.69,0,0,0-9,6l-23.88-31.5A1.11,1.11,0,1,0,13.39,196l24.06,31.73a53,53,0,0,0-5.22,6.34l-22.77-22a1.11,1.11,0,0,0-1.54,1.59l23.72,22.89a1.12,1.12,0,0,0,.77.31h.14a1.09,1.09,0,0,0,.8-.51c.1-.15,9.86-15.48,21.39-15.48a1.11,1.11,0,1,0,0-2.22Z"/></g></g></svg>