<?xml version="1.0" encoding="UTF-8" standalone="no"?><svg xmlns="http://www.w3.org/2000/svg" xmlns:xlink="http://www.w3.org/1999/xlink" contentScriptType="text/ecmascript" fill="#000000" width="524.3" zoomAndPan="magnify" contentStyleType="text/css" viewBox="-20.7 -0.9 524.3 522.6" height="522.6" preserveAspectRatio="xMidYMid meet" version="1"><g><g fill="#002c54" id="change1_9"><path d="M432.118,65.928c-3.644-1.296-7.242-0.535-8.036,1.7c-0.796,2.237,1.511,5.099,5.155,6.396 c3.643,1.298,7.241,0.539,8.04-1.699C438.07,70.09,435.76,67.228,432.118,65.928z"/><path d="M479.03,36.432c9.307-11.475-0.125-24.328-10.616-30.524c-7.399-4.372-16.093-6.851-24.7-5.572 c-8.585,1.276-17.324,8.436-18.635,17.354c-0.179,1.229-0.228,2.464-0.11,3.667l6.197,0.695c-0.417-1.827-0.248-3.692,0.957-5.341 c2.354-3.227,6.228-4.816,10.057-5.374c7.917-1.155,16.72,2.08,23.203,6.437c2.741,1.839,5.259,4.164,7.198,6.838 c0.502,0.686,1.386,2.188,1.521,2.535c0.204,0.529,0.311,0.779,0.362,0.937c-0.226,0.281-0.54,0.728-0.445,0.643 c-1.72,1.568-2.866,2.086-4.897,3.129c-9.544,4.899-20.293,6.911-29.922,11.63c-4.401,2.155-8.548,5.112-10.862,9.557 c-1.703,3.257-2.143,6.686-1.244,9.506l8.646,0.841c0.083-0.437,0.113-0.835,0.071-1.137c-0.098-0.773-0.72-2.928,1.039-4.465 c3.065-2.678,8.575-4.499,13.135-6.212C459.833,47.881,472.094,44.982,479.03,36.432z"/><path d="M465.285,79.102c-1.661-1.452-3.727-1.804-4.616-0.787c-2.054,2.487,3.826,7.62,6.012,5.254 C467.57,82.55,466.946,80.549,465.285,79.102z"/><path d="M497.099,54.872c-3.007-3.863-7.099-7.003-11.933-8.125c-4.818-1.12-10.953,0.846-13.513,5.299 c-0.353,0.616-0.637,1.26-0.829,1.923l3.143,1.67c0.162-1.06,0.641-2.014,1.623-2.634c1.929-1.218,4.314-1.253,6.461-0.744 c4.437,1.045,8.428,4.604,10.955,8.27c1.068,1.548,1.917,3.309,2.384,5.134c0.118,0.469,0.279,1.448,0.279,1.663 c-0.002,0.321,0,0.474-0.007,0.57c-0.178,0.102-0.44,0.272-0.369,0.247c-1.239,0.474-1.959,0.507-3.254,0.633 c-6.083,0.6-12.205-0.581-18.296-0.096c-2.788,0.221-5.605,0.924-7.76,2.795c-1.587,1.372-2.539,3.096-2.652,4.779l4.405,2.258 c0.139-0.218,0.236-0.422,0.279-0.592c0.319-3.735,6.644-2.575,9.747-2.69c6,0.101,13.107,1.131,18.575-1.951 C503.672,69.144,501.362,60.357,497.099,54.872z"/><path d="M395.864,48.203c-2.203,0-3.993,1.093-3.991,2.447c0,1.353,1.784,2.451,3.99,2.451 c2.206,0.003,3.993-1.101,3.994-2.448C399.855,49.299,398.067,48.201,395.864,48.203z"/><path d="M403.879,9.028c-4.81-0.93-9.954-0.603-14.332,1.732c-4.366,2.326-7.688,7.842-6.688,12.88 c0.139,0.695,0.351,1.367,0.641,1.991l3.465-0.809c-0.575-0.904-0.841-1.939-0.508-3.054c0.649-2.185,2.422-3.78,4.373-4.806 c4.031-2.136,9.376-2.082,13.692-0.984c1.821,0.466,3.618,1.231,5.172,2.298c0.398,0.272,1.162,0.909,1.304,1.068 c0.21,0.245,0.313,0.359,0.371,0.438c-0.066,0.193-0.151,0.493-0.115,0.428c-0.621,1.171-1.141,1.669-2.033,2.618 c-4.188,4.457-9.575,7.592-13.844,11.965c-1.951,2-3.612,4.383-4.006,7.209c-0.291,2.078,0.127,4.003,1.15,5.347l4.802-1.203 c-0.039-0.251-0.099-0.468-0.179-0.626c-0.201-0.392-0.915-1.49-0.296-2.594c1.136-2.023,3.743-4.054,5.865-5.846 c4.584-3.869,10.615-7.77,12.702-13.689C418.218,15.451,410.697,10.353,403.879,9.028z"/></g><g><g id="change1_3"><path fill="#002c54" d="M246.296,357.839l5.065,144.93c0,0,90.673,18.852,109.482,2.674c18.813-16.18-99.836-7.98-99.836-7.98 L251.12,359.77L246.296,357.839z"/></g><g id="change1_4"><path fill="#002c54" d="M251.544,350.838L316,409.313l-44.611,68.607c0,0,92.603,7.715,108.034-4.342 c15.434-12.059-91.155-4.34-91.155-4.34l35.576-64.268l-68.13-54.133H251.544z"/></g><g><g><g id="change2_1"><path fill="#ff9eb9" d="M478.498,212.199c13.98,13.504,15.917,33.281,9.161,50.641c-6.917,18.912-22.66,33.395-42.988,35.046 c2.14,15.017-3.038,31.411-11.996,43.089c-11.575,15.438-29.907,22.18-48.718,16.885c-4.428-1.387-10.763-4.701-15.641-9.229 c-2.199,6.379-7.133,11.472-14.253,13.077c-9.692,2.432-18.474-2.182-24.004-9.535c-14.048,18.797-32.888,31.979-55.573,27.391 c-12.559-2.75-23.528-11.891-26.395-23.773c-3.789,4.138-7.29,7.439-8.825,8.813c-14.947,13.99-34.725,23.148-55.46,16.407 c-7.986-2.733-18.029-11.677-23.455-21.878c-22.672,14.807-53.433,24.598-57.572-8.506c-0.349-2.432-0.448-6.539-0.043-10.939 c-12.501,3.156-28.257-5.73-24.555-21.86c1.175-5.4,4.184-11.693,8.335-17.683c-13.614-1.375-25.711-10.358-31.005-25.246 c-5.296-13.98,3.385-23.628,16.406-28.45c1.649-0.491,5.267-1.49,9.479-2.37c-9.537-9.52-15.555-25.598-17.682-36.218 c-8.247-45.2,30.572-80.794,72.388-84.049c-1.071-17.261,3.588-35.363,12.009-48.588c27.984-44.854,119.14-56.429,140.352,1.447 c0.507,1.157,1.201,3.805,1.735,7.074c3.256-4.904,6.295-8.824,6.945-9.479c17.363-16.884,46.301-29.427,70.422-20.744 c10.75,3.687,18.692,12.558,20.893,22.801c7.944-2.661,17.551-2.59,23.481-0.608c12.155,4.052,18.015,14.485,19.607,26.624 c7.843-4.847,16.378-7.481,25.248-5.889c23.151,3.863,35.685,35.204,35.685,55.953c0,19.242-8.988,39.802-22.547,54.503 C473.275,208.166,476.27,209.97,478.498,212.199z"/></g><g id="change3_3"><path fill="#ffffff" opacity="0.2" d="M110.898,277.389c-9.071,6.108-17.534,13.971-19.118,25.316 c-1.786,12.788,13.412,23.757,21.633,31.135c7.523,6.745,19.731,18.793,30.29,10.831c8.21-6.19,14.676-16.067,19.063-25.262 c3.381-7.095,5.496-14.937,3.089-22.636c-2.813-8.991-13.819-10.078-21.673-9.877c-7.366,0.194-19.044,2.638-18.252,12.455 c0.696,8.621,8.061,20.424,16.047,24.121c2.103,0.973,1.906-3.035,1.403-3.957c-3.493-6.382-9.293-11.018-12.295-17.791 c-3.582-8.082,13.024-7.893,17.12-7.904c6.067-0.006,13.773,2.066,14.189,9.177c0.366,6.249-3.432,12.877-6.471,18.054 c-3.265,5.572-7.297,10.777-11.838,15.355c-9.123,9.203-19.183-0.58-26.701-6.9c-7.034-5.914-17.464-13.797-21.239-22.324 c-4.532-10.23,7.758-23.393,14.985-29.029C111.367,277.971,111.206,277.177,110.898,277.389L110.898,277.389z"/></g><g id="change3_4"><path fill="#ffffff" opacity="0.2" d="M88.869,172.545c-5.497,10.922-7.84,24.951-7.571,37.075 c0.316,14.176,7.331,22.085,20.228,27.114c7.146,2.787,14.917,4.357,22.454,5.662c7.697,1.335,15.276,2.931,23.062,1.368 c12.669-2.546,16.73-14.64,19.359-25.74c4.192-17.682,7.485-49.057-12.011-59.534c-21.626-11.619-61.217,8.75-56.048,35.705 c6.569,30.089,33.453,19.544,54.049,11.815c1.577-0.553,1.198-3.928-0.465-4.097c-13.543-1.377-26.087,9.474-39.697,4.968 c-9.549-3.16-11.875-15.763-8.748-23.96c2.894-7.584,10.287-13.213,17.135-16.966c10.866-5.955,26.536-7.982,36.447,0.81 c8.178,7.254,8.771,20.425,8.427,30.505c-0.355,10.499-2.102,23.269-7.294,32.529c-7.732,13.794-27.749,7.266-39.688,4.816 C104.77,231.798,88.12,228,85.57,212.084c-2.072-12.928,1.74-26.177,4.249-38.735C89.918,172.857,89.276,171.736,88.869,172.545 L88.869,172.545z"/></g><g id="change3_5"><path fill="#ffffff" opacity="0.2" d="M193.515,369.259c-9.867-9.313-23.737-23.047-15.722-37.258 c5.534-9.815,19.331-24.301,29.311-11.272c4.362,5.696,15.216,25.221,4.872,29.533c-6.58,2.74-13.807-1.164-16.57-7.1 c-2.211-4.753-2.336-10.127-4.651-14.848c-0.942-1.928-2.57-0.541-2.534,1.117c0.316,13.373,8.763,34.264,25.932,25.516 c12.639-6.442,0.632-28.627-4.741-35.791c-10.846-14.457-26.818-2.465-34.258,9.031c-10.656,16.465,4.037,33.422,18.271,41.437 C193.593,369.717,193.604,369.344,193.515,369.259L193.515,369.259z"/></g><g id="change3_6"><path fill="#ffffff" opacity="0.2" d="M164.206,79.602c-3.693,6.367-5.531,13.596-6.945,20.771 c-1.266,6.413-3.188,13.27-2.445,19.833c0.49,4.319,3.658,7.168,7.221,9.151c7.792,4.33,17.975,5.748,26.494,7.862 c9.687,2.407,19.503,4.245,29.238,6.451c6.785,1.532,15.261,3.627,22.111,1.539c13.269-4.048,15.455-18.912,16.519-30.882 c1.162-13.058,5.472-27.53,1.269-40.458c-4.505-13.853-18.981-14.469-31.44-12.872c-10.81,1.386-29.713,1.734-37.124,11.162 c-3.826,4.867-4.156,11.159-4.168,17.123c-0.02,8.992,0.68,17.982,0.663,26.996c-0.002,1.369,0.676,2.902,2.147,3.099 c16.893,2.259,36.193,1.487,52.437-3.984c1.575-0.529,1.27-4.144-0.479-4.209c-17.489-0.662-34.495,4.143-52.113,1.888 c0.716,1.035,1.433,2.067,2.147,3.102c-0.011-5.807,0.122-11.629-0.24-17.428c-0.393-6.266-1.285-12.811,0.509-18.944 c3.109-10.627,24.682-11.246,33.433-12.524c10.149-1.482,25.729-3.832,30.557,7.951c4.508,11-0.43,24.721-1.368,35.985 c-0.843,10.117-1.536,23.054-12.27,27.603c-6.293,2.663-15.4,0.251-21.666-1.09c-6.975-1.497-13.947-2.99-20.917-4.507 c-8.073-1.759-16.109-3.832-24.075-6.032c-4.578-1.262-9.616-2.268-13.436-5.254c-4.762-3.721-1.689-13.393-1.072-18.443 c0.958-7.871,2.048-15.817,5.637-22.989C165.058,80.054,164.611,78.9,164.206,79.602L164.206,79.602z"/></g><g id="change3_7"><path fill="#ffffff" opacity="0.2" d="M389.381,320.777c6.775-2.379,14.81-3.082,21.957-3.211 c7.983-0.146,7.231,10.843,6.785,16.567c-0.675,8.692-12.7,3.659-17.819,3.741c-7.089,0.029-16.774,2.742-16.33-7.538 c-0.198-5.515,0.47-11.075,1.063-16.549c0.602-5.552,0.63-10.638,7.126-11.544c14.361-2.008,31.188,3.138,44.676,7.566 c1.107,0.363,1.134-1.679,0.546-2.185c-8.8-7.53-20.181-10.751-31.521-12.114c-7.234-0.871-17.78-2.449-22.505,4.532 c-3.723,5.496-3.277,15.394-3.648,21.767c-0.366,6.254-1.829,16.69,3.921,21.069c3.063,2.324,8.04,1.894,11.59,1.705 c5.228-0.285,9.779,0.144,14.98,0.546c8.824,0.686,11.529-6.438,11.296-13.886c-0.179-5.729-0.798-13.823-6.313-16.976 c-3.111-1.778-8.017-0.472-11.271-0.14c-5.7,0.583-10.242,2.271-14.844,5.622C388.748,319.986,388.884,320.952,389.381,320.777 L389.381,320.777z"/></g><g id="change3_8"><path fill="#ffffff" opacity="0.2" d="M432.554,283.725c-3.839-7.597-11.346-19.506-8.871-28.259 c1.857-6.576,11.721-11.743,16.736-15.76c6.383-5.11,16.478-12.854,24.341-6.146c5.175,4.413,9.885,17.981,8.035,24.701 c-2.21,8.03-24.889,23.132-28.472,9.706c-0.849-3.177-0.992-6.535-1.036-9.8c-0.052-3.905,0.085-5.445,4.109-5.958 c5.945-0.757,11.846,1.087,17.549-1.239c1.392-0.565,1.421-3.815-0.104-4.249c-5.935-1.691-19.131-4.781-23.577,1.357 c-4.162,5.751-2.483,17.369-0.358,23.602c6.27,18.397,32.583,0.35,35.759-11.648c2.359-8.91-2.811-21.238-7.612-28.509 c-6.729-10.196-17.649-6.406-26.011-0.728c-5.322,3.619-10.362,7.957-15.325,12.051c-3.274,2.704-6.416,6.326-7.45,10.545 c-2.665,10.861,4.518,23.633,11.725,31.242C432.434,285.098,432.706,284.027,432.554,283.725L432.554,283.725z"/></g><g id="change3_9"><path fill="#ffffff" opacity="0.2" d="M303.916,101.711c4.92,10.424,8.651,26.806,19.586,32.763 c4.074,2.223,9.771-0.927,13.328-2.687c6.79-3.368,13.739-6.316,20.369-10.017c30.389-16.258,31.808-33.883,9.305-58.848 c-18.403-19.88-39.284,16.95-45.129,31.391c-2.43,6.004-3.075,16.394,5.873,16.966c5.228,0.333,10.123-1.37,14.871-3.387 c8.715-3.703,17.441-6.608,25.502-11.73c1.773-1.131,1.618-6.069-1.076-5.209c-9.66,3.083-19.031,7.684-28.429,11.515 c-3.542,1.443-7.174,2.56-11.019,2.646c-6.977,0.152-2.221-9.004-0.754-12.035c6.232-12.869,22.279-39.095,38.072-24.298 c6.548,6.139,16.1,21.174,11.686,29.672c-5.249,10.109-18.808,16.48-28.422,21.411c-3.994,2.05-8.106,3.851-12.094,5.907 c-4.324,2.229-8.848,5.367-13.649,2.423c-8.646-5.302-11.712-19.323-17.173-27.533 C304.221,99.846,303.658,101.172,303.916,101.711L303.916,101.711z"/></g><g id="change3_10"><path fill="#ffffff" opacity="0.2" d="M183.102,176.684c4.806,8.47,10.12,18.895,19.183,23.464 c7.353,3.704,14.223-8.434,17.909-12.608c4.221-4.779,10.974-10.523,10.971-17.546c-0.001-8.931-7.451-14.002-14.135-18.608 c-4.183-2.881-11.082-7.268-16.11-3.707c-6.041,4.275-6.635,14.293-7.519,20.981c-0.586,4.449-0.024,11.629,5.821,11.82 c6.201,0.202,15.018-6.346,19.254-10.45c0.983-0.948,1.198-5.138-0.969-4.771c-3.637,0.618-6.389,2.688-9.485,4.588 c-1.949,1.191-3.902,2.347-5.933,3.397c-4.886,2.53-5.511-2.879-5.005-6.676c0.631-4.736,1.256-12.83,7.137-13.538 c4.569-0.546,10.226,4.031,13.62,6.42c5.522,3.879,12.235,7.908,7.276,15.211c-3.583,5.271-8.413,9.912-12.428,14.873 c-1.809,2.239-3.634,4.356-6.256,5.657c-3.996,1.982-8.959-4.13-11.011-6.522c-3.984-4.644-6.934-10.021-11.121-14.499 C183.103,172.886,182.667,175.921,183.102,176.684L183.102,176.684z"/></g><g id="change3_11"><path fill="#ffffff" opacity="0.2" d="M406.735,101.319c-3.332,3.716-4.423,8.812-5.557,13.544 c-1.302,5.424-3.139,11.584-2.18,17.202c2.299,13.464,19.221,21.862,29.474,28.709c7.305,4.872,19.864,20.058,29.531,13.34 c3.452-2.401,4.407-8.079,5.164-11.846c1.285-6.394,2.476-12.997,3.453-19.436c1.36-8.965-0.283-18.252-7.403-24.35 c-8.005-6.857-20.632-6.867-30.542-7.509c-10.579-0.686-13.802,6.17-8.927,15.097c2.807,5.144,8.622,8.845,13.464,11.78 c5.118,3.108,11.327,8.004,17.366,8.722c1.772,0.209,1.716-3.217,1.002-4.082c-5.057-6.107-13.54-9.087-20.011-13.449 c-1.146-0.773-11.253-9.083-8.747-10.225c2.891-1.323,7.53-0.344,10.564-0.089c7.623,0.638,15.254,1.092,22.186,4.655 c8.148,4.194,7.757,13.679,6.331,21.438c-3.796,33.486-8.003,28.938-31.29,9.945c-8.819-6.085-19.529-11.815-26.096-20.496 c-4.953-6.555-0.813-24.752,3.112-31.284C407.968,102.423,407.504,100.462,406.735,101.319L406.735,101.319z"/></g></g><g id="change1_11"><path fill="#002c54" d="M230.623,321.721c-2.221-14.078,7.811-23.578,20.278-27.607c12.121-3.91,25.371-1.901,34.865,6.678 c0.762,0.689,1.012-1.014,0.709-1.48c-17.259-26.443-65.203-8.431-57.844,23.299 C229.115,324.698,230.883,323.357,230.623,321.721L230.623,321.721z"/></g><g><g id="change3_1"><path fill="#ffffff" d="M316.247,231.252c0,21.711-24.897,39.309-55.608,39.309c-73.698-1.955-73.685-76.665,0-78.618 C291.35,191.943,316.247,209.543,316.247,231.252z"/></g><g id="change1_1"><path fill="#002c54" d="M292.352,206.414c-0.32,11.432-22.86,11.425-23.178,0C269.493,194.986,292.035,194.986,292.352,206.414z"/></g></g><g><g id="change3_2"><path fill="#ffffff" d="M423.512,207.137c0,25.705-24.012,46.544-53.632,46.544c-71.034-2.22-71.022-90.874,0.001-93.085 C399.5,160.596,423.512,181.431,423.512,207.137z"/></g><g id="change1_2"><path fill="#002c54" d="M343.444,197.732c-0.32,11.429-22.859,11.426-23.175,0C320.589,186.305,343.125,186.309,343.444,197.732 z"/></g></g></g><g><g id="change2_2"><path fill="#ff9eb9" d="M94.101,300.943c-114.767,58.267-66.514,54.033,24.341,36.664c0,0,25.386,13.396,16.555,44.467 c-8.831,31.073-63.626,27.074-63.626,27.074L63.819,383l35.315-3.544c0,0-14.321-2.328-5.239-20.026 c0,0-68.877,6.27-81.704-8.578C-0.636,336.007,87.35,293.71,87.35,293.71L94.101,300.943z"/></g><g id="change1_5"><path fill="#002c54" d="M108.741,384.904c-10.197-1.953-16.499-5.797-18.733-11.43c-2.914-7.342,2.317-14.709,2.541-15.018 l2.693,1.945l-1.347-0.971l1.347,0.969c-0.041,0.06-4.391,6.229-2.139,11.867c1.797,4.498,7.267,7.653,16.262,9.375 L108.741,384.904z"/></g><g id="change1_6"><path fill="#002c54" d="M69.394 398.074H109.453V401.39500000000004H69.394z" transform="rotate(168.493 89.42 399.73)"/></g><g id="change1_7"><path fill="#002c54" d="M67.483 391.363H106.081V394.685H67.483z" transform="scale(-1) rotate(-15.106 -2964.187 654.494)"/></g><g id="change1_8"><path fill="#002c54" d="M65.598 385.475H101.306V388.79900000000004H65.598z" transform="scale(-1) rotate(-8.946 -4948.965 1066.812)"/></g></g><g><g id="change2_3"><path fill="#ff9eb9" d="M318.63,356.343c-53.95,21.782-20.341-34.149-20.341-34.149s-42.272-2.043-35.417-11.158 c6.853-9.114,62.384,7.559,62.384,7.559c12.929-17.947,35-17.998,37.834-10.189c2.832,7.807-35.707,16.046-35.707,16.046 s15.343,33.407,19.927,81.637l24.689-65.125l6.417,2.185l-34.241,88.261L318.63,356.343z"/></g><g id="change1_10"><path fill="#002c54" d="M345.657,406.257c-4.502-43.838-19.656-80.802-19.808-81.172l-0.765-1.844l1.951-0.419 c11.91-2.547,31.768-8.323,34.352-12.989c0.244-0.435,0.208-0.681,0.142-0.865c-0.665-1.841-3.075-3.216-6.439-3.685 c-7.962-1.1-20.279,2.892-28.484,14.279l-0.691,0.961l-1.133-0.34c-21.043-6.316-56.096-14.113-60.584-8.147 c-0.57,0.759-0.413,1.092-0.34,1.247c1.851,3.939,21.295,6.613,34.514,7.25l2.771,0.137l-1.429,2.38 c-4.299,7.157-14.17,27.245-8.303,34.115c3.479,4.078,12.678,3.261,26.599-2.363l1.244,3.083 c-15.813,6.383-25.746,6.852-30.369,1.438c-7.297-8.547,2.641-28.463,6.623-35.622c-9.014-0.576-31.674-2.651-34.658-9.003 c-0.492-1.049-0.771-2.713,0.695-4.663c6.938-9.228,51.482,3.202,63.07,6.634c9.035-11.837,21.947-15.921,30.933-14.673 c4.674,0.649,7.995,2.778,9.104,5.84c0.427,1.174,0.303,2.42-0.357,3.608c-3.715,6.699-27.254,12.524-34.648,14.205 c3.112,8.047,15.335,41.504,19.314,80.269L345.657,406.257z"/></g><g id="change1_12"><path fill="#002c54" d="M306.205 322.111H309.527V359.815H306.205z" transform="scale(-1) rotate(-4.956 -7877.79 7113.311)"/></g><g id="change1_13"><path fill="#002c54" d="M298.168 326.737H301.48900000000003V341.67900000000003H298.168z" transform="rotate(91.381 299.832 334.211)"/></g><g id="change1_14"><path fill="#002c54" d="M287.365 347.169H308.837V350.493H287.365z" transform="rotate(160.39 298.102 348.83)"/></g></g></g></g></svg>