<?xml version="1.0" encoding="UTF-8"?><svg xmlns="http://www.w3.org/2000/svg" xmlns:xlink="http://www.w3.org/1999/xlink" contentScriptType="text/ecmascript" fill="#000000" width="630.8" zoomAndPan="magnify" contentStyleType="text/css" viewBox="-0.4 -0.8 630.8 206.4" height="206.4" preserveAspectRatio="xMidYMid meet" version="1"><defs><clipPath id="a"><path d="M 10 201 L 615 201 L 615 205.601562 L 10 205.601562 Z M 10 201"/></clipPath><clipPath id="b"><path d="M 620 202 L 630.328125 202 L 630.328125 205 L 620 205 Z M 620 202"/></clipPath></defs><g><g><path fill="#3daad4" d="M 405.820312 132.34375 C 390.886719 112.523438 369.953125 107.457031 358.15625 103.703125 C 346.359375 99.949219 306.679688 102.632812 306.679688 102.632812 C 306.679688 102.632812 283.636719 104.546875 265.929688 123.542969 C 253.070312 137.335938 229.515625 192.339844 236.199219 203.453125 L 266.742188 203.453125 L 277.820312 174.523438 L 279.328125 203.453125 L 384.523438 203.453125 L 386.574219 173.949219 L 395.074219 203.453125 L 425.023438 203.453125 C 428.347656 192.476562 415.839844 145.640625 405.820312 132.34375"/></g><g><path fill="#a1cfe6" d="M 402.050781 132.125 C 403.117188 132.65625 403.734375 130.925781 402.691406 130.402344 C 359.609375 108.898438 307.855469 112.988281 263.355469 127.738281 C 262.664062 127.96875 263.15625 128.976562 263.839844 128.757812 C 308.65625 114.292969 358.824219 110.714844 402.050781 132.125"/></g><g><path fill="#a1cfe6" d="M 396.832031 138.972656 C 397.265625 138.960938 397.230469 138.222656 396.804688 138.210938 C 354.707031 137.019531 310.761719 132.625 269.039062 139.824219 C 267.847656 140.03125 268.175781 141.871094 269.363281 141.667969 C 312.726562 134.28125 358.414062 139.886719 396.832031 138.972656"/></g><g><path fill="#a1cfe6" d="M 392.128906 155.957031 C 392.773438 155.953125 392.703125 154.882812 392.078125 154.839844 C 362.71875 152.816406 313.417969 152.179688 274.484375 152.085938 C 272.992188 152.085938 272.765625 154.402344 274.265625 154.40625 C 313.28125 154.476562 357.550781 156.261719 392.128906 155.957031"/></g><g><path fill="#a1cfe6" d="M 386.0625 169.339844 C 366.496094 168.683594 346.785156 169.019531 327.226562 169.667969 C 311.8125 170.175781 294.726562 171.386719 279.605469 169.402344 C 278.878906 169.308594 278.59375 170.472656 279.320312 170.667969 C 293.179688 174.394531 308.125 171.554688 322.4375 171.648438 C 343.53125 171.78125 364.84375 171.472656 385.925781 170.769531 C 386.824219 170.738281 387.003906 169.371094 386.0625 169.339844"/></g><g><path fill="#a1cfe6" d="M 278.296875 183.597656 L 278.40625 185.734375 C 295.539062 189.664062 313.191406 188.386719 330.65625 187.941406 C 349.019531 187.476562 367.5625 186.679688 385.832031 184.660156 L 385.933594 183.210938 C 350.925781 183.867188 312.757812 191.425781 278.296875 183.597656"/></g><g><path fill="#a1cfe6" d="M 278.855469 194.417969 L 278.976562 196.671875 C 293.808594 202.214844 311.554688 201.5 326.992188 201.375 C 346.351562 201.21875 365.671875 199.160156 384.941406 197.445312 L 385.070312 195.636719 C 366.8125 196.234375 348.652344 198.597656 330.378906 199.066406 C 313.710938 199.492188 294.863281 200.058594 278.855469 194.417969"/></g><g><path fill="#a1cfe6" d="M 268.261719 144.574219 C 264.007812 142.550781 259.480469 141.003906 254.804688 140.507812 C 254.550781 140.984375 254.296875 141.460938 254.039062 141.949219 C 258.824219 142.4375 263.253906 144.164062 267.984375 145.324219 C 268.484375 145.445312 268.734375 144.796875 268.261719 144.574219"/></g><g><path fill="#a1cfe6" d="M 275.734375 160.632812 C 266.566406 157.980469 256.941406 156.734375 247.398438 155.742188 C 247.109375 156.398438 246.828125 157.050781 246.546875 157.707031 C 256.214844 158.914062 265.859375 160.164062 275.507812 161.617188 C 276.078125 161.703125 276.289062 160.792969 275.734375 160.632812"/></g><g><path fill="#a1cfe6" d="M 241.066406 171.621094 C 240.808594 172.347656 240.558594 173.066406 240.316406 173.785156 C 252.449219 173.675781 265.140625 173.546875 275.75 179.933594 L 276.253906 178.613281 C 267.058594 171.492188 252.84375 171.460938 241.066406 171.621094"/></g><g><path fill="#a1cfe6" d="M 236.59375 186.542969 C 236.433594 187.214844 236.273438 187.894531 236.140625 188.542969 C 246.59375 183.730469 264.289062 185.472656 272.136719 189.359375 L 272.511719 188.382812 C 265.296875 182.785156 247.960938 181.859375 236.59375 186.542969"/></g><g><path fill="#a1cfe6" d="M 397.398438 147.246094 C 402.398438 146.171875 407.085938 144.445312 412.160156 144.210938 C 411.949219 143.71875 411.738281 143.238281 411.523438 142.761719 C 406.550781 143.007812 401.699219 144.476562 397.140625 146.488281 C 396.660156 146.699219 396.890625 147.351562 397.398438 147.246094"/></g><g><path fill="#a1cfe6" d="M 389.40625 163.316406 C 398.925781 162.164062 408.4375 161.207031 417.96875 160.289062 C 417.757812 159.613281 417.542969 158.945312 417.328125 158.277344 C 407.875 158.992188 398.339844 159.964844 389.210938 162.324219 C 388.648438 162.46875 388.839844 163.386719 389.40625 163.316406"/></g><g><path fill="#a1cfe6" d="M 422.335938 176.417969 C 422.171875 175.695312 421.996094 174.96875 421.816406 174.234375 C 410.492188 173.785156 397.304688 173.757812 388.363281 180.148438 L 388.765625 181.550781 C 398.960938 175.859375 410.835938 175.996094 422.335938 176.417969"/></g><g><path fill="#a1cfe6" d="M 424.902344 190.085938 C 424.816406 189.464844 424.726562 188.832031 424.628906 188.183594 C 413.324219 184.378906 397.898438 185.253906 391.316406 190.40625 L 391.585938 191.335938 C 398.621094 187.882812 414.230469 186.4375 424.902344 190.085938"/></g><g><path fill="#218db5" d="M 301.953125 111.632812 C 301.953125 111.632812 304.40625 143.453125 332.871094 142.246094 C 361.34375 141.042969 357.148438 109.71875 357.148438 109.71875 L 301.953125 111.632812"/></g><g><path fill="#e2c2af" d="M 306.550781 114.449219 C 306.550781 114.449219 309.621094 138.871094 332.234375 137.949219 C 354.847656 137.023438 352.929688 113.066406 352.929688 113.066406 L 306.550781 114.449219"/></g><g><path fill="#a1574d" d="M 277.390625 75.457031 C 277.390625 75.457031 270.921875 63.386719 276.097656 40.972656 C 280.6875 21.078125 299.371094 0.898438 323.074219 0.03125 C 346.777344 -0.828125 355.824219 13.394531 355.824219 13.394531 C 355.824219 13.394531 370.007812 13.984375 377.375 25.03125 C 390.304688 44.425781 380.820312 79.765625 367.894531 85.796875 C 354.964844 91.828125 277.390625 75.457031 277.390625 75.457031"/></g><g><path fill="#f6e0ca" d="M 270.394531 67.328125 C 266.035156 73.203125 266.65625 80.496094 271.691406 85.980469 C 274.433594 88.980469 279.550781 90.679688 283.554688 89.945312 C 291.917969 88.40625 289.410156 75.351562 287.09375 70.089844 C 283.824219 62.703125 276.484375 59.101562 270.394531 67.328125"/></g><g><path fill="#f6e0ca" d="M 382.949219 65.664062 C 388.644531 70.253906 389.867188 77.464844 386.367188 84.050781 C 384.460938 87.648438 379.941406 90.5625 375.875 90.859375 C 367.386719 91.472656 366.546875 78.191406 367.476562 72.519531 C 368.773438 64.550781 374.988281 59.234375 382.949219 65.664062"/></g><g><path fill="#f6e0ca" d="M 326.949219 128.679688 C 350.199219 129.457031 372.441406 110.179688 374.359375 86.445312 C 376.226562 63.285156 365.84375 39.265625 344.398438 32.648438 C 316.082031 23.902344 283.6875 41.277344 280.839844 73.082031 C 278.558594 98.574219 301.09375 127.816406 326.949219 128.679688"/></g><g><path fill="#eea1ab" d="M 360.429688 85.875 C 367.445312 84.804688 369.488281 88.011719 368.785156 92.214844 C 368.175781 95.902344 364.734375 97.960938 359.269531 98.304688 C 356.273438 98.492188 353.5625 97.511719 352.375 95.78125 C 349.511719 91.644531 353.363281 86.945312 360.429688 85.875"/></g><g><path fill="#eea1ab" d="M 296.53125 87.152344 C 289.460938 86.679688 287.691406 90.046875 288.738281 94.179688 C 289.660156 97.796875 293.265625 99.558594 298.742188 99.433594 C 301.742188 99.378906 304.363281 98.164062 305.402344 96.34375 C 307.898438 91.980469 303.667969 87.621094 296.53125 87.152344"/></g><g><path fill="#67594c" d="M 325.464844 84.039062 C 325.203125 86.785156 325.972656 91.710938 325.949219 94.441406 C 323.527344 94.476562 321.796875 96.230469 321.847656 98.925781 C 321.917969 102.25 325.84375 103.964844 328.429688 102.007812 C 329.160156 101.4375 328.894531 100.035156 327.828125 100.144531 C 326.46875 100.273438 324.839844 100.945312 324.195312 99.292969 C 323.492188 97.492188 324.992188 96.238281 326.6875 96.480469 C 327.300781 96.5625 327.925781 96.152344 327.890625 95.472656 C 327.734375 92.425781 327.074219 87.1875 326.65625 84.160156 C 326.574219 83.535156 325.546875 83.324219 325.464844 84.039062"/></g><g><path fill="#67594c" d="M 336.417969 107.582031 C 336.941406 110.277344 336.261719 113.179688 334.621094 115.144531 C 333.355469 116.664062 331.621094 117.539062 329.605469 117.675781 C 327.246094 117.839844 324.964844 116.8125 323.308594 114.867188 C 321.472656 112.691406 320.84375 109.789062 321.722656 107.464844 C 321.886719 107.042969 322.40625 106.878906 322.824219 106.941406 C 323.257812 107.019531 323.5625 107.320312 323.601562 107.722656 L 323.640625 109.058594 C 323.65625 110.125 323.675781 111.128906 324.089844 112.183594 C 324.726562 113.878906 326.683594 115.289062 328.808594 115.617188 C 330.105469 115.816406 331.253906 115.496094 332.21875 114.664062 C 334.078125 113.039062 334.824219 109.921875 334.578125 107.792969 C 334.511719 107.238281 334.945312 106.882812 335.398438 106.847656 C 335.910156 106.804688 336.335938 107.113281 336.417969 107.582031"/></g><g><path fill="#964c41" d="M 300.484375 67.300781 C 302.1875 66.15625 306.515625 65.746094 308.535156 66.78125 C 310.519531 67.796875 312.136719 66.269531 310.945312 64.585938 C 307.945312 60.351562 301.300781 62.578125 299.121094 66.09375 C 298.851562 66.539062 299.410156 67.695312 300.484375 67.300781"/></g><g><path fill="#964c41" d="M 352.226562 66.195312 C 350.59375 64.953125 346.296875 64.292969 344.222656 65.207031 C 342.179688 66.109375 340.652344 64.484375 341.945312 62.875 C 345.191406 58.828125 351.691406 61.433594 353.65625 65.074219 C 353.902344 65.535156 353.273438 66.652344 352.226562 66.195312"/></g><g><path fill="#a1574d" d="M 376.730469 50.890625 C 371.988281 32.785156 351.085938 24.382812 333.847656 24.601562 C 314.453125 24.8125 287.730469 31.710938 281.484375 53.257812 L 278.898438 59.507812 C 278.679688 61.664062 279.761719 74.59375 282.132812 75.457031 C 284.933594 76.316406 294.628906 51.75 295.488281 46.792969 C 295.703125 48.949219 296.136719 54.769531 299.585938 54.554688 C 302.171875 54.335938 303.464844 48.519531 304.109375 46.367188 C 304.109375 49.8125 305.617188 53.257812 309.710938 52.613281 C 313.808594 51.96875 314.238281 47.226562 315.527344 43.996094 C 316.175781 47.441406 316.820312 53.476562 321.132812 54.335938 C 325.871094 55.410156 326.734375 49.597656 328.675781 46.792969 C 328.675781 51.105469 331.90625 54.335938 336.21875 53.476562 C 340.738281 52.613281 342.03125 48.734375 343.757812 45.070312 C 343.757812 47.65625 345.699219 53.257812 348.714844 54.121094 C 351.730469 54.984375 353.675781 50.566406 355.394531 48.625 C 358.304688 58.96875 369.617188 80.84375 373.496094 73.730469 C 376.511719 68.558594 378.234375 56.707031 376.730469 50.890625"/></g><g><path fill="#67594c" d="M 303.320312 81.125 C 303.425781 82.800781 303.378906 85.367188 305.945312 85.230469 C 308.601562 85.085938 307.847656 81.480469 307.613281 80.195312 C 307.480469 79.5 306.960938 78.933594 306.265625 78.75 C 304.617188 78.316406 303.230469 79.445312 303.320312 81.125"/></g><g><path fill="#67594c" d="M 348.59375 81.265625 C 348.53125 82.941406 348.628906 85.507812 346.058594 85.421875 C 343.398438 85.339844 344.078125 81.714844 344.285156 80.425781 C 344.402344 79.730469 344.914062 79.152344 345.601562 78.953125 C 347.242188 78.484375 348.652344 79.582031 348.59375 81.265625"/></g><g><path fill="#218db5" d="M 277.898438 174.5625 C 281.714844 164.4375 269.753906 145.105469 264.617188 137.480469 C 263.859375 136.355469 262.242188 137.726562 263.007812 138.84375 C 268.492188 146.820312 279.328125 163.871094 277.253906 174.363281 C 277.125 175.015625 277.679688 175.148438 277.898438 174.5625"/></g><g><path fill="#218db5" d="M 386.335938 175.257812 C 387.328125 163.1875 397.199219 149.453125 401.828125 138.871094 C 402.246094 137.917969 400.742188 137.378906 400.328125 138.316406 C 395.945312 148.242188 384.070312 163.511719 385.652344 175.289062 C 385.703125 175.675781 386.304688 175.644531 386.335938 175.257812"/></g><g><path fill="#5f666a" d="M 306.058594 190.121094 C 306.058594 190.121094 292.679688 163.613281 292.253906 161.910156 C 291.839844 160.207031 295.738281 157.222656 297.726562 160.453125 C 300.894531 165.617188 312.628906 191.863281 312.628906 191.863281 L 306.058594 190.121094"/></g><g><path fill="#3a4041" d="M 298.574219 161.957031 C 298.261719 161.367188 297.972656 160.855469 297.726562 160.453125 C 295.738281 157.222656 291.839844 160.207031 292.253906 161.910156 C 292.328125 162.171875 292.695312 163.03125 293.28125 164.277344 C 294.667969 162.929688 296.390625 161.863281 298.574219 161.957031"/></g><g><path fill="#3a4041" d="M 308.941406 185.902344 C 306.804688 180.519531 301.496094 168.332031 298.472656 163.378906 C 298.109375 162.785156 297.203125 163.347656 297.554688 163.9375 C 300.558594 168.964844 305.320312 181.191406 308.402344 186.148438 C 308.574219 186.429688 309.070312 186.222656 308.941406 185.902344"/></g><g><path fill="#3a4041" d="M 306.03125 186.679688 C 303.890625 181.289062 298.746094 170.726562 295.714844 164.824219 C 295.398438 164.203125 294.453125 164.792969 294.808594 165.382812 C 297.8125 170.402344 302.410156 181.960938 305.492188 186.921875 C 305.664062 187.203125 306.160156 187 306.03125 186.679688"/></g><g><path fill="#5f666a" d="M 295.9375 160.449219 C 296.542969 160.351562 296.390625 159.546875 295.777344 159.640625 C 295.171875 159.726562 295.324219 160.539062 295.9375 160.449219"/></g><g><path fill="#5f666a" d="M 294.839844 160.128906 C 294.105469 159.90625 293.492188 160.617188 293.199219 161.214844 C 293.101562 161.421875 293.441406 161.699219 293.558594 161.503906 C 293.867188 160.964844 294.261719 160.519531 294.875 160.414062 L 294.839844 160.128906"/></g><g><path fill="#f6e0ca" d="M 319.59375 195.773438 C 319.59375 195.773438 321.027344 194.359375 317.902344 191.492188 C 314.019531 187.9375 311.199219 187.347656 306.910156 187.613281 C 302.621094 187.886719 294.128906 193.328125 290.101562 193.328125 C 286.84375 193.328125 275.234375 187.9375 262.304688 186 C 254.914062 184.890625 240.089844 186.578125 240.101562 203.453125 L 325.835938 203.453125 C 324.371094 201.1875 322.035156 197.890625 319.59375 195.773438"/></g><g><path fill="#f6e0ca" d="M 410.128906 190.308594 C 400.054688 188.761719 393.136719 196.039062 386.433594 195.503906 C 386.433594 195.503906 377.855469 194.164062 375.441406 193.09375 C 373.632812 192.289062 362.332031 199.316406 358.253906 203.453125 L 421.339844 203.453125 C 420.734375 199.503906 418.480469 191.59375 410.128906 190.308594"/></g><g><path fill="#91c37a" d="M 592.328125 183.054688 C 572.472656 170.5 556.707031 168.15625 556.707031 168.15625 L 486.765625 164.917969 C 486.765625 164.917969 458.898438 174.011719 447.257812 184.511719 C 440.632812 190.488281 439.675781 198.578125 443.050781 203.453125 L 603.230469 203.453125 C 604.257812 199.777344 604.960938 191.039062 592.328125 183.054688"/></g><g><path fill="#6da457" d="M 452.863281 186.929688 C 461.304688 186.949219 467.515625 191.832031 474.425781 195.957031 C 475.105469 196.363281 475.8125 195.386719 475.140625 194.925781 C 468.3125 190.269531 461.382812 186.277344 452.890625 186.605469 L 452.863281 186.929688"/></g><g><path fill="#6da457" d="M 479.96875 173.902344 C 483.328125 182.097656 485.40625 189.191406 485.597656 198.125 C 485.617188 198.875 486.78125 199.003906 486.78125 198.234375 C 486.796875 189.671875 485.148438 180.96875 480.546875 173.621094 C 480.332031 173.28125 479.808594 173.507812 479.96875 173.902344"/></g><g><path fill="#6da457" d="M 592.003906 188.367188 C 584.816406 186.132812 576.550781 192.003906 573.234375 197.953125 C 572.742188 198.84375 574.007812 199.769531 574.550781 198.875 C 576.59375 195.492188 579.03125 192.886719 582.617188 191.132812 C 585.660156 189.648438 588.941406 189.890625 592.027344 188.824219 L 592.003906 188.367188"/></g><g><path fill="#6da457" d="M 564.34375 178.652344 C 563.28125 181.925781 561.011719 184.589844 559.945312 187.898438 C 558.753906 191.574219 558.109375 195.40625 557.84375 199.253906 C 557.78125 200.144531 559.152344 200.269531 559.21875 199.382812 C 559.515625 195.132812 560.402344 191.066406 561.691406 187.007812 C 562.601562 184.136719 564.484375 181.824219 565.058594 178.816406 C 565.136719 178.398438 564.46875 178.257812 564.34375 178.652344"/></g><g><path fill="#f6e0ca" d="M 586.714844 192.742188 C 579.019531 191.558594 573.730469 197.125 568.605469 196.714844 C 568.605469 196.714844 562.4375 193.996094 560.433594 193.738281 C 555.34375 193.082031 547.378906 200.226562 546.039062 203.453125 L 595.375 203.453125 C 595.070312 200.777344 593.617188 193.804688 586.714844 192.742188"/></g><g><path fill="#acdc9a" d="M 506.070312 177.738281 C 506.070312 177.738281 504.976562 198.796875 522.628906 200.195312 C 540.285156 201.597656 540.261719 180.730469 540.261719 180.730469 L 506.070312 177.738281"/></g><g><path fill="#e2c2af" d="M 510.246094 181.003906 C 510.246094 181.003906 510.160156 195.339844 522.527344 196.34375 C 534.894531 197.34375 535.582031 183.355469 535.582031 183.355469 L 510.246094 181.003906"/></g><g><path fill="#a1574d" d="M 475.347656 143.507812 C 480.542969 149.25 486.054688 136.863281 494.113281 135.570312 C 501.390625 134.34375 507.429688 129.664062 514.789062 128.046875 C 523.171875 125.996094 532.515625 126.949219 540.191406 130.660156 C 546.796875 133.996094 558.929688 144.960938 565.578125 148.105469 C 574.277344 152.402344 572.984375 154.867188 576.839844 147.992188 C 589.558594 125.273438 577.082031 105.328125 568.496094 99.269531 C 566.566406 97.921875 564.519531 97.03125 562.378906 96.230469 C 563.269531 95.636719 564.046875 94.882812 564.550781 94.03125 C 567.171875 89.167969 558.367188 88.089844 558.246094 92.976562 C 557.960938 91.777344 557.957031 87.636719 556.347656 87.171875 C 553.429688 86.289062 554.601562 90.976562 554.890625 92.238281 C 554.890625 92.285156 554.898438 92.328125 554.90625 92.378906 C 554.351562 92.019531 553.703125 91.753906 553.253906 91.292969 C 525.375 63.535156 462.765625 88.816406 474.324219 131.074219 L 475.347656 143.507812"/></g><g><path fill="#f6e0ca" d="M 474.519531 127.488281 C 469.324219 129.695312 467.1875 135.609375 468.847656 142.457031 C 469.75 146.203125 472.808594 150.191406 475.925781 151.742188 C 482.445312 154.960938 485.273438 143.644531 485.480469 138.394531 C 485.753906 131.011719 481.773438 124.398438 474.519531 127.488281"/></g><g><path fill="#f6e0ca" d="M 579.175781 146.320312 C 582.894531 150.566406 582.25 156.816406 577.773438 162.261719 C 575.328125 165.242188 570.847656 167.503906 567.363281 167.542969 C 560.089844 167.605469 562.464844 156.183594 564.5625 151.371094 C 567.53125 144.605469 573.988281 140.375 579.175781 146.320312"/></g><g><path fill="#f6e0ca" d="M 494.507812 180.921875 C 511.953125 192.550781 548.582031 194.746094 561.769531 177.074219 C 574.636719 159.828125 575.558594 137.261719 561.519531 121.238281 C 542.984375 100.0625 506.324219 95.585938 488.433594 119.132812 C 474.082031 138.003906 473.554688 166.378906 494.507812 180.921875"/></g><g><path fill="#eea1ab" d="M 481.234375 153.691406 C 479.597656 160.230469 484.109375 162.914062 490.089844 163.15625 C 495.320312 163.371094 498.308594 160.496094 498.886719 155.269531 C 499.207031 152.425781 497.863281 149.601562 495.441406 148.070312 C 489.628906 144.390625 482.890625 147.09375 481.234375 153.691406"/></g><g><path fill="#eea1ab" d="M 563.792969 167.75 C 564.90625 174.398438 560.195312 176.703125 554.214844 176.460938 C 548.976562 176.246094 546.234375 173.140625 546.082031 167.894531 C 545.984375 165.027344 547.558594 162.308594 550.101562 160.984375 C 556.199219 157.800781 562.695312 161.035156 563.792969 167.75"/></g><g><path fill="#67594c" d="M 522.105469 151.445312 C 521.410156 153.980469 521.523438 156.59375 521.058594 159.15625 C 518.789062 158.785156 516.875 160.152344 516.484375 162.6875 C 516.007812 165.8125 519.40625 168.054688 522.144531 166.644531 C 522.921875 166.234375 522.910156 164.875 521.882812 164.800781 C 520.59375 164.699219 518.953125 165.066406 518.621094 163.410156 C 518.257812 161.609375 519.871094 160.679688 521.414062 161.183594 C 521.980469 161.355469 522.628906 161.078125 522.710938 160.433594 C 523.0625 157.550781 523.09375 154.65625 523.199219 151.753906 C 523.222656 151.15625 522.292969 150.785156 522.105469 151.445312"/></g><g><path fill="#67594c" d="M 527.140625 175.171875 C 527.191406 177.785156 526.078125 180.394531 524.21875 181.96875 C 522.78125 183.179688 521.019531 183.726562 519.101562 183.519531 C 516.863281 183.289062 514.890625 181.949219 513.660156 179.859375 C 512.296875 177.519531 512.179688 174.695312 513.386719 172.667969 C 513.605469 172.296875 514.113281 172.222656 514.503906 172.347656 C 514.894531 172.496094 515.136719 172.828125 515.101562 173.210938 L 514.925781 174.472656 C 514.761719 175.472656 514.609375 176.414062 514.824219 177.472656 C 515.15625 179.167969 516.753906 180.808594 518.691406 181.460938 C 519.882812 181.863281 521.003906 181.742188 522.046875 181.125 C 524.054688 179.90625 525.261719 177.105469 525.378906 175.078125 C 525.398438 174.539062 525.878906 174.28125 526.300781 174.324219 C 526.78125 174.359375 527.132812 174.714844 527.140625 175.171875"/></g><g><path fill="#67594c" d="M 501.578125 152.847656 L 501.589844 152.851562 C 501.871094 152.886719 502.136719 152.71875 502.230469 152.4375 L 502.382812 151.886719 C 502.378906 151.878906 502.46875 151.453125 502.46875 151.453125 L 502.9375 149.722656 C 503.304688 149.1875 504.046875 148.867188 504.757812 148.9375 C 505.175781 148.996094 505.496094 149.1875 505.730469 149.558594 C 506.210938 150.316406 506.164062 152.207031 505.886719 153 C 505.761719 153.363281 505.96875 153.691406 506.265625 153.800781 C 506.578125 153.921875 506.925781 153.78125 507.046875 153.464844 C 507.539062 152.34375 507.582031 150.394531 507.136719 149.363281 C 506.785156 148.554688 506.179688 147.960938 505.375 147.675781 C 504.4375 147.328125 503.394531 147.515625 502.515625 148.1875 C 501.527344 148.96875 500.882812 151.21875 500.992188 152.28125 C 501.015625 152.621094 501.3125 152.820312 501.578125 152.847656"/></g><g><path fill="#67594c" d="M 544.164062 159.613281 L 544.15625 159.613281 C 543.871094 159.546875 543.6875 159.296875 543.691406 159 L 543.730469 158.4375 C 543.742188 158.429688 543.789062 157.992188 543.789062 157.992188 L 543.921875 156.207031 C 543.765625 155.582031 543.164062 155.03125 542.476562 154.859375 C 542.0625 154.769531 541.691406 154.851562 541.347656 155.121094 C 540.640625 155.671875 540.058594 157.476562 540.054688 158.3125 C 540.046875 158.695312 539.742188 158.9375 539.425781 158.945312 C 539.089844 158.953125 538.8125 158.707031 538.804688 158.359375 C 538.714844 157.144531 539.328125 155.289062 540.09375 154.464844 C 540.683594 153.816406 541.457031 153.472656 542.316406 153.464844 C 543.316406 153.449219 544.238281 153.980469 544.835938 154.898438 C 545.507812 155.96875 545.363281 158.304688 544.902344 159.265625 C 544.773438 159.578125 544.425781 159.671875 544.164062 159.613281"/></g><g><path fill="#a1574d" d="M 572.078125 121.492188 C 567.011719 113.363281 559.21875 106.683594 549.527344 103.070312 C 536.671875 98.195312 517.910156 97.289062 504.425781 100.003906 C 497.257812 101.445312 490.726562 103.972656 485.457031 108.308594 C 482.929688 110.472656 475.972656 114.992188 477.230469 118.78125 L 479.058594 126.675781 C 479.058594 128.84375 475.550781 147.863281 482.929688 144.609375 C 484.402344 144.066406 485.457031 140.09375 486.296875 138.832031 C 487.773438 136.84375 489.246094 135.035156 490.726562 133.230469 C 493.464844 129.800781 497.046875 126.1875 500.625 123.480469 C 499.996094 127.269531 496.414062 131.066406 496.835938 135.21875 C 497.257812 140.816406 502.53125 133.953125 505.054688 132.328125 C 504 134.859375 502.53125 139.191406 506.535156 140.09375 C 510.742188 140.996094 513.695312 137.023438 516.648438 135.398438 C 513.277344 141.902344 517.785156 143.617188 523.269531 140.546875 C 528.539062 137.835938 536.570312 129.992188 539.734375 125.664062 C 540.152344 130.355469 535.722656 138.148438 538.984375 142.449219 C 541.316406 145.507812 547.625 138.109375 549.738281 135.578125 C 551.210938 138.472656 548.683594 143.527344 551 146.417969 C 555.21875 151.472656 558.796875 143.34375 560.058594 141.355469 C 562.800781 145.332031 560.058594 151.832031 562.59375 155.988281 C 567.226562 163.398438 572.285156 149.304688 573.550781 146.59375 C 577.554688 137.386719 577.554688 130.34375 572.078125 121.492188"/></g><g><path fill="#f6dd72" d="M 499.734375 200.285156 C 499.734375 200.285156 488.589844 172.707031 488.304688 170.96875 C 488.035156 169.230469 492.179688 166.582031 493.890625 169.972656 C 496.625 175.390625 506.148438 202.574219 506.148438 202.574219 L 499.734375 200.285156"/></g><g><path fill="#f3b6d2" d="M 494.613281 171.542969 C 494.351562 170.929688 494.101562 170.394531 493.890625 169.972656 C 492.179688 166.582031 488.035156 169.230469 488.304688 170.96875 C 488.359375 171.234375 488.652344 172.125 489.132812 173.417969 C 490.628906 172.191406 492.441406 171.265625 494.613281 171.542969"/></g><g><path fill="#767d83" d="M 494.613281 171.542969 C 492.441406 171.265625 490.628906 172.191406 489.132812 173.417969 C 489.558594 174.570312 490.125 176.046875 490.765625 177.722656 C 492.269531 176.472656 494.09375 175.851562 496.226562 175.574219 C 495.632812 174.023438 495.078125 172.648438 494.613281 171.542969"/></g><g><path fill="#d6bb51" d="M 503.902344 199.71875 C 502.214844 194.167969 497.933594 181.558594 495.328125 176.363281 C 495.015625 175.738281 494.058594 176.222656 494.363281 176.84375 C 496.945312 182.113281 500.679688 194.714844 503.347656 199.921875 C 503.492188 200.214844 504.003906 200.050781 503.902344 199.71875"/></g><g><path fill="#d6bb51" d="M 499.945312 196.515625 C 498.257812 190.960938 495.492188 182.484375 492.882812 177.285156 C 492.578125 176.660156 491.625 177.148438 491.929688 177.769531 C 494.507812 183.03125 496.722656 191.503906 499.386719 196.714844 C 499.535156 197.007812 500.042969 196.847656 499.945312 196.515625"/></g><g><path fill="#b0b5bd" d="M 493.246094 173.335938 C 493.863281 173.875 494.796875 173.011719 494.183594 172.46875 C 493.578125 171.921875 492.640625 172.789062 493.246094 173.335938"/></g><g><path fill="#b0b5bd" d="M 492.449219 173.113281 C 491.625 172.878906 490.765625 173.625 490.308594 174.242188 C 490.15625 174.460938 490.507812 174.757812 490.679688 174.546875 C 491.144531 173.988281 491.695312 173.519531 492.441406 173.410156 L 492.449219 173.113281"/></g><g><path fill="#f6e0ca" d="M 506.519531 197.140625 C 506.519531 197.140625 506.902344 195.273438 505.0625 192.605469 C 503.21875 189.945312 498.371094 189.527344 495.09375 189.734375 C 491.816406 189.9375 486.761719 195.441406 483.679688 195.441406 C 481.191406 195.441406 474.273438 193.84375 468.738281 191.796875 C 463.300781 189.777344 456.511719 195.289062 456.859375 203.453125 L 510.898438 203.453125 C 510.519531 201.902344 509.464844 199.214844 506.519531 197.140625"/></g><g><path fill="#f2c2d9" d="M 176.523438 140.195312 C 167.550781 131.617188 147.65625 121.863281 147.65625 121.863281 L 105.921875 121.472656 C 105.921875 121.472656 81.394531 125.265625 65.027344 136.957031 C 48.066406 149.070312 26.226562 192.363281 24.859375 203.453125 L 58.375 203.453125 L 70.035156 184.074219 L 71.289062 203.453125 L 161.609375 203.453125 C 164.09375 199.964844 166.671875 193.046875 166.941406 179.335938 L 180.953125 203.453125 L 208.878906 203.453125 C 209.832031 195.535156 184.945312 148.25 176.523438 140.195312"/></g><g><path fill="#c298af" d="M 70.328125 183.792969 C 74.03125 172.160156 74.367188 151.75 63.890625 143.640625 C 63.164062 143.078125 62.339844 144.253906 63.070312 144.808594 C 72.648438 152 74.03125 172.921875 69.742188 183.570312 C 69.589844 183.953125 70.210938 184.175781 70.328125 183.792969"/></g><g><path fill="#c298af" d="M 174.792969 151.503906 C 172.253906 155.578125 170.335938 159.871094 168.839844 164.4375 C 167.023438 169.960938 167.828125 176.949219 164.945312 181.980469 C 164 183.640625 166.625 184.855469 167.1875 183.152344 C 168.550781 179.074219 168.667969 174.933594 169.3125 170.710938 C 170.324219 164.144531 172.820312 158.113281 175.917969 152.289062 C 176.320312 151.53125 175.269531 150.734375 174.792969 151.503906"/></g><g><path fill="#f0dee9" d="M 96.550781 124.109375 C 96.550781 124.109375 98.972656 141.589844 110.492188 148.863281 C 137.230469 165.742188 159 147.933594 155.382812 132.917969 C 151.761719 117.90625 96.550781 124.109375 96.550781 124.109375"/></g><g><path fill="#e2c2af" d="M 100.605469 126.164062 C 100.605469 126.164062 102.746094 140.890625 112.871094 147.023438 C 136.375 161.269531 155.476562 146.28125 152.292969 133.632812 C 149.097656 120.980469 100.605469 126.164062 100.605469 126.164062"/></g><g><path fill="#89989a" d="M 167.160156 201.046875 C 168.039062 197.242188 166.871094 191.976562 165.695312 182.617188 C 164.527344 173.253906 161.019531 167.40625 161.019531 167.40625 L 150.78125 167.257812 C 150.78125 167.257812 151.171875 177.253906 133.808594 177.644531 C 113.554688 178.097656 109.238281 166.234375 109.238281 166.234375 L 98.851562 167.257812 C 95.925781 186.855469 75.011719 197.828125 75.011719 197.828125 C 75.011719 197.828125 77.277344 200.617188 83.375 203.453125 L 162.996094 203.453125 C 165.480469 202.613281 166.992188 201.785156 167.160156 201.046875"/></g><g><path fill="#89989a" d="M 98.996094 122.058594 C 98.996094 122.058594 107.191406 137.859375 107.773438 161.84375 C 107.773438 161.84375 99.582031 163.308594 99.292969 162.136719 C 98.996094 160.964844 96.949219 138.148438 91.683594 127.03125 C 86.421875 115.914062 98.996094 122.058594 98.996094 122.058594"/></g><g><path fill="#89989a" d="M 155.65625 121.859375 C 155.65625 121.859375 162.21875 138.398438 160.390625 162.324219 C 160.390625 162.324219 152.09375 162.953125 151.921875 161.761719 C 151.746094 160.566406 152 137.660156 147.882812 126.066406 C 143.757812 114.480469 155.65625 121.859375 155.65625 121.859375"/></g><g><path fill="#b7b1ab" d="M 98.320312 159.878906 C 96.421875 160.890625 97.460938 164.597656 97.617188 166.234375 C 97.773438 167.75 97.222656 168.808594 98.121094 170.15625 C 98.902344 171.324219 101.152344 170.238281 101.910156 171.339844 C 102.386719 172.035156 103.398438 171.179688 102.914062 170.488281 C 102.523438 169.929688 101.96875 169.792969 101.328125 169.660156 C 100.90625 169.566406 100.445312 169.550781 100.015625 169.511719 C 98.6875 169.378906 98.796875 167.871094 98.792969 166.890625 C 98.785156 165.441406 97.410156 161.613281 98.804688 160.628906 C 99.226562 160.335938 98.765625 159.636719 98.320312 159.878906"/></g><g><path fill="#b7b1ab" d="M 107.800781 160.222656 C 109.214844 161.664062 108.289062 163.710938 108.863281 165.429688 C 109.117188 166.203125 109.984375 167.832031 108.898438 168.433594 C 108.539062 168.632812 108.097656 168.730469 107.714844 168.867188 C 107.0625 169.089844 106.59375 169.457031 106.378906 170.101562 C 106.101562 170.925781 107.242188 171.296875 107.613281 170.558594 C 108.066406 169.65625 109.785156 169.90625 110.363281 168.972656 C 111.121094 167.746094 110.714844 166.640625 110.183594 165.410156 C 109.589844 164.027344 110.253906 159.867188 108.101562 159.648438 C 107.808594 159.617188 107.582031 159.996094 107.800781 160.222656"/></g><g><path fill="#d0ccc9" d="M 109.09375 172.476562 C 109.09375 174.765625 107.234375 176.621094 104.949219 176.621094 C 102.660156 176.621094 100.800781 174.765625 100.800781 172.476562 C 100.800781 170.1875 102.660156 168.328125 104.949219 168.328125 C 107.234375 168.328125 109.09375 170.1875 109.09375 172.476562"/></g><g><path fill="#b7b1ab" d="M 150.976562 160.316406 C 149.078125 161.328125 150.117188 165.035156 150.277344 166.675781 C 150.429688 168.1875 149.882812 169.253906 150.78125 170.59375 C 151.5625 171.761719 153.8125 170.679688 154.566406 171.777344 C 155.046875 172.476562 156.054688 171.617188 155.574219 170.929688 C 155.179688 170.371094 154.628906 170.230469 153.988281 170.09375 C 153.5625 170.003906 153.105469 169.992188 152.675781 169.949219 C 151.34375 169.816406 151.457031 168.308594 151.453125 167.328125 C 151.441406 165.878906 150.0625 162.050781 151.460938 161.070312 C 151.886719 160.769531 151.421875 160.074219 150.976562 160.316406"/></g><g><path fill="#b7b1ab" d="M 160.460938 160.660156 C 161.875 162.105469 160.949219 164.152344 161.519531 165.871094 C 161.773438 166.640625 162.640625 168.269531 161.558594 168.871094 C 161.199219 169.066406 160.757812 169.175781 160.367188 169.308594 C 159.726562 169.527344 159.253906 169.894531 159.039062 170.539062 C 158.757812 171.363281 159.894531 171.738281 160.273438 170.996094 C 160.726562 170.09375 162.445312 170.34375 163.019531 169.410156 C 163.78125 168.183594 163.371094 167.078125 162.84375 165.847656 C 162.246094 164.464844 162.914062 160.300781 160.757812 160.085938 C 160.46875 160.054688 160.238281 160.433594 160.460938 160.660156"/></g><g><path fill="#d0ccc9" d="M 161.753906 172.914062 C 161.753906 175.203125 159.894531 177.058594 157.605469 177.058594 C 155.320312 177.058594 153.460938 175.203125 153.460938 172.914062 C 153.460938 170.625 155.320312 168.769531 157.605469 168.769531 C 159.894531 168.769531 161.753906 170.625 161.753906 172.914062"/></g><g><path fill="#a1574d" d="M 79.824219 95.714844 C 79.824219 95.714844 79.957031 118.125 86.070312 126.140625 C 86.070312 126.140625 78.402344 130.925781 87.167969 143.269531 C 87.167969 143.269531 80.839844 149.015625 89.78125 158.070312 C 89.78125 158.070312 84.691406 164.316406 92.945312 174.582031 C 92.945312 174.582031 88.082031 180.492188 92.269531 192.703125 C 93.84375 197.304688 89.765625 200.515625 92.347656 200.429688 C 94.925781 200.339844 96.105469 196.246094 96.105469 196.246094 C 96.105469 196.246094 96.285156 201.40625 98.015625 200.675781 C 99.75 199.949219 102.183594 193.28125 101.761719 189.875 C 100.589844 180.378906 96.929688 176.859375 97.003906 174.472656 C 97.003906 174.472656 101.476562 163.746094 95.609375 158.523438 C 95.609375 158.523438 99.894531 146.125 93.597656 143.234375 C 93.597656 143.234375 100.9375 135.671875 97.214844 131.039062 C 97.214844 131.039062 109.902344 120.011719 112.589844 112.21875 C 115.273438 104.425781 79.824219 95.714844 79.824219 95.714844"/></g><g><path fill="#a1574d" d="M 149.738281 97.554688 C 149.738281 97.554688 147.738281 119.488281 154.214844 127.214844 C 154.214844 127.214844 145.820312 132.734375 155.15625 144.660156 C 155.15625 144.660156 149.097656 150.691406 158.449219 159.324219 C 158.449219 159.324219 153.660156 165.804688 162.378906 175.675781 C 162.378906 175.675781 157.789062 181.800781 162.539062 193.804688 C 164.324219 198.324219 160.394531 201.730469 162.976562 201.523438 C 165.554688 201.316406 166.539062 197.171875 166.539062 197.171875 C 166.539062 197.171875 166.953125 202.316406 168.648438 201.507812 C 170.351562 200.703125 172.46875 193.925781 171.890625 190.539062 C 170.28125 181.105469 166.460938 177.757812 166.425781 175.375 C 166.425781 175.375 170.398438 164.453125 164.296875 159.503906 C 164.296875 159.503906 168.003906 146.921875 161.574219 144.328125 C 161.574219 144.328125 170.460938 136.832031 166.53125 132.375 C 166.53125 132.375 176.671875 121.691406 177.496094 112.097656 C 178.195312 103.886719 149.738281 97.554688 149.738281 97.554688"/></g><g><path fill="#f6e0ca" d="M 187.035156 95.917969 C 190.71875 101.597656 189.726562 108.300781 184.753906 113.078125 C 182.039062 115.6875 177.214844 116.964844 173.558594 116.054688 C 165.921875 114.144531 168.992188 102.226562 171.441406 97.5 C 174.894531 90.863281 181.878906 87.964844 187.035156 95.917969"/></g><g><path fill="#f6e0ca" d="M 75.519531 84.882812 C 71.597656 90.398438 72.308594 97.132812 77.085938 102.121094 C 79.6875 104.847656 84.449219 106.316406 88.144531 105.554688 C 95.863281 103.972656 93.277344 91.929688 91.023438 87.105469 C 87.871094 80.332031 80.996094 77.148438 75.519531 84.882812"/></g><g><path fill="#f6e0ca" d="M 150.984375 139.09375 C 131.300781 147.839844 101.855469 139.054688 93.378906 119.332031 C 85.109375 100.089844 88.40625 75.769531 105.328125 63.785156 C 127.675781 47.945312 163.390625 52.023438 174.992188 78.371094 C 184.289062 99.480469 173.660156 129.015625 150.984375 139.09375"/></g><g><path fill="#eea1ab" d="M 106.324219 104.261719 C 99.90625 102.867188 97.835938 105.710938 98.238281 109.636719 C 98.585938 113.078125 101.652344 115.179688 106.679688 115.816406 C 109.4375 116.167969 111.996094 115.414062 113.195312 113.882812 C 116.078125 110.230469 112.792969 105.660156 106.324219 104.261719"/></g><g><path fill="#eea1ab" d="M 165.300781 109.152344 C 171.863281 109.125 173.300781 112.339844 172.089844 116.097656 C 171.03125 119.390625 167.597656 120.808594 162.546875 120.375 C 159.773438 120.144531 157.425781 118.875 156.570312 117.128906 C 154.511719 112.953125 158.675781 109.171875 165.300781 109.152344"/></g><g><path fill="#67594c" d="M 140.039062 103.078125 C 140.125 105.632812 139.121094 110.136719 138.984375 112.664062 C 141.222656 112.832031 142.722656 114.554688 142.515625 117.042969 C 142.261719 120.109375 138.535156 121.46875 136.253906 119.511719 C 135.617188 118.941406 135.9375 117.660156 136.921875 117.820312 C 138.171875 118.019531 139.640625 118.734375 140.328125 117.246094 C 141.078125 115.628906 139.773438 114.378906 138.183594 114.503906 C 137.621094 114.546875 137.0625 114.128906 137.128906 113.503906 C 137.457031 110.699219 138.371094 105.894531 138.929688 103.121094 C 139.050781 102.550781 140.007812 102.410156 140.039062 103.078125"/></g><g><path fill="#67594c" d="M 127.257812 125.71875 C 126.609375 128.175781 127.078125 130.894531 128.476562 132.808594 C 129.5625 134.285156 131.109375 135.195312 132.96875 135.4375 C 135.140625 135.726562 137.304688 134.910156 138.949219 133.210938 C 140.769531 131.304688 141.523438 128.65625 140.84375 126.460938 C 140.714844 126.058594 140.246094 125.875 139.855469 125.910156 C 139.449219 125.957031 139.148438 126.21875 139.09375 126.589844 L 138.976562 127.820312 C 138.898438 128.804688 138.828125 129.734375 138.382812 130.683594 C 137.691406 132.210938 135.808594 133.402344 133.820312 133.582031 C 132.613281 133.691406 131.570312 133.328125 130.722656 132.507812 C 129.101562 130.894531 128.59375 127.96875 128.945312 126.019531 C 129.039062 125.503906 128.660156 125.15625 128.242188 125.097656 C 127.773438 125.027344 127.359375 125.285156 127.257812 125.71875"/></g><g><path fill="#67594c" d="M 159 107.300781 L 158.992188 107.300781 C 158.714844 107.265625 158.507812 107.050781 158.480469 106.761719 L 158.464844 106.210938 C 158.46875 106.203125 158.476562 105.777344 158.476562 105.777344 L 158.421875 104.03125 C 158.203125 103.449219 157.566406 102.96875 156.882812 102.875 C 156.46875 102.832031 156.121094 102.949219 155.816406 103.25 C 155.195312 103.855469 154.808594 105.65625 154.894531 106.464844 C 154.925781 106.839844 154.65625 107.105469 154.355469 107.136719 C 154.027344 107.1875 153.730469 106.972656 153.6875 106.644531 C 153.472656 105.46875 153.882812 103.617188 154.535156 102.742188 C 155.046875 102.054688 155.757812 101.636719 156.585938 101.546875 C 157.550781 101.429688 158.492188 101.84375 159.171875 102.675781 C 159.9375 103.640625 160.027344 105.917969 159.6875 106.894531 C 159.585938 107.210938 159.265625 107.335938 159 107.300781"/></g><g><path fill="#67594c" d="M 115.988281 104.042969 L 115.996094 104.046875 C 116.277344 104.046875 116.515625 103.855469 116.566406 103.578125 L 116.667969 103.03125 C 116.65625 103.019531 116.714844 102.59375 116.714844 102.59375 L 116.992188 100.875 C 117.277344 100.320312 117.96875 99.933594 118.667969 99.929688 C 119.066406 99.941406 119.402344 100.097656 119.667969 100.433594 C 120.207031 101.117188 120.355469 102.953125 120.171875 103.742188 C 120.097656 104.109375 120.320312 104.40625 120.625 104.484375 C 120.9375 104.574219 121.265625 104.402344 121.347656 104.078125 C 121.703125 102.945312 121.539062 101.046875 121.007812 100.101562 C 120.589844 99.347656 119.933594 98.847656 119.128906 98.648438 C 118.179688 98.40625 117.199219 98.699219 116.417969 99.429688 C 115.542969 100.289062 115.144531 102.535156 115.359375 103.550781 C 115.421875 103.875 115.730469 104.039062 115.988281 104.042969"/></g><g><path fill="#a1574d" d="M 168.617188 37.941406 C 168.617188 37.941406 163.335938 22.691406 138.109375 18.875 C 116.890625 15.667969 94.699219 25.917969 91.476562 41.164062 C 91.476562 41.164062 82.085938 41.996094 78.566406 55.195312 C 75.046875 68.386719 77.617188 74.167969 78.203125 81.5 C 78.203125 81.5 87.03125 80.8125 89.128906 86.484375 C 91.621094 93.230469 92.058594 101.882812 91.476562 105.402344 C 90.886719 108.921875 94.40625 105.988281 92.351562 93.378906 C 92.351562 93.378906 94.257812 94.695312 95.730469 101.148438 C 97.195312 107.601562 96.300781 111.097656 97.78125 107.160156 C 98.21875 105.988281 97.78125 97.628906 93.378906 90.589844 C 93.378906 90.589844 108.1875 85.457031 114.054688 66.6875 C 114.054688 66.6875 115.234375 64.339844 119.636719 64.925781 C 124.035156 65.511719 131.371094 69.910156 144.269531 69.617188 C 157.175781 69.324219 160.894531 66.488281 164.121094 67.660156 C 164.121094 67.660156 167.21875 82.601562 174.253906 101.230469 C 175 107.710938 174.15625 114.761719 173.136719 117.746094 C 171.980469 121.125 175.933594 118.808594 175.972656 106.03125 C 175.972656 106.03125 177.640625 107.644531 178.023438 114.25 C 178.417969 120.851562 177.605469 122.023438 178.976562 120.851562 C 179.902344 120.054688 180.128906 111.949219 178.085938 104.582031 C 179.988281 101.402344 183.070312 94.902344 183.863281 85.164062 C 185.039062 70.785156 181.519531 45.566406 168.617188 37.941406"/></g><g><path fill="#964c41" d="M 91.28125 41.164062 C 90.996094 48.203125 94.296875 54.59375 100.460938 58.066406 C 106.222656 61.300781 111.570312 61.4375 117.582031 64.191406 C 119 64.84375 121.238281 65.363281 120.21875 64.484375 C 116.648438 61.410156 110.558594 59.589844 106.21875 58.035156 C 103.636719 57.113281 100.800781 56.136719 98.746094 54.261719 C 95.179688 51.003906 93.074219 44.972656 91.960938 40.484375 C 91.777344 39.730469 91.164062 40.386719 91.28125 41.164062"/></g><g><path fill="#964c41" d="M 168.320312 38.820312 C 172.398438 47.78125 175.78125 63.230469 163.046875 66.878906 C 161.621094 67.289062 163.664062 67.882812 165.09375 67.46875 C 179.382812 63.292969 174.765625 49.277344 169.6875 38.820312 C 169.199219 37.816406 167.859375 37.800781 168.320312 38.820312"/></g><g><path fill="#964c41" d="M 117.488281 81.1875 C 119.050781 80.375 123.429688 78.058594 124.226562 80.84375 C 124.746094 82.671875 127.417969 81.769531 126.667969 80.0625 C 124.773438 75.765625 119.203125 77.585938 116.902344 80.496094 C 116.609375 80.863281 117.078125 81.394531 117.488281 81.1875"/></g><g><path fill="#964c41" d="M 160.925781 84.265625 C 159.546875 83.222656 156.441406 80.683594 155.25 83.304688 C 154.476562 85.027344 152.054688 83.71875 153.03125 82.152344 C 155.507812 78.207031 159.828125 80.441406 161.59375 83.675781 C 161.8125 84.085938 161.28125 84.535156 160.925781 84.265625"/></g><g><path fill="#f6e0ca" d="M 197.59375 190.414062 C 187.597656 188.871094 180.738281 196.09375 174.085938 195.566406 C 174.085938 195.566406 165.570312 194.238281 163.175781 193.175781 C 161.378906 192.375 150.167969 199.347656 146.121094 203.453125 L 208.71875 203.453125 C 208.117188 199.535156 205.882812 191.6875 197.59375 190.414062"/></g><g><path fill="#5f666a" d="M 97.765625 191.125 C 97.765625 191.125 82.171875 166.125 81.601562 164.476562 C 81.039062 162.835938 84.625 159.535156 86.875 162.550781 C 90.472656 167.367188 104.414062 192.257812 104.414062 192.257812 L 97.765625 191.125"/></g><g><path fill="#3a4041" d="M 87.851562 163.960938 C 87.488281 163.40625 87.15625 162.925781 86.875 162.550781 C 84.625 159.535156 81.039062 162.835938 81.601562 164.476562 C 81.695312 164.730469 82.132812 165.546875 82.828125 166.726562 C 84.078125 165.269531 85.683594 164.058594 87.851562 163.960938"/></g><g><path fill="#3a4041" d="M 100.234375 186.691406 C 97.644531 181.566406 91.308594 169.996094 87.878906 165.375 C 87.46875 164.816406 86.621094 165.457031 87.023438 166.007812 C 90.4375 170.710938 96.238281 182.363281 99.730469 186.984375 C 99.921875 187.25 100.394531 187 100.234375 186.691406"/></g><g><path fill="#3a4041" d="M 97.433594 187.722656 C 94.835938 182.589844 88.808594 172.613281 85.28125 167.046875 C 84.914062 166.464844 84.03125 167.132812 84.433594 167.683594 C 87.851562 172.375 93.433594 183.386719 96.921875 188.011719 C 97.117188 188.269531 97.585938 188.03125 97.433594 187.722656"/></g><g><path fill="#5f666a" d="M 85.109375 162.707031 C 85.703125 162.554688 85.480469 161.773438 84.878906 161.921875 C 84.285156 162.058594 84.511719 162.851562 85.109375 162.707031"/></g><g><path fill="#5f666a" d="M 83.996094 162.488281 C 83.253906 162.335938 82.710938 163.09375 82.472656 163.710938 C 82.390625 163.921875 82.757812 164.167969 82.851562 163.960938 C 83.113281 163.398438 83.460938 162.925781 84.058594 162.769531 L 83.996094 162.488281"/></g><g><path fill="#f6e0ca" d="M 106.90625 195.832031 C 106.90625 195.832031 107.703125 193.96875 105.304688 190.507812 C 102.914062 187.050781 98.125 184.925781 93.867188 185.191406 C 89.609375 185.457031 81.640625 193.40625 77.644531 193.40625 C 74.414062 193.40625 55.324219 191.785156 48.136719 189.128906 C 41.332031 186.605469 28.6875 193.449219 28.054688 203.453125 L 113.101562 203.453125 C 111.644531 201.203125 109.328125 197.933594 106.90625 195.832031"/></g><g><path fill="#bfc3ca" d="M 7.394531 201.222656 C 6.285156 201.214844 5.171875 201.207031 4.0625 201.195312 C 3.039062 201.1875 1.878906 201.027344 0.882812 201.28125 C -0.0507812 201.519531 -0.4375 203.0625 0.695312 203.351562 C 2.6875 203.859375 5.125 203.476562 7.179688 203.460938 C 8.613281 203.449219 8.847656 201.234375 7.394531 201.222656"/></g><g clip-path="url(#a)"><path fill="#bfc3ca" d="M 614.277344 202.5 C 547.578125 200.292969 78.933594 202.644531 12.199219 201.355469 C 10.351562 201.320312 10.078125 204.191406 11.925781 204.21875 C 78.589844 205.15625 547.722656 206.917969 614.335938 203.957031 C 615.164062 203.917969 615.09375 202.527344 614.277344 202.5"/></g><g clip-path="url(#b)"><path fill="#bfc3ca" d="M 620.484375 203.777344 C 623.4375 203.972656 626.375 204.101562 629.332031 204.164062 C 630.550781 204.191406 630.699219 202.273438 629.507812 202.300781 C 626.476562 202.363281 623.46875 202.496094 620.441406 202.691406 C 619.816406 202.734375 619.882812 203.738281 620.484375 203.777344"/></g></g></svg>