<?xml version="1.0" encoding="UTF-8"?><svg xmlns="http://www.w3.org/2000/svg" xmlns:xlink="http://www.w3.org/1999/xlink" contentScriptType="text/ecmascript" fill="#000000" width="500" zoomAndPan="magnify" contentStyleType="text/css" viewBox="0.0 -12.0 500.0 257.0" height="257" preserveAspectRatio="xMidYMid meet" version="1"><g id="change1_2"><path fill="#ce6342" d="M157.68,103.98c36.58,1.25,70.62,30.41,87.52,47.57c-19.34,22.94-35.49,28.9-36.2,27.55 c-0.71-1.35-3.92-4.75-3.92-4.75s-1.18,24.6-0.65,25.24c0.53,0.64,2.35,25.71,2.35,25.71s-116.22,9.08-123.21-1.17 s-10.05-46.67-10.05-46.67l-1.88,1.63l-36.2-27.55c16.91-17.16,50.59-46.32,87.17-47.57 M158.84,5.44 c-38.07-17.43-65.66,16.7-65.28,41.71c0.38,25.01,18.11,34.54,18.09,34.5l54.45,3.13C188.67,72.8,193.82,21.45,158.84,5.44z"/></g><g id="change2_1"><path fill="#5e7f96" d="M104.14,222.28c0,0-12.7-70.8-12.66-72.68c0.04-1.88,53.99,12.73,53.99,12.73s39.15-13.53,42.49-13.98v78.25 L104.14,222.28z M459.47,200.04C459.47,200.04,459.47,200.04,459.47,200.04C459.47,200.04,459.47,200.04,459.47,200.04z M421.05,112.5c-4.67-1.54-17.21-4.51-17.21-4.51s-5.07-0.99-10.33-1.64c-1.54-0.19-11.4,9.27-12.85,9.17l-5.23-3.12l-24.04-9.47 c0,0-30.22,4.67-41.53,20.23c-11.31,15.56-13.98,43.58-9.66,58.7c9.57-1.61,14.72,8.42,14.72,8.42s10.14,36.77,44.26,39.1 c80.7-39.31,100.29-29.97,100.29-29.97C459.83,161.85,438.29,119.65,421.05,112.5z"/></g><g id="change3_1"><path fill="#350e07" d="M455,193.58c7.34,5.45,5.09,8.24-0.89,5.97C448.13,197.28,455,193.58,455,193.58z M304.79,179.89 c-6.29-0.06-6.16,3.59,0.53,4.51C312.01,185.33,304.79,179.89,304.79,179.89z M405.15,17.95c0.51-7.11-5.43-14.77-14.36-10.76 c-2.54-5.29-10.23-11.31-18.49-3.31c-3.7-4.95-16.91-5.63-20.46,3.99c-4.82-3.15-14.15,2.24-15.81,12.91 c-7.5-1.92-15.3,14.14-7.82,18.97c0.01,19.06,13.36,38.51,13.36,38.51l58.96,0.56c12.64-16.65,12.37-44.35,12.37-44.35 C416.78,27.63,413.57,16.67,405.15,17.95z"/></g><g id="change4_1"><path fill="#f2ab71" d="M396.81,192.4c0.2-1.17,11.59-12.17,22.65-14.6c0,0,26.07,6.69,35.53,15.78 c-0.08,11.81-11.41,33.84-52.99,25.64C402.01,219.22,394.14,203.12,396.81,192.4z M373.04,129.78c0,0-5.79,14.5-10.63,31.9 c-8.37-6.34-19.06-12.83-22.51-7.8c-5.94,8.67-12.64,23.9-12.8,24.47c-1.15,4.12-22.31,1.53-22.31,1.53 c2,26.18,22.31,50.98,44.17,40.27c3.73-1.83,6.85-4.13,9.5-6.74c8.11,16.18,33.21-2.02,33.29-2.56c0.09-0.6,0.88-90.58,0.88-90.58 C386.04,132.19,373.59,129.81,373.04,129.78z M180.57,63.44c-2.24,9.63-9.63,9.34-9.63,9.34c-3.18,11.45-9.69,21.51-17.95,26.92h0 l1.3,4.28c0.77,0,2.51-0.06,3.39,0c-5.04,15.28-17.02,22.89-17.02,22.89s-16.77-13.32-18.06-22.89c1.29-0.11,2.12-0.17,2.26-0.2 c0.46-0.1,1.81-2.22,2.18-3.63c-8.59-5.28-15.38-15.59-18.64-27.36c0,0-7.09-0.49-9.3-7.99c-1.44-4.87-0.07-10.45,6.17-11.28 c8.18-3.12,12.18-12.81,12.64-19.26c0,0,20.33,7.98,39.45-2.69c0,0,2.83,17.55,16.74,21.95C179.75,54.26,181.61,58.98,180.57,63.44z M131.75,50.59c-7.76-1-14.62,5.22-11.42,5.22c3.61-0.68,10.66-0.45,11.82-0.82C133.31,54.62,133.8,51.13,131.75,50.59z M150.43,50.59c-2.05,0.54-1.56,4.03-0.39,4.4s8.21,0.14,11.82,0.82C165.04,55.81,158.19,49.6,150.43,50.59z M31.88,214.21 c16.19,12.71,48.89,3.98,53.77,2.24c9.13-0.56,10.47-7.5,13.07-10.64c4.1-0.68,16.06,0.34,17.6-3.15c2.69,0.66,6.21-1.77,3.79-5.4 c0,0,4.92-0.94,3.28-4.9c-1.64-3.96-13.03-11.64-13.03-11.64c2.91-0.18,5.71-2.06,5.11-3.73s-1.21-3.5-9.73-8.49 c-5.95-3.48-11.45-1.58-16.63,2.75s-7.68,13.25-7.68,13.25c-6.24,2.11-13.53,1.68-13.53,1.68l3.72-7.1 c-10.1-9.6-30.53-25.64-30.66-25.87C27.22,171.12,15.69,201.5,31.88,214.21z M239.66,153.22c-0.13,0.23-20.56,16.27-30.66,25.87 l3.72,7.1c0,0-7.28,0.43-13.53-1.68c0,0-2.5-8.92-7.68-13.25c-5.18-4.33-10.67-6.24-16.63-2.75c-8.52,4.99-9.13,6.81-9.73,8.49 c-0.6,1.67,2.2,3.54,5.11,3.73c0,0-11.4,7.68-13.03,11.64s3.28,4.9,3.28,4.9c-2.42,3.63,1.1,6.05,3.79,5.4 c1.54,3.49,13.5,2.47,17.6,3.15c2.6,3.14,3.95,10.08,13.07,10.64c4.88,1.75,37.58,10.48,53.77-2.24 C264.94,201.5,253.41,171.12,239.66,153.22z"/></g><g id="change1_3"><path fill="#ce6342" d="M412.2,63.44c-2.24,9.63-9.63,9.34-9.63,9.34c-3.18,11.45-9.69,21.5-17.95,26.91l1.85,6.11 c0,0,4.43,0.26,7.03,0.55c-0.09,0.41-0.88,13.93-0.88,13.93s3.21,24.53-15.78,17.97c-13.68-4.72-14.82-24.04-6.59-34.38 c-13.89-0.65-25.6-14.4-30.24-31.09c0,0-7.09-0.49-9.3-7.99c-1.44-4.87-0.07-10.45,6.17-11.28c10.19-2.05,11.99-19.78,12-19.26 c0.01,0.52,26.18,8.47,40.86-1.86c0,0,4.16,18.27,15.96,21.13C411.37,54.26,413.24,58.99,412.2,63.44z"/></g><g id="change3_2"><path fill="#350e07" opacity="0.25" d="M368.98,220.08c-4.26-0.13-8.13-1.9-10.52-6.67c14.72-17.09,14.85-42.65,14.85-42.65 s-2.46-26.49,1.97-40.79c0.85,0.03,1.9,0.02,3.07-0.11C379.22,141.54,381.85,189.08,368.98,220.08z"/></g><g id="change5_1"><path fill="#ffeed4" d="M91.48,149.59l11.76-2.8c3.33,2.95,32.65,1.88,40.59,9.16c5.22-14.78,25.23-17.37,29.59-22v12.62 c4.63-0.36,8.93-2.36,8.93-2.36l5.61,4.13l-41.95,18.38L91.48,149.59z M387.47,115.33c3.01-2.64,3.53-36.75,2.27-39.04 c-1.26-2.29-35.78-0.98-38.36,1.32c-2.58,2.3-3.79,34.26-2.51,35.69C350.57,118.27,384.47,117.97,387.47,115.33z"/></g><g id="change1_4"><path fill="#ce6342" d="M339.9,153.88c-0.07-0.37,9.39-19.24,9.7-26.66c0.31-7.43-3.32-25.22-2.06-31.93 c0.75-2.86,7.7-2.35,9.2,7.41c2.16-2.41,3.56-15.61,5.95-19.53c2.39-2.93,4.89-0.58,5.45,2.23c0,0-0.06-2.87,1.72-4.5 c1.79-1.63,4.1-0.27,4.88,2.87c1.58-2.51,5.04-2.25,6.24,7.29c2.46,1.45,4.12,8.26,2.9,17.28c-1.22,9.02-7.24,15.74-8.03,20.11 c-0.79,4.37-1.94,39.81-2.55,42.33C373.3,170.77,351.8,167.11,339.9,153.88z M396.81,192.4c0,0-14.81,10.36-18.69,11.5 s-11.37-3.04-11.37-3.04s-4.2,12.74-16,18.35h51.27C402.01,219.22,401.86,207.38,396.81,192.4z M333.92,43.37 c0.05,0.02,0.07-0.05,0.05-0.08c-0.84-1.08-1.71-2.08-2.43-3.25c-0.29-0.48-1.99-3.36-1.45-3.82c0.02-0.02,0.01-0.05-0.01-0.05 c-1.42-0.29-0.28,2.52-0.1,2.95C330.73,40.9,332.09,42.61,333.92,43.37z M332.04,44.72c0-0.01-0.02,0-0.02,0.01 c0.63,2.5,2.3,4.57,4.98,4.99c0.09,0.01,0.16-0.11,0.07-0.15C335,48.54,332.97,46.89,332.04,44.72z M338.54,44.57 c-0.08-0.03-0.17,0.08-0.12,0.15c1.21,1.76,3.68,1.72,5.42,0.78c0.06-0.03,0.02-0.12-0.04-0.1 C341.92,45.82,340.3,45.17,338.54,44.57z M411.7,30.68c-0.01-0.1-0.13-0.11-0.17-0.02c-0.37,0.93-0.72,1.84-1.27,2.67 c-0.29,0.44-1.26,2.36-1.87,2.31c-0.12-0.01-0.21,0.11-0.22,0.22c-0.03,0.31,0.18,0.56,0.5,0.6c0.62,0.08,1.3-0.8,1.61-1.19 C411.29,34,411.82,32.29,411.7,30.68z M408.95,42c-1.27,1.48-3.51,1.46-5.26,1.71c-0.11,0.02-0.14,0.18-0.06,0.24 c0.84,0.71,2,0.74,3.03,0.41c1.21-0.38,1.81-1.24,2.46-2.23C409.19,42.03,409.03,41.9,408.95,42z M400.45,41.31 c-0.54,0.45-1.03,0.78-1.7,1c-0.58,0.19-1.21,0.22-1.82,0.28c-0.27,0.03-0.45,0.42-0.15,0.57c1.44,0.73,3.38-0.24,3.87-1.73 C400.69,41.31,400.53,41.24,400.45,41.31z"/></g><g id="change3_3"><path fill="#350e07" d="M123.74,66.71c0-2.21,1.52-4,3.39-4c1.87,0,3.39,1.79,3.39,4c0,2.21-1.52,4-3.39,4 C125.26,70.71,123.74,68.92,123.74,66.71z M152.26,70.71c1.87,0,3.39-1.79,3.39-4c0-2.21-1.52-4-3.39-4s-3.39,1.79-3.39,4 C148.87,68.92,150.39,70.71,152.26,70.71z M172.22,67c0.59-1.34,0.92-2.76,1.68-4.03c0.82-1.38,1.92-2.55,2.98-3.74 c0.07-0.08,0-0.24-0.11-0.2c-2.91,1.07-5.43,4.77-4.89,7.92C171.91,67.11,172.16,67.15,172.22,67z M106.55,66.79 c0.07,0.12,0.28,0.04,0.23-0.1c-0.75-2.43-2.36-4.43-4.61-5.65c-0.26-0.14-0.56,0.22-0.32,0.42 C103.67,63.02,105.26,64.78,106.55,66.79z M143.27,72.25c0.9,2.39-0.54,3.67-2.11,5.18c-0.07,0.07,0.02,0.18,0.1,0.13 c1.49-0.87,3.83-2.35,3.41-4.38c-0.33-1.64-2.15-3.49-2.77-5.08c-0.72-1.82-1.05-3.71-1.39-5.63c-0.01-0.08-0.12-0.05-0.13,0.02 c-0.16,2.33,0.31,4.59,1.23,6.74C142.05,70.27,142.88,71.23,143.27,72.25z M358.76,65.27c1.87,0,3.39-1.79,3.39-4s-1.52-4-3.39-4 c-1.87,0-3.39,1.79-3.39,4S356.89,65.27,358.76,65.27z M383.88,65.27c1.87,0,3.39-1.79,3.39-4s-1.52-4-3.39-4s-3.39,1.79-3.39,4 S382.01,65.27,383.88,65.27z M403.85,67c0.59-1.34,0.92-2.76,1.68-4.03c0.82-1.38,1.92-2.55,2.98-3.74c0.07-0.08,0-0.24-0.11-0.2 c-2.91,1.07-5.43,4.77-4.89,7.92C403.53,67.11,403.79,67.15,403.85,67z M338.18,66.79c0.07,0.12,0.28,0.04,0.23-0.1 c-0.75-2.43-2.36-4.43-4.61-5.65c-0.26-0.14-0.56,0.22-0.32,0.42C335.3,63.02,336.89,64.78,338.18,66.79z M153.36,100.9l-0.01-0.04 l-0.35-1.16v0c-4.08,2.67-8.58,4.2-13.33,4.2c-4.47,0-8.74-1.36-12.63-3.76c0,0,0,0,0,0c-0.38,1.42-1.73,3.54-2.18,3.63 c-0.14,0.03-0.96,0.09-2.26,0.2c0.18,1.32,0.65,2.7,1.33,4.12C146.28,108.93,153.36,100.9,153.36,100.9z M139.89,88.9 c2.98,0.05,5.19-1.31,7.55-2.95c0.24-0.16,0.03-0.53-0.23-0.39c-3.88,2.16-8.58,2.88-12.4,0.37c-0.22-0.14-0.43,0.13-0.33,0.33 C135.46,88.26,137.82,88.87,139.89,88.9z M40,179.12c7.1,0.59,12.87,2.9,19.43,5.44c3.92,1.51,8.28,3.96,12.14,1.39 c0.09-0.06,0.06-0.21-0.06-0.21c-10.67-0.2-20.76-8.56-31.53-6.71C39.94,179.04,39.95,179.11,40,179.12z M40.97,153.22 c-4.48-3.55-8.78-2.77-2.71,3.73C38.27,156.95,39.7,154.61,40.97,153.22z M78.94,199.4c0.44-3.06,0.97-6.12,1.53-9.16 c0.49-2.66,1.4-5.3,1.51-8.01c0-0.09-0.12-0.11-0.16-0.04c-2.88,4.79-3.15,11.75-2.97,17.19C78.85,199.44,78.93,199.46,78.94,199.4z M99.02,176.81c2.1,0.91,4.42,1.29,6.58,2.08c2.2,0.8,4.44,2.39,6.79,2.61c0.17,0.02,0.21-0.2,0.13-0.3 c-1.5-1.84-4.43-2.62-6.62-3.37c-1.97-0.67-4.74-1.9-6.84-1.27C98.95,176.59,98.9,176.76,99.02,176.81z M119.73,197.43 c0.05,0.02,0.09-0.04,0.06-0.08c-1.84-2.78-5.19-4.5-8.09-5.98c-2.87-1.46-6.23-3.28-9.44-3.69c-0.01,0-0.01,0.01-0.01,0.02 c2.56,2.03,5.98,3.13,8.85,4.68C114.02,193.95,116.69,196.16,119.73,197.43z M95.89,197.76c3.64,1.03,7.45,1.41,11.11,2.43 c3.16,0.87,6.33,2.35,9.65,2.27c0.06,0,0.11-0.09,0.05-0.13c-2.65-2.08-6.16-2.59-9.4-3.24c-3.71-0.74-7.58-1.68-11.37-1.62 C95.76,197.47,95.73,197.72,95.89,197.76z M101.49,205.72c0.13-0.03,0.09-0.21-0.03-0.22c-3.13-0.22-6.64,0.61-9.47,1.93 c-0.07,0.03-0.04,0.16,0.04,0.15C95.16,207.31,98.44,206.44,101.49,205.72z M101.53,201.21c-0.23,0.61-0.37,1.64,0.15,2.13 c0.07,0.07,0.22,0.09,0.29,0c0.36-0.45,0.41-1.19,0.55-1.74c0.18-0.69,0.34-1.34,0.65-1.99c0.03-0.05-0.03-0.11-0.08-0.08 C102.4,199.91,101.81,200.47,101.53,201.21z M103.75,194.85c-0.08,0.26,0.13,0.51,0.39,0.52c0.05,0,0.1,0,0.15,0.01 c0.21,0.01,0.32-0.18,0.3-0.37c0.71-1.14,1.4-2.32,1.92-3.55c0.03-0.06-0.03-0.13-0.1-0.1C105.07,192.08,104.16,193.4,103.75,194.85 z M108.37,186.6c0.38-0.33,0.39-0.98,0.51-1.44c0.16-0.63,0.34-1.38,0.66-1.95c0.11-0.19-0.15-0.39-0.3-0.23 c-0.56,0.57-1,1.03-1.23,1.83c-0.15,0.53-0.33,1.39,0.16,1.8C108.24,186.65,108.31,186.66,108.37,186.6z M100.38,171.81 c0.11-1.19,0.38-2.37,0.65-3.53c0.11-0.47,0.65-1.38,0.3-1.82c-0.01-0.02-0.03-0.03-0.04-0.05c-0.22-0.29-0.67-0.15-0.83,0.11 c-1,1.51-0.68,3.7-0.18,5.31C100.3,171.88,100.38,171.86,100.38,171.81z M221.2,184.56c6.6-2.55,12.29-4.85,19.43-5.44 c0.05,0,0.07-0.08,0.01-0.09c-10.76-1.85-20.87,6.51-31.53,6.71c-0.12,0-0.15,0.15-0.06,0.21 C212.91,188.52,217.27,186.07,221.2,184.56z M239.66,153.22c1.27,1.39,2.71,3.73,2.71,3.73 C248.45,150.45,244.14,149.67,239.66,153.22z M201.69,199.4c0.01,0.05,0.09,0.04,0.09-0.01c0.17-5.44-0.09-12.4-2.97-17.19 c-0.04-0.07-0.16-0.04-0.16,0.04c0.11,2.7,1.01,5.35,1.51,8.01C200.73,193.29,201.25,196.34,201.69,199.4z M174.74,177.83 c-2.18,0.74-5.13,1.53-6.62,3.37c-0.09,0.11-0.04,0.32,0.13,0.3c2.34-0.22,4.6-1.81,6.79-2.61c2.15-0.79,4.48-1.16,6.58-2.08 c0.12-0.05,0.07-0.23-0.03-0.26C179.48,175.92,176.73,177.15,174.74,177.83z M160.9,197.43c3.04-1.27,5.71-3.48,8.62-5.05 c2.87-1.56,6.3-2.66,8.85-4.68c0.01,0,0-0.02-0.01-0.02c-3.21,0.41-6.58,2.23-9.44,3.69c-2.9,1.48-6.25,3.2-8.09,5.98 C160.81,197.38,160.86,197.45,160.9,197.43z M163.93,202.33c-0.05,0.04-0.01,0.13,0.05,0.13c3.31,0.08,6.48-1.4,9.65-2.27 c3.66-1.01,7.47-1.4,11.11-2.43c0.16-0.05,0.13-0.29-0.04-0.29c-3.8-0.06-7.67,0.88-11.37,1.62 C170.09,199.74,166.58,200.25,163.93,202.33z M179.17,205.5c-0.12,0.01-0.16,0.19-0.03,0.22c3.05,0.71,6.33,1.58,9.46,1.86 c0.08,0.01,0.11-0.12,0.04-0.15C185.81,206.11,182.3,205.29,179.17,205.5z M179.11,201.21c-0.28-0.74-0.88-1.31-1.56-1.68 c-0.06-0.03-0.11,0.03-0.08,0.08c0.31,0.64,0.47,1.3,0.65,1.99c0.14,0.55,0.19,1.29,0.55,1.74c0.07,0.09,0.22,0.07,0.29,0 C179.48,202.85,179.34,201.82,179.11,201.21z M174.21,191.36c-0.07-0.04-0.12,0.03-0.1,0.1c0.53,1.23,1.22,2.41,1.92,3.55 c-0.02,0.18,0.09,0.37,0.3,0.37c0.05,0,0.1,0,0.15-0.01c0.26-0.01,0.47-0.25,0.39-0.52C176.47,193.4,175.56,192.08,174.21,191.36z M172.26,186.6c0.06,0.05,0.14,0.05,0.2,0c0.49-0.4,0.31-1.26,0.16-1.8c-0.23-0.8-0.67-1.25-1.23-1.83 c-0.15-0.16-0.41,0.04-0.3,0.23c0.32,0.57,0.5,1.32,0.66,1.95C171.87,185.63,171.87,186.27,172.26,186.6z M179.72,168.81 c0.22,0.98,0.43,1.99,0.53,2.99c0.01,0.06,0.08,0.07,0.1,0.01c0.5-1.61,0.82-3.81-0.18-5.31c-0.17-0.25-0.61-0.39-0.83-0.11 c-0.08,0.1-0.14,0.18-0.15,0.32c-0.02,0.26,0.18,0.63,0.24,0.84C179.55,167.97,179.63,168.4,179.72,168.81z M205.29,177.25 c1.35-4.39,0.36-10.21-0.44-14.64c-0.02-0.13-0.23-0.1-0.23,0.03c0.01,4.61-0.62,10.13,0.53,14.61 C205.18,177.32,205.27,177.32,205.29,177.25z M74.79,184.81c-1.4-7.45-1.7-15.13-1.04-22.68c0-0.03-0.04-0.03-0.05-0.01 c-1.41,7.74-1.12,15.15,0.73,22.79C74.49,185.14,74.83,185.04,74.79,184.81z M143.34,156.18c-0.18,0.28,0.2,0.51,0.43,0.33 c0.09-0.07,0.18-0.13,0.28-0.2c-0.57,9.46,0.9,19.37,1.87,28.78c0.94,9.09,2.12,18.13,3.72,27.13c0.02,0.1,0.19,0.08,0.17-0.02 c-1.03-9.68-2.15-19.35-3.07-29.05c-0.77-8.08-0.86-16.4-2.01-24.46c1.23-0.82,2.46-1.57,3.89-2c1.87-0.56,3.88-0.38,5.8-0.63 c2.05-0.27,3.68-0.94,5.14-2.4c0.04-0.04-0.02-0.13-0.07-0.09c-3.48,2.54-12.83,0.19-14.82,4.73c-0.11-0.73-0.22-1.46-0.34-2.19 c3.9-2.93,7.71-4.32,12.57-5.12c3.94-0.65,7.52-1.09,11.05-3.05c0.11-0.06,0.04-0.24-0.09-0.21 C160.36,149.86,148.14,148.83,143.34,156.18z M174.91,149.97c-5.97,2.81-12.55,4.87-18.27,8.14c-0.08,0.04-0.02,0.16,0.06,0.14 c6.35-1.49,12.87-4.56,18.32-8.1C175.12,150.07,175.03,149.91,174.91,149.97z M131.76,154.34c2.24,0.35,4.51,0.87,6.59,1.79 c1.74,0.77,2.98,2.09,4.59,2.99c0.09,0.05,0.2-0.03,0.18-0.14c-1.08-4.39-7.9-4.45-11.35-4.71 C131.73,154.27,131.73,154.34,131.76,154.34z M116.5,153.13c5.57,2.15,11.62,3.85,17.54,4.64c0.11,0.02,0.11-0.15,0.02-0.18 c-5.54-2.21-11.61-3.74-17.49-4.72C116.4,152.83,116.33,153.07,116.5,153.13z M108.8,151.41c-3.14-0.57-6.12-1.8-8.84-3.46 c-0.02-0.01-0.04,0.01-0.02,0.03c2.48,2.31,5.48,3.43,8.85,3.51C108.84,151.5,108.85,151.42,108.8,151.41z M488.27,218.45H11.73 C5.25,218.45,0,223.7,0,230.17v3.15c0,6.48,5.25,11.73,11.73,11.73h476.55c6.48,0,11.73-5.25,11.73-11.73v-3.15 C500,223.7,494.75,218.45,488.27,218.45z M161.53,176.37c0.67,0.26,1.39,0.29,2.05,0.55c0.01,0,0.01-0.01,0-0.01 c-0.34-0.21-0.58-0.52-0.88-0.77c-0.25-0.22-0.55-0.39-0.84-0.56c-0.63-0.38-1.17-0.39-1.86-0.6c-0.17-0.05-0.24,0.17-0.11,0.27 c0.33,0.24,0.54,0.56,0.87,0.78C161.01,176.18,161.27,176.27,161.53,176.37z M155.4,183.45c1.6-0.19,3.12-0.51,4.68-0.92 c0.33-0.09,0.19-0.59-0.14-0.52c-1.56,0.33-3.06,0.73-4.56,1.28C155.3,183.32,155.3,183.46,155.4,183.45z M129.42,186.45 c-1.08-0.84-2.15-1.37-3.52-1.46c-1.04-0.07-2.61-0.01-3.23,0.95c-0.03,0.05,0,0.11,0.05,0.13c0.9,0.34,2.01-0.03,2.96-0.01 c1.22,0.03,2.5,0.16,3.67,0.51C129.41,186.58,129.48,186.49,129.42,186.45z M126.36,195.22c0.69,0.27,1.39,0.89,1.94,1.39 c0.56,0.51,1.13,1.01,1.44,1.72c0.03,0.06,0.12,0.02,0.1-0.04c-0.19-0.88-0.45-1.73-1.13-2.36c-0.7-0.64-1.42-0.77-2.33-0.86 C126.28,195.05,126.28,195.19,126.36,195.22z M123.33,204.26c-0.21,0.05-0.35,0.08-0.54,0.19c-0.1,0.06-0.13,0.16-0.11,0.27 c0.12,0.67,0.83,1.14,1.31,1.55c0.59,0.5,1.25,0.8,1.88,1.23c0.21,0.15,0.43-0.17,0.27-0.35c-0.55-0.59-0.98-1.23-1.6-1.77 c-0.39-0.34-0.82-0.76-1.33-0.9C123.25,204.41,123.29,204.34,123.33,204.26C123.34,204.27,123.34,204.26,123.33,204.26z M353.72,110.44c1.35-2.41,2.54-4.89,3.49-7.49c0.04-0.11-0.13-0.17-0.18-0.08c-1.35,2.42-2.44,4.93-3.38,7.53 C353.62,110.45,353.69,110.48,353.72,110.44z M368.27,83.9c-0.01-0.2-0.28-0.19-0.31,0c-0.81,6.39-1.23,12.82-2.51,19.15 c-0.01,0.06,0.07,0.08,0.09,0.02C367.33,96.85,368.68,90.42,368.27,83.9z M374.66,83.43c-1.16,5.94-0.97,12.34-1.32,18.37 c0,0.08,0.13,0.1,0.15,0.02c1.19-5.89,2.37-12.39,1.55-18.39C375.01,83.25,374.7,83.26,374.66,83.43z M380.91,90.2 c-0.7,4.21-0.58,8.71-0.69,12.97c0,0.1,0.15,0.12,0.17,0.02c0.86-4.16,1.46-8.78,0.65-12.99C381.04,90.13,380.92,90.13,380.91,90.2z M325.47,181.87c-0.51,1.72-0.8,3.43-0.8,5.22c0,0.1,0.13,0.11,0.17,0.02c0.61-1.64,1.08-3.31,1.57-4.98 c0.42-1.42,1.14-2.91,1.08-4.41c0-0.05-0.07-0.08-0.1-0.04C326.3,178.74,325.89,180.45,325.47,181.87z M357.75,214.49 c11.95-9.56,14.39-27.59,15.48-41.75c0.01-0.09-0.15-0.12-0.17-0.02c-1.4,7.35-2.5,14.97-4.67,22.13 c-2.27,7.49-6.01,13.4-10.8,19.49C357.51,214.45,357.64,214.58,357.75,214.49z M378.37,203.64c-0.55,0.51-0.36,1.64-0.31,2.33 c0.06,0.9,0.15,1.88,0.51,2.71c0.04,0.08,0.16,0.05,0.18-0.02c0.3-0.9,0.27-1.94,0.23-2.88c-0.03-0.69,0.07-1.69-0.51-2.14 C378.43,203.62,378.4,203.61,378.37,203.64z M404.48,107.79c2.56,6.46,5.05,13.78,9,19.51c0.05,0.07,0.17,0.03,0.15-0.06 c-1.72-6.75-5.61-13.44-8.79-19.6C404.73,107.45,404.4,107.59,404.48,107.79z M409.05,144.84c-0.1,0.06-0.2,0.14-0.3,0.2 c-0.93-1.92-2.47-3.59-3.73-5.29c-1.4-1.89-2.8-3.81-4.38-5.56c-0.03-0.03-0.07,0.01-0.05,0.04c1.13,2.36,2.62,4.57,4.14,6.7 c1.09,1.52,2.15,3.19,3.58,4.42c-4.97,3.5-8.42,9.71-11.18,14.91c-0.04,0.07,0.06,0.13,0.11,0.06c3.36-5.23,7.97-9.58,11.36-14.73 c0.06,0.04,0.11,0.09,0.16,0.14c0.1,0.07,0.27-0.05,0.22-0.17c-0.04-0.11-0.1-0.21-0.15-0.32c0.08-0.12,0.16-0.24,0.24-0.36 C409.09,144.85,409.07,144.83,409.05,144.84z M405.03,137.4c-0.01,0.01,0,0.03,0.02,0.02c3.44-2.37,6.52-5.46,9.23-8.62 c0.07-0.08-0.02-0.23-0.12-0.15C410.85,131.19,407.6,134.09,405.03,137.4z M417.11,178.99c2.58-7.9,2.89-16.57,2.38-24.78 c-0.01-0.14-0.22-0.15-0.22,0c-0.49,8.29-1.82,16.48-2.47,24.74C416.78,179.13,417.05,179.15,417.11,178.99z M318.77,118.5 c5.24,2.82,9.91,6.86,13.19,11.85c0.04,0.06,0.12,0.01,0.09-0.05c-2.8-5.71-7.13-9.95-13.03-12.38 C318.68,117.79,318.46,118.34,318.77,118.5z M327.4,152.27c2.5,1.94,4.38,4.58,7.26,6.01c0.05,0.02,0.1-0.02,0.07-0.07 c-1.58-2.98-4.53-4.33-7.23-6.08C327.42,152.09,327.32,152.21,327.4,152.27z M347.28,61.71l-12.72-8.11l1.82-0.55l10.96,6.93 c0.22-1.92,0.91-3.7,1.96-5.22c-0.53,0.1-0.94,0.11-1.19-0.05c-1.49-0.94,3.85-5.95,10-6.25c5.59-0.28,8.1,2.4,7.61,3.7 c2.75,2.1,4.54,5.41,4.54,9.13c0,1.13-0.17,2.23-0.48,3.27c0.63-0.17,1.4-0.28,2.24-0.19c-0.05-0.62-0.05-1.24-0.01-1.87 c0-0.07,0.12-0.09,0.13-0.02c0.12,0.66,0.24,1.31,0.37,1.97c0.11,0.02,0.23,0.05,0.35,0.08c-0.3-1.03-0.47-2.11-0.47-3.24 c0-3.57,1.64-6.77,4.2-8.88c0.47-1.41,2.69-3.32,7.02-3.74c6.12-0.6,12.15,3.57,10.81,4.72c-0.34,0.29-1.04,0.28-2.04,0.15 c1.64,1.79,2.73,4.1,2.97,6.65l14.01-5.85l1.15,1.04l-15.13,6.42c-0.27,6.1-5.31,10.99-11.48,10.99c-4.46,0-8.33-2.56-10.24-6.28 c-0.25-0.16-0.5-0.29-0.75-0.39c0.18,0.67,0.37,1.34,0.63,1.99c0.62,1.59,2.44,3.44,2.77,5.08c0.14,0.71-0.05,1.35-0.42,1.92 c-0.37,0.12-0.83,0.1-1.08,0c0.41-0.79,0.53-1.69,0.09-2.85c-0.39-1.02-1.22-1.98-1.66-3.02c-0.46-1.08-0.81-2.19-1.02-3.32 c-1.48-0.3-2.76,0.3-3.2,0.54c-1.9,3.75-5.78,6.33-10.26,6.33C352.56,72.78,347.51,67.85,347.28,61.71z M373.88,61.28 c0,5.51,4.49,10,10,10s10-4.49,10-10c0-3.37-1.68-6.35-4.25-8.17c-3.03-0.45-7.26-0.85-12.14,0.48 C375.29,55.43,373.88,58.19,373.88,61.28z M348.76,61.28c0,5.51,4.49,10,10,10s10-4.49,10-10c0-3.96-2.32-7.38-5.67-9 c-4.72-0.23-8.54,0.9-11.18,1.73C349.98,55.83,348.76,58.41,348.76,61.28z M353.16,78.48c-0.08-0.14-0.34-0.09-0.32,0.09 c0.42,5.05,0.14,10.14,0.71,15.18c0.01,0.08,0.11,0.08,0.12,0c0.36-3.08,0.45-6.21,0.45-9.31C354.13,82.36,354.28,80.3,353.16,78.48 z"/></g><g><g id="change1_1"><path fill="#ce6342" d="M249.46,13.89c-0.46,1-0.6,2.02-0.23,3.07c0.1,0.28,0.56,0.26,0.55-0.07c-0.03-0.86,0.13-1.72,0.57-2.47 C250.69,13.83,249.74,13.3,249.46,13.89L249.46,13.89z"/></g></g></svg>