<?xml version="1.0" encoding="UTF-8"?><svg xmlns="http://www.w3.org/2000/svg" xmlns:xlink="http://www.w3.org/1999/xlink" contentScriptType="text/ecmascript" fill="#000000" width="350.3" zoomAndPan="magnify" contentStyleType="text/css" viewBox="4.7 0.4 350.3 301.6" height="301.6" preserveAspectRatio="xMidYMid meet" version="1"><defs><linearGradient x1="184.903" gradientTransform="rotate(-49.652 193.646 154.018)" xmlns:xlink="http://www.w3.org/1999/xlink" y1="154.019" x2="202.389" gradientUnits="userSpaceOnUse" y2="154.019" xlink:type="simple" xlink:actuate="onLoad" id="a" xlink:show="other"><stop stop-color="#43d1a8" offset="0"/><stop stop-color="#3dbdb7" offset="1"/></linearGradient><linearGradient x1="319.966" xmlns:xlink="http://www.w3.org/1999/xlink" y1="121.452" xlink:href="#a" x2="323.913" y2="121.452" xlink:type="simple" xlink:actuate="onLoad" id="d" xlink:show="other"/><linearGradient x1="327.861" xmlns:xlink="http://www.w3.org/1999/xlink" y1="115.53" x2="327.861" gradientUnits="userSpaceOnUse" y2="130.333" xlink:type="simple" xlink:actuate="onLoad" id="b" xlink:show="other"><stop stop-color="#8a9bff" offset="0"/><stop stop-color="#7586e6" offset="1"/></linearGradient><linearGradient x1="321.94" xmlns:xlink="http://www.w3.org/1999/xlink" y1="126.386" x2="321.94" gradientUnits="userSpaceOnUse" y2="154.295" xlink:type="simple" xlink:actuate="onLoad" id="c" xlink:show="other"><stop stop-color="#fedc83" offset="0"/><stop stop-color="#f5c67e" offset="1"/></linearGradient><linearGradient x1="289.373" xmlns:xlink="http://www.w3.org/1999/xlink" y1="170.741" xlink:href="#a" x2="345.625" y2="170.741" xlink:type="simple" xlink:actuate="onLoad" id="e" xlink:show="other"/><linearGradient x1="289.373" xmlns:xlink="http://www.w3.org/1999/xlink" y1="159.777" xlink:href="#b" x2="345.625" y2="159.777" xlink:type="simple" xlink:actuate="onLoad" id="f" xlink:show="other"/><linearGradient x1="180" xmlns:xlink="http://www.w3.org/1999/xlink" y1="187.079" xlink:href="#c" x2="180" y2="302.05" xlink:type="simple" xlink:actuate="onLoad" id="g" xlink:show="other"/><linearGradient x1="163.063" xmlns:xlink="http://www.w3.org/1999/xlink" y1="174.25" xlink:href="#b" x2="279.504" y2="174.25" xlink:type="simple" xlink:actuate="onLoad" id="h" xlink:show="other"/><linearGradient x1="87.239" xmlns:xlink="http://www.w3.org/1999/xlink" y1="124.906" x2="87.239" gradientUnits="userSpaceOnUse" y2="170.796" xlink:type="simple" xlink:actuate="onLoad" id="i" xlink:show="other"><stop stop-color="#828eb2" offset="0"/><stop stop-color="#586899" offset="1"/></linearGradient></defs><g data-name="Kid doing Homework"><g><g data-name="Student / Son"><g><g><path fill="#424551" d="M254.8024,64.5879l-54.3966,2.7632a27.8026,27.8026,0,0,1-6.76-8.0628,1.3853,1.3853,0,0,1-.0986-.1579,39.9133,39.9133,0,0,1-2.8127-5.7732c-3.8981-9.8688.9376-38.4882,20.6751-46.3832C227.7818.4211,242.802,11.5334,247.44,15.5105a.01.01,0,0,1,.01.01c.8685.74,1.3718,1.2336,1.4507,1.3126l.01.01s3.04.671,5.9509,5.3785c2.0724,3.3355,4.0856,8.714,4.9047,17.32C261.74,60.2653,254.8024,64.5879,254.8024,64.5879Z"/></g><g><path fill="#272a32" d="M254.8024,64.5879l-54.3966,2.7632a27.8026,27.8026,0,0,1-6.76-8.0628c1.1251-2.1514,1.8257-5.29,1.4409-9.9378-1.0264-12.3853,9.9082-33.988,25.2048-35.8631s17.27,6.8094,22.412,5.5363c3.8586-.9572,7.3719-.3157,12.1583,3.1976,2.0724,3.3355,4.0856,8.714,4.9047,17.32C261.74,60.2653,254.8024,64.5879,254.8024,64.5879Z"/></g><g><path fill="#e6f4ff" d="M247.44,15.5105c-2.0133-1.5494-6.395-4.1252-14.8131-6.0693C219.798,6.4806,202.9816,11.82,197.1,24.2443c-6.8,14.3591-6.6614,25.4614-3.5527,34.8861a39.9133,39.9133,0,0,1-2.8127-5.7732c-3.8981-9.8688.9376-38.4882,20.6751-46.3832C227.7818.4211,242.802,11.5334,247.44,15.5105Z"/></g></g><g><g><path fill="#ef7373" d="M287.399,236.4819l-67.601,15.8887-59.7061-18.4151,9.6517-58.2257,11.7537-70.9366c.76-.4737,1.53-.9277,2.2994-1.352.2566-.158.5132-.2961.77-.4343.2072-.1085.4046-.2171.6118-.3158a68.2907,68.2907,0,0,1,11.6649-4.7173c.7994-.2467,1.54-.4638,2.23-.6513.9375-.2467,1.7664-.454,2.4671-.6118,1.5593-.3652,2.487-.5231,2.487-.5231H250.401s1.5889.602,4.4212,1.9836c1.6086.79,3.6218,1.8258,5.9805,3.158,1.7566.9869,3.7007,2.1415,5.8127,3.464L277.8066,175.73l5.3883,34.1065Z"/></g><g><path fill="#e7f4fe" d="M182.8592,132.1592c-5.0232,16.8361-2.26-15.4841.9375-28.718.2566-.158.5132-.2961.77-.4343.2072-.1085.4046-.2171.6118-.3158A66.7793,66.7793,0,0,1,182.8592,132.1592Z"/></g><g><path fill="#e7f4fe" d="M199.0736,97.3225v1.1744s-8.9017,3.3357-11.359,4.51a2.3177,2.3177,0,0,1-2.5363-.3158,68.2907,68.2907,0,0,1,11.6649-4.7173C197.6426,97.7271,198.3827,97.51,199.0736,97.3225Z"/></g><g><path fill="#cc5e5e" d="M283.1949,209.8363c-12.76,3.4244-39.9488-1.53-44.8042-11.5958-5.1022-10.55.1579-22.0172,6.5726-47.676s-.02-24.1785-.02-24.1785-16.2637,6.4147-32.5471-1.48c-11.9017-5.7634-14.8426-19.7868-15.5532-26.9319,1.8652-.5723,3.4738-.9868,4.6975-1.2631,1.5593-.3652,2.487-.5231,2.487-.5231H250.401s1.5889.602,4.4212,1.9836c1.6086.79,3.6218,1.8258,5.9805,3.158,1.7566.9869,3.7007,2.1415,5.8127,3.464L277.8066,175.73Z"/></g><g><path fill="#cc5e5e" d="M297.1987,175.73H270.6813l-7.2141-54.3275-2.6645-20.0731c3.5626,2.0132,7.9147,4.6778,12.8293,8.122C287.4976,119.1621,297.1987,175.73,297.1987,175.73Z"/></g><g><path fill="#b24949" d="M280.4711,175.73h-9.79l-7.2141-54.3275c1.5988-5.8028,3.2962-7.9838,4.6877-3.4047C270.8688,126.9288,276.7012,156.2292,280.4711,175.73Z"/></g><g><path fill="#cc5e5e" d="M184.5665,103.0069l-.8093,9.0694-.0986,1.1645a.01.01,0,0,1-.01.01l-4.964,55.7585-.2566,2.9014a17.0593,17.0593,0,0,1-2.29,7.1253l-5.7535,9.79c-4.5989,7.8161-15.6223,13.5-20.1619,5.6548l-7.895-7.895c-1.4606-2.5363-.9277-6.5036.1776-10.3622a78.6808,78.6808,0,0,1,3.01-8.27c5.9706-14.6453,19.1059-45.7023,26.9713-55.3835A39.6666,39.6666,0,0,1,184.5665,103.0069Z"/></g><g><path fill="#b24949" d="M183.6487,113.2507l-4.964,55.7585c-7.2634,4.9443-14.4084,8.8523-13.6584,4.5,1.48-8.6352,10.3622-27.8793,8.31-34.9848-2.0527-7.0956,1.0659-15.5926,1.0659-11.6451s1.9737,9.8687,3.533,2.3783C178.961,124.3432,181.8131,117.4351,183.6487,113.2507Z"/></g><g><path fill="#ef7373" d="M184.5665,103.0069l-.8093,9.0694a55.3089,55.3089,0,0,0-13.4412,18.2572c-7.7569,16.2835-17.27,36.021-27.81,45.89a78.6808,78.6808,0,0,1,3.01-8.27c.0494-.1283.0987-.2566.1579-.3849,6.04-14.7933,19.0171-45.3963,26.8134-54.9986a38.1717,38.1717,0,0,1,10.3721-8.6056C183.4217,103.6386,183.9941,103.3129,184.5665,103.0069Z"/></g><g><path fill="#e7f4fe" d="M182.8592,103.9642h0a5.36,5.36,0,0,1-2.0174,3.3546c-2.6145,2.0144-8.4525,8.1226-17.8386,26.35-11.9412,23.2015-13.2833,33.5143-17.3295,33.8992,6.04-14.7933,19.0171-45.3963,26.8134-54.9986A38.1717,38.1717,0,0,1,182.8592,103.9642Z"/></g></g><g><g><path fill="#ef7373" d="M193.9122,162.8017s-16.0565,30.6919-30.85,36.4651c-11.25,4.3818-20.231-4.658-20.8725-13.234a10.9964,10.9964,0,0,1,2.0725-7.55c3.8784-5.1515,14.7439-11.3589,23.4383-15.77,6.6614-3.4047,12.05-5.7337,12.05-5.7337Z"/></g><g><path fill="#e7f4fe" d="M167.76,163.7985s-8.3194,4.54-18.1092,14.892c-2.7534,2.9211-5.29,5.3883-7.4608,7.3423a10.9964,10.9964,0,0,1,2.0725-7.55c3.8784-5.1515,14.7439-11.3589,23.4383-15.77C167.75,163.3741,167.76,163.7985,167.76,163.7985Z"/></g></g><g><g><path fill="#ffffff" d="M254.8222,98.1712a26.6256,26.6256,0,0,1-24.593,26.1522q-1.0065.0888-2.0428.0889a26.64,26.64,0,0,1-26.4384-23.3692,25.4985,25.4985,0,0,1-.2073-3.2765V96.7107c1.5593-.3652,2.487-.5231,2.487-.5231H250.401S251.99,96.79,254.8222,98.1712Z"/></g><g><path fill="#e2e6ee" d="M254.8222,98.1712a26.626,26.626,0,0,1-24.593,26.1522c-.3848-3.1382-1.2928-5.3587-5.0034-5.3883-6.4147-.0494-14.31-7.8456-18.721-14.26-1.8751-2.7337-3.5035-3.5725-4.7568-3.6317a25.4985,25.4985,0,0,1-.2073-3.2765V96.7107c1.5593-.3652,2.487-.5231,2.487-.5231H250.401S251.99,96.79,254.8222,98.1712Z"/></g><g><path fill="#c1cad6" d="M254.8222,98.1712a26.5877,26.5877,0,0,1-12.1583,21.958,7.2433,7.2433,0,0,0-6.4936-7.2831c-3.3653-.2171-5.0233,5.5758-5.0233,5.5758V107.5367s-.8191-5.99-1.125-11.3491h20.379S251.99,96.79,254.8222,98.1712Z"/></g></g><g><g><path fill="#ffccb9" d="M240.364 85.519L240.364 93.651 231.147 107.537 227.17 104.211 213.946 93.138 212.396 91.845 212.396 78.384 240.364 85.519z"/></g><g><path fill="#feece6" d="M213.9458,82.1246V93.1382l-1.5494-1.2928V82.1937C213.3043,82.1542,213.9458,82.1246,213.9458,82.1246Z"/></g><g><path fill="#efac98" d="M240.3645,85.52v8.1318l-8.428,12.7012-.79,1.1842-3.9771-3.3258c.148-3.4935-.1973-8.8326-3.4244-10.56-3.1482-1.6875-8.1516-5.9212-11.3491-8.7536V78.3844Z"/></g><g><path fill="#e28777" d="M212.3964,78.3844,240.3645,85.52v8.1318l-8.428,12.7012c-.5625-6.5529-1.9836-14.28-5.5561-14.6256-4.0856-.4046-10.2339-4.8751-13.984-7.9246Z"/></g></g><g><g><path fill="#ef7373" d="M231.147 107.537L221.278 115.53 217.084 110.823 205.044 97.332 204.186 96.365 204.028 96.188 204.413 95.99 210.196 92.99 212.396 91.845 214.025 93.207 231.147 107.537z"/></g><g><path fill="#cc5e5e" d="M231.147,107.5367l-9.8687,7.9937-2.28-2.556-1.9146-2.1514,1.5889-1.51a4.4908,4.4908,0,0,0,.2961-6.2075L210.1957,92.99l2.2007-1.1447,16.0861,13.461Z"/></g><g><path fill="#e7f4fe" d="M214.025 93.207L205.044 97.332 204.186 96.365 204.413 95.99 210.196 92.99 212.396 91.845 214.025 93.207z"/></g><g><path fill="#b24949" d="M231.147 107.537L221.278 115.53 218.999 112.974 228.482 105.306 231.147 107.537z"/></g></g><g><g><path fill="#ffccb9" d="M257.7927,69.1472c-1.9738,5.9213-6.3654,7.2042-6.3654,7.2042l.2172-1.5987,1.53-11.3886.1579-1.1941S259.7664,63.226,257.7927,69.1472Z"/></g><g><path fill="#efac98" d="M252.4142,74.94c-.4046.523-.6513.375-.77-.1875l.0592-.454,1.47-10.9346c.5329.1579,1.3915.8586,2.635,3a5.4342,5.4342,0,0,1,.2763.523C257.97,70.7755,254.3584,72.4433,252.4142,74.94Z"/></g><g><path fill="#e28777" d="M256.0854,66.8872a7.0833,7.0833,0,0,0-1.283,2.7535c-.2269,1.2631-1.5987,3.04-3.0987,4.658l1.47-10.9346c.5329.1579,1.3915.8586,2.635,3A5.4342,5.4342,0,0,1,256.0854,66.8872Z"/></g><g><path fill="#ffccb9" d="M245.0126,85.1346a12.4269,12.4269,0,0,1-3.9968,1.7764A35.7568,35.7568,0,0,1,215.8406,83.97a35.3893,35.3893,0,0,1-8.1911-5.5857s-5.6646,1.9935-12.03-6.2766c-.0987-.1283-.1974-.2566-.2862-.3849-6.2963-8.5562,2.3882-10.52,5.2206-9.4838a.8628.8628,0,0,0,.77-.02c1.6085-.898.3947-7.895.2368-8.7733a.6485.6485,0,0,0-.02-.0888s34.1361-8.8819,36.8105-16.7769c2.6646-7.895,12.5334-6.9081,14.5071,0C252.8583,36.58,259.6086,75.4139,245.0126,85.1346Z"/></g><g><path fill="#feece6" d="M194.9682,65.1109a16.0106,16.0106,0,0,0,.3651,6.612c-6.2963-8.5562,2.3882-10.52,5.2206-9.4838a.8628.8628,0,0,0,.77-.02,3.2149,3.2149,0,0,0,.217.5626C202.0342,63.7194,195.7872,61.5778,194.9682,65.1109Z"/></g><g><path fill="#feece6" d="M215.8406,83.97a35.3893,35.3893,0,0,1-8.1911-5.5857c-.6809-3.8094-3.079-18.5928.3059-6.77A26.0806,26.0806,0,0,0,215.8406,83.97Z"/></g><g><path fill="#efac98" d="M245.0126,85.1346c.4047-1.0955,3.9081-6.1778,4.3916-7.5989,5.4279-15.9677,1.9738-23.6851,1.0461-32.33-.9178-8.6451-7.9542-7.145-17.1815,1.3915-7.5792,7.0167-25.54,7.0561-31.7083,6.8489a.6485.6485,0,0,0-.02-.0888s5.2108-1.352,11.7143-3.4738h.01c10.155-3.3159,23.4581-8.497,25.0864-13.3031,2.6646-7.895,12.5334-6.9081,14.5071,0C252.8583,36.58,259.6086,75.4139,245.0126,85.1346Z"/></g><g><path fill="#e28777" d="M252.8583,36.58c-4.4409-4.4409-9.3753-3.4541-12.0892-.4342-2.7041,3.03.2467,2.24-10.1155,8.8226-5.1811,3.2863-11.8425,4.53-17.3888,4.9147,10.155-3.3159,23.4581-8.497,25.0864-13.3031C241.0158,28.6853,250.8846,29.6722,252.8583,36.58Z"/></g><g><path fill="#efac98" d="M206.4751,76.3514a9.3332,9.3332,0,0,1-1.2533-.1085,10.6043,10.6043,0,0,1-9.3161-8.3885,2.6206,2.6206,0,0,1-.0592-.6118,2.2283,2.2283,0,0,1,2.6053-2.0922,7.81,7.81,0,0,1,5.5759,4.1152C206.9686,74.575,206.4751,76.3514,206.4751,76.3514Z"/></g><g><path fill="#e28777" d="M206.4751,76.3514a9.3332,9.3332,0,0,1-1.2533-.1085c-.9671-1.3718-1.0658-1.9146-3.6811-2.6745-3.454-1.0066-.4934-2.9409-2.4671-4.9146a4.449,4.449,0,0,0-3.2271-1.4112,2.2283,2.2283,0,0,1,2.6053-2.0922,7.81,7.81,0,0,1,5.5759,4.1152C206.9686,74.575,206.4751,76.3514,206.4751,76.3514Z"/></g><g><path fill="#efac98" d="M240.3842,68.3478l-3,.9178.72-6.4837.9375-8.4378,3.4739,9.78a2.0527,2.0527,0,0,1,.1085.4046A3.2613,3.2613,0,0,1,240.3842,68.3478Z"/></g><g><path fill="#e28777" d="M240.3842,68.3478l-3,.9178.72-6.4837c.72,1.53,1.2237,3.0395,2.6646,1.4605.8092-.8783,1.4112-.523,1.8553.2862A3.2613,3.2613,0,0,1,240.3842,68.3478Z"/></g><g><path fill="#424551" d="M251.43,46.0563a.9863.9863,0,0,1-.9758-.851c-.3522-2.5317-1.1068-4.1-2.125-4.4158-1.5526-.4781-3.9085,1.607-4.6106,2.377a.9867.9867,0,1,1-1.4581-1.33c.3633-.3985,3.6381-3.8646,6.6532-2.9322,1.8427.571,3.0185,2.6,3.495,6.0292a.9871.9871,0,0,1-.8413,1.1136A1.0338,1.0338,0,0,1,251.43,46.0563Z"/></g><g><path fill="#424551" d="M221.28,46.0563a.9549.9549,0,0,1-.1373-.01.9864.9864,0,0,1-.8414-1.1131c.4766-3.4295,1.6529-5.4582,3.4955-6.0292,3.0142-.9353,6.2894,2.5341,6.6528,2.9322a.9869.9869,0,0,1-1.4577,1.3309c-.7054-.77-3.0666-2.8585-4.6125-2.3776-1.0172.3166-1.7713,1.8847-2.1236,4.4154A.9865.9865,0,0,1,221.28,46.0563Z"/></g><g><ellipse rx="1.974" ry="3.947" fill="#272a32" cx="246.937" cy="51.383"/></g><g><ellipse rx="1.974" ry="3.947" fill="#272a32" cx="227.2" cy="54.344"/></g><g><path fill="#ef7373" d="M238.3673,73.568H221.7919s3.7763,8.7085,10.5132,8.5585S238.3673,73.568,238.3673,73.568Z"/></g></g><g><g><path fill="#ef7373" d="M298.6494,136.3831l-.1382,3.6416-.2467,6.7008-.76,20.6356a28.3069,28.3069,0,0,1-5.112,15.2275l-3.5034,4.9936a10.9975,10.9975,0,0,1-18.7507-1.2139l-.01-.03a29.2212,29.2212,0,0,1-1.5789-3.612,28.2111,28.2111,0,0,1-.2369-18.3757l7.6384-23.2211.3948-1.2041,3.158-9.5924Z"/></g><g><path fill="#e7f4fe" d="M277.8164,141.6826s-4.2534,20.152-10.9149,30.7314a28.2567,28.2567,0,0,1,1.4113-8.0629l7.6384-23.2211Z"/></g><g><path fill="#cc5e5e" d="M298.5112,140.0247l-.0691,2.0033-.1776,4.6975-.76,20.6356a28.3069,28.3069,0,0,1-5.112,15.2275l-3.5034,4.9936a11.1712,11.1712,0,0,1-2.7731,2.7633,11.0124,11.0124,0,0,1-15.9776-3.9772l-.01-.03a29.2212,29.2212,0,0,1-1.5789-3.612,168.3058,168.3058,0,0,1,13.0662-15.3854c5.566-5.9213,8.1516-28.8168,8.1516-28.8168S293.9715,139.2253,298.5112,140.0247Z"/></g><g><path fill="#b24949" d="M298.4421,142.028l-.1776,4.6975-.76,20.6356a28.3069,28.3069,0,0,1-5.112,15.2275l-3.5034,4.9936a11.1712,11.1712,0,0,1-2.7731,2.7633c-1.8455-2.1119-3.05-6.1384,1.2829-12.9972,7.4016-11.6945,8.9016-35.6657,8.9016-35.6657S297.2085,141.8208,298.4421,142.028Z"/></g></g><g><g><path fill="#ffffff" d="M298.649 136.383L298.264 146.726 276.346 139.926 277.787 135.554 279.504 130.334 291.12 134.005 298.649 136.383z"/></g><g><path fill="#e2e6ee" d="M298.6494,136.3831l-.3849,10.3424-21.9185-6.8.73-2.2105.7106-2.1613,7.49,2.6941a4.3738,4.3738,0,0,0,5.8423-4.1152v-.1283l3.6218,1.1448Z"/></g><g><path fill="#c1cad6" d="M298.6494,136.3831l-.3849,10.3424-21.9185-6.8.73-2.2105,11.1123,3.5429a5.0008,5.0008,0,0,0,6.5134-4.6285l.0394-1.48Z"/></g></g><g><g fill="#272a32"><path fill="inherit" d="M160.092 233.956L215.357 277.378 287.399 236.482 221.792 227.299 160.092 233.956z"/><path fill="inherit" d="M193.9105,281.3256l7.2807,20.7244s87.4594-17.7638,107.1969-30.5932,9.8688-32.5669,9.8688-32.5669-16.7769-17.7637-42.4357-4.9344S193.9105,281.3256,193.9105,281.3256Z"/></g><g><g><path fill="#ffccb9" d="M201.1954,302.05h-40.64a1.3235,1.3235,0,0,1-1.273-.9375l-.01-.03a1.27,1.27,0,0,1,0-.79,1.3188,1.3188,0,0,1,1.1547-.9375l2.8916-.2664-4.3226-.9277a1.3374,1.3374,0,0,1-.977-.8684v-.02a1.31,1.31,0,0,1,1.125-1.7467l4.1746-.3849-5.4773-1.1744a2.152,2.152,0,0,1-1.5493-1.3422l-.01-.0395a2.1608,2.1608,0,0,1,1.8158-2.8915l5.2207-.4737-6.74-1.4507a3.1427,3.1427,0,0,1-2.3587-2.1317,3.0459,3.0459,0,0,1-.1085-.6118,3.5083,3.5083,0,0,1,.1875-1.658.751.751,0,0,1,.1776-.227c1.6975-1.53,12.4544.0691,5.0923-1.8158-7.6976-1.9737-8.0924-7.895-5.27-8.1023,2.8323-.2171,39.6132,8.1023,39.6132,8.1023Z"/></g><g><path fill="#efac98" d="M163.546,290.4641l-7.2338.5625a2.1344,2.1344,0,0,1,1.7862-1.3323l5.2207-.4737Z"/></g><g><path fill="#efac98" d="M163.546,296.1386l-5.566.3849a1.32,1.32,0,0,1,1.1645-.9967l4.1746-.3849Z"/></g><g><path fill="#efac98" d="M163.546,299.5828l-4.2732.71a1.3188,1.3188,0,0,1,1.1547-.9375l2.8916-.2664Z"/></g><g><path fill="#efac98" d="M201.1954,302.05H175.9511l-1.8455-5.8423a11.24,11.24,0,0,0-6.04-6.8391l-13.5893-6.2272c1.6975-1.53,12.4544.0691,5.0923-1.8158-7.6976-1.9737-8.0924-7.895-5.27-8.1023,2.1908-.1677,24.6028,4.7469,34.7084,7.0069,2.99.6612,4.9048,1.0954,4.9048,1.0954Z"/></g><g><path fill="#e28777" d="M201.1954,302.05h-9.6616c-1.47-5.645-4.3028-16.2835-4.3028-16.2835s.76-2.4178,1.7764-5.5363c2.99.6612,4.9048,1.0954,4.9048,1.0954Z"/></g></g><g><g><path fill="#424551" d="M242.0027,281.3256,234.72,302.05s-87.4569-17.7638-107.1945-30.5932c-17.4381-11.3392-11.7635-28.0667-10.2141-31.807.2072-.4935.3454-.76.3454-.76s16.7769-17.7637,42.4356-4.9344S242.0027,281.3256,242.0027,281.3256Z"/></g><g><path fill="#272a32" d="M234.0357,291.449l-.9044,2.5735a6.3714,6.3714,0,0,1-7.4047,4.1122c-18.2909-4.0967-76.467-17.6078-90.5607-26.7687-14.8291-9.6427-10.0035-23.8676-8.6859-27.0483l4.07,2.2912s36.9259,26.0663,63.3616,32.7549a112.9261,112.9261,0,0,0,33.7761,3.6A6.3715,6.3715,0,0,1,234.0357,291.449Z"/></g></g><g><g><path fill="#ffccb9" d="M281.6159,283.3684a2.3841,2.3841,0,0,1,.1824.7308,3.5706,3.5706,0,0,1-2.88,3.759l-6.3221,1.3624,5.2189.4774a2.149,2.149,0,0,1,1.8181,2.89l-.0114.03a2.1446,2.1446,0,0,1-1.5594,1.3485l-5.4662,1.1749,4.1767.3867a1.32,1.32,0,0,1,1.1257,1.7451l-.0079.0229a1.3242,1.3242,0,0,1-.9732.8644l-4.3213.9284,2.8938.263a1.3379,1.3379,0,0,1,1.154,1.7338l-.01.0306a1.3333,1.3333,0,0,1-1.2746.9332H234.72l7.2832-20.7244s.7993-.1776,2.181-.4934c7.0068-1.5692,28.8759-6.4246,35.6064-7.4312a10.8158,10.8158,0,0,1,1.8258-.1777c2.8225.2073,2.4277,6.1286-5.27,8.1023S280.7573,281.4638,281.6159,283.3684Z"/></g><g><path fill="#efac98" d="M281.7935,284.0987a3.5569,3.5569,0,0,1-2.8718,3.76l-6.3259,1.3619-.5921,1.48h7.4411a2.13,2.13,0,0,1,.1875,1.8849l-.01.03a2.1594,2.1594,0,0,1-1.5593,1.352l-5.4673,1.1744,1.9837.1875-2.4771.3059,5.793,1.6382-.01.02a1.3071,1.3071,0,0,1-.9671.8684l-4.3226.9277,2.8916.2664a1.32,1.32,0,0,1,1.204,1.2139,1.3,1.3,0,0,1-.0494.5131.0366.0366,0,0,1-.01.03,1.3325,1.3325,0,0,1-1.2731.9375H234.72l7.2832-20.7244s.74-.1678,2.0329-.4639l.1481-.0295c.2664-.0592.5625-.1283.8684-.1974l1.3915,1.1842,29.6063-5.9212,7.0266-1.5593c.6908,1.8553-.9968,5.5167-6.7305,6.9871-2.8225.72-2.98.9375-2.0034,1.0066l-.8882,1.5988h8.3095A.4592.4592,0,0,1,281.7935,284.0987Z"/></g><g><path fill="#e28777" d="M276.642,301.0828a.0366.0366,0,0,1-.01.03,1.3325,1.3325,0,0,1-1.2731.9375H234.72l7.2832-20.7244s.74-.1678,2.0329-.4639L241.6277,292.34a4.7488,4.7488,0,0,0,4.26,5.708l30.8035,2.5214A1.3,1.3,0,0,1,276.642,301.0828Z"/></g></g></g><g><g><path fill="#efac98" d="M199.074 167.341L196.606 154.019 188.504 150.565 199.074 167.341z"/></g><path fill="url(#a)" d="M193.6457,143.1629h0a1.9738,1.9738,0,0,1,1.9738,1.9738V162.9a1.9737,1.9737,0,0,1-1.9737,1.9737h0A1.9738,1.9738,0,0,1,191.672,162.9V145.1367a1.9738,1.9738,0,0,1,1.9738-1.9738Z" transform="rotate(49.652 193.646 154.018)"/><g><path fill="#ffccb9" d="M175.596 166.986L170.494 167.193 167.651 167.312 165.451 162.308 165.026 161.331 167.306 160.048 170.415 158.292 171.293 159.772 175.596 166.986z"/></g><g><path fill="#ffccb9" d="M199.074 167.045L196.172 167.174 194.633 167.243 192.896 167.312 192.886 167.312 192.294 167.341 184.418 153.476 183.343 151.581 183.372 151.571 184.428 151.364 185.09 151.236 188.514 150.565 189.175 151.591 199.074 167.045z"/></g><g><path fill="#efac98" d="M194.633 167.243L192.294 167.341 185.316 153.555 186.402 153.338 194.633 167.243z"/></g><g><path fill="#ffccb9" d="M192.896 167.312L192.886 167.312 189.116 169.147 186.728 170.302 184.853 167.312 184.418 166.621 178.093 156.545 176.504 154.019 178.201 152.824 178.902 152.331 183.343 151.522 183.372 151.571 184.507 153.436 192.284 166.295 192.896 167.312z"/></g><g><path fill="#ffccb9" d="M184.853 167.312L180.441 169.128 177.579 170.302 175.606 166.986 175.596 166.986 171.293 159.772 170.415 158.292 173 156.476 176.504 154.019 178.093 156.545 184.418 166.621 184.853 167.312z"/></g><g><path fill="#feece6" d="M189.1752,151.5908c-1.2435.4145-2.7732,1.0067-4.6679,1.8455a.3546.3546,0,0,1-.0888.04c-1.352.6119-2.8916,1.3421-4.6285,2.2205-.5724.2861-1.1349.5723-1.6974.8487-2.3685,1.1744-4.6581,2.26-6.8,3.227-2.1218.9573-4.0857,1.806-5.8423,2.5363l-.4244-.977,2.28-1.2829,3.1087-1.7567L173,156.4759l3.5034-2.4573,1.6974-1.1942.7007-.4934,4.4409-.8093.03.0494,1.0559-.2072.6612-.1283,3.4245-.6711Z"/></g><g><path fill="#efac98" d="M189.1159,169.1473l-2.3882,1.1547-1.875-2.99-.4342-.6909-6.397-9.7832c-.2976-.4739.2855-1.42.2855-1.42a1.052,1.052,0,0,1,1.48.2756Z"/></g><g><path fill="#efac98" d="M180.4413,169.1276l-2.8619,1.1744-1.9738-3.3159h-.01l-4.1942-7.7075.5314-.3732a2.3155,2.3155,0,0,1,3.3267.721Z"/></g><g><path fill="#efac98" d="M170.494 167.193L167.651 167.312 165.026 161.331 167.306 160.048 170.494 167.193z"/></g></g><g><g><path fill="#ffccb9" d="M304.8075,112.57l-6.1581,23.8133-19.1454-6.05.6513-1.7961,1.4606-3.9968-6.74-11.6945-.1579-.2763V96.1876a7.362,7.362,0,0,1,2.0231,1.3619,7.2724,7.2724,0,0,1,2.26,5.27v3.5725l3.1875,2.3488s.04.03.1086.079l5.1022,3.75-4.3324-4.8555-1.4507-1.6184,1.4408-2.783,2.3685-4.5594-6.7305-12.3261a7.1055,7.1055,0,0,1-.8783-3.4245,7.2449,7.2449,0,0,1,1.6876-4.6185l8.9312,13.3721,2.9606,4.4311.77.9375.9079,1.1152v.01l.602.73,8.4872,10.3523.0986.1184Z"/></g><g><path fill="#feece6" d="M276.346,106.3525a24.1363,24.1363,0,0,0-1.4705,6.4936l-.1579-.2763V96.1876a7.362,7.362,0,0,1,2.0231,1.3619C276.9677,100.6483,277.096,104.734,276.346,106.3525Z"/></g><g><path fill="#efac98" d="M304.8075,112.57l-6.1581,23.8133-19.1454-6.05.6513-1.7961,14.6453,4.2633s.9868-10.8556-1.7271-10.55c-2.3981.2664-5.3785-2.4869-6.1877-5.5462a7.3954,7.3954,0,0,1-.1973-1.2139c-.2073-3.158-3.73-6.1384-4.3917-6.6712l5.1022,3.75-4.3324-4.8555,5.714-6.6515,3.385-3.9377.9079,1.1152v.01l.5724.6908.03.04,6.2667,7.6384,2.22,2.7139.0986.1184Z"/></g><g><path fill="#e28777" d="M299.9422,106.6189l-3.6416,8.9115s-5.7535,2.3191-9.4148,1.1744a7.3954,7.3954,0,0,1-.1973-1.2139c-.2073-3.158-3.73-6.1384-4.3917-6.6712l5.1022,3.75-4.3324-4.8555,5.714-6.6515,4.8653-2.1218.03.04Z"/></g><g><path fill="#efac98" d="M293.0735,98.24v.01c-.1283.602-.2665,1.1941-.3948,1.6876-.2072.819-.3848,1.3914-.3848,1.3914s-.5329.1086-1.352.2764h-.01c-2.0133.4046-5.7929,1.1842-7.8753,1.7073l2.3685-4.5594-6.7305-12.3261a7.1055,7.1055,0,0,1-.8783-3.4245,6.9941,6.9941,0,0,1,.602-2.8619l5.8224,11.0012a2.6273,2.6273,0,0,0,4.1944.6143h0l2.9606,4.4311Z"/></g><g><path fill="#ffccb9" d="M293.6755,98.9805l-.9968.9573-1.7368,1.6678h-.01l-1.5593,1.5-1.5691,7.51-.4046,1.9541-5.7831-6.4739,1.4408-2.783,2.3685-4.5594,5.9706-2.5659,1.0856,1.3224.5921.73v.01Z"/></g><g><path fill="#efac98" d="M293.0735,98.25l.602.73-.9968.9573-1.7368,1.6678h-.01l-1.5593,1.5-1.5691,7.51-2.8718-5.4475,1.51-3.839,6.04-3.8192.5921.73Z"/></g><g><path fill="#ffccb9" d="M297.199 103.688L293.32 107.537 293.32 116.971 291.84 115.876 287.399 112.57 289.373 103.106 293.675 98.98 296.143 102.277 297.199 103.688z"/></g><g><path fill="#efac98" d="M297.199 103.688L293.32 107.537 293.32 116.971 291.84 115.876 291.84 106.155 296.143 102.277 297.199 103.688z"/></g><g><path fill="#ffccb9" d="M300.1 112.57L301.788 115.53 297.199 118.422 296.301 118.086 293.32 116.971 293.32 107.537 297.199 103.688 300.781 107.764 302.261 109.451 300.1 112.57z"/></g><g><path fill="#efac98" d="M300.1 112.57L301.788 115.53 297.199 118.422 296.301 118.086 296.774 113.063 300.781 107.764 302.261 109.451 300.1 112.57z"/></g><g><path fill="#e28777" d="M300.1,112.57h0a3.5619,3.5619,0,0,1-1.1956,4.7773l-1.7058,1.0748.5921-2.8915Z"/></g><g><path fill="#efac98" d="M303.1594,118.9351c-.03,0-.04-.01-.04-.03C303.189,118.9253,303.1989,118.9351,303.1594,118.9351Z"/></g></g><g><g><path fill="#ef7373" d="M250.401 96.188L245.96 106.974 243.661 112.57 233.891 108.642 231.147 107.537 240.364 93.651 250.401 96.188z"/></g><g><path fill="#cc5e5e" d="M250.401,96.1876l-2.3093,5.6153-2.1316,5.1712-6.3062-1.6875a3.7624,3.7624,0,0,0-3.8192,1.1546l-1.9441,2.2008-2.7436-1.1053,5.3686-8.0826,3.8489-5.8028Z"/></g><g><path fill="#b24949" d="M250.401 96.188L248.092 101.803 236.516 99.454 240.364 93.651 250.401 96.188z"/></g></g></g><g data-name="Study Desk"><g data-name="Stationery"><g><g><path fill="#ef7373" d="M317.9921,117.5042V128.36a1.9738,1.9738,0,0,1-3.9475,0V117.5042a1.98,1.98,0,0,1,1.9738-1.9738,1.9879,1.9879,0,0,1,1.9737,1.9738Z"/></g><g><path fill="#cc5e5e" d="M317.9921,122.932V128.36a1.9738,1.9738,0,0,1-3.9475,0V122.932Z"/></g><path fill="url(#d)" d="M323.9134,114.5435V128.36a1.9738,1.9738,0,0,1-3.9475,0V114.5435A1.98,1.98,0,0,1,321.94,112.57a1.9881,1.9881,0,0,1,1.9738,1.9737Z"/><g><path fill="#3bada5" d="M323.9134,122.932V128.36a1.9738,1.9738,0,0,1-3.9475,0V122.932Z"/></g><path fill="url(#b)" d="M329.8347,117.5042V128.36a1.9738,1.9738,0,0,1-3.9475,0V117.5042a1.98,1.98,0,0,1,1.9737-1.9738,1.9881,1.9881,0,0,1,1.9738,1.9738Z"/><g><path fill="#6d7dd6" d="M329.8347,122.932V128.36a1.9738,1.9738,0,0,1-3.9475,0V122.932Z"/></g><path fill="url(#c)" d="M334.769 126.386L329.756 154.295 314.124 154.295 313.453 150.565 309.11 126.386 334.769 126.386z"/><g><path fill="#f2bd7c" d="M334.769,126.386l-5.0133,27.9089H314.1236l-.6711-3.73H316.68a7.9893,7.9893,0,0,0,7.8753-6.6812l2.9014-17.4973Z"/></g></g><g><g><path fill="url(#e)" d="M345.6247,165.2591v10.9642h-56.252V168.22a2.9567,2.9567,0,0,1,2.9607-2.9606Z"/><g><path fill="#3bada5" d="M345.6247,166.848v9.3753H291.84v-7.1549a2.2238,2.2238,0,0,1,2.2205-2.22Z"/></g><g><path fill="#ffffff" d="M345.6247,168.2493v7.974H293.32v-3.04a4.9362,4.9362,0,0,1,4.9344-4.9344Z"/></g><g><path fill="#e2e6ee" d="M345.6247,168.2493v3.987H303.14a4.2484,4.2484,0,0,0-4.2436,3.987H293.32v-3.04a4.9362,4.9362,0,0,1,4.9344-4.9344Z"/></g></g><g><path fill="url(#f)" d="M345.6247,154.2949v10.9642h-56.252v-8.0036a2.9567,2.9567,0,0,1,2.9607-2.9606Z"/><g><path fill="#6d7dd6" d="M345.6247,155.42v9.8392H291.12v-5.8028a4.0349,4.0349,0,0,1,4.0363-4.0364Z"/></g><g><path fill="#ffffff" d="M345.6247,157.2851v7.974H293.32v-3.04a4.9362,4.9362,0,0,1,4.9344-4.9344Z"/></g><g><path fill="#e2e6ee" d="M345.6247,157.2851v3.0494H302.25a3.8075,3.8075,0,0,0-3.8075,3.8075v1.1171H293.32v-3.04a4.9344,4.9344,0,0,1,4.9344-4.9344Z"/></g></g></g></g><g data-name="Desk"><path fill="url(#g)" d="M350.0656,187.0789V302.05H336.7428V261.5881a2.9566,2.9566,0,0,0-2.9606-2.9606H26.2178a2.9566,2.9566,0,0,0-2.9606,2.9606V302.05H9.9344V187.0789Z"/><g><path fill="#f2bd7c" d="M350.0656,187.0789V302.05H336.7428V261.5881a2.9566,2.9566,0,0,0-2.9606-2.9606H26.2178a2.9566,2.9566,0,0,0-2.9606,2.9606V302.05H16.3491V269.187a13.9072,13.9072,0,0,1,13.9051-13.9051H173a14.2357,14.2357,0,0,0,14.2307-14.2307V206.5006A14.2294,14.2294,0,0,0,173,192.27H9.9344v-5.191Z"/></g><g><rect rx="2.961" x="23.257" width="313.486" fill="#d4a470" y="196.454" height="50.331"/></g><g><path fill="#bd8864" d="M336.7428,199.4149v44.4094a2.9567,2.9567,0,0,1-2.9606,2.9606H186.0172a14.0459,14.0459,0,0,0,1.2138-5.7337V206.5006a14.23,14.23,0,0,0-4.1449-10.0464H333.7822A2.9567,2.9567,0,0,1,336.7428,199.4149Z"/></g><g><path fill="#d4a470" d="M355,181.6511a5.4247,5.4247,0,0,1-5.4278,5.4278H10.4278a5.4278,5.4278,0,1,1,0-10.8556H349.5722A5.4247,5.4247,0,0,1,355,181.6511Z"/></g><g><path fill="#bd8864" d="M355,181.6511a5.4247,5.4247,0,0,1-5.4278,5.4278H170.9476a5.4278,5.4278,0,1,1,0-10.8556H349.5722A5.4247,5.4247,0,0,1,355,181.6511Z"/></g></g><g data-name="Book"><g><path fill="#ffffff" d="M221.2783,173.5193v2.704H163.0625a9.6867,9.6867,0,0,1,1.046-3.9475c.0888-.1678.1777-.3356.2763-.5033a9.87,9.87,0,0,1,8.5365-4.9245H214.607a6.6552,6.6552,0,0,1,6.543,5.4278A5.7808,5.7808,0,0,1,221.2783,173.5193Z"/></g><g><path fill="#e2e6ee" d="M221.2783,176.2233H163.0625a9.6867,9.6867,0,0,1,1.046-3.9475c.0888-.1678.1777-.3356.2763-.5033a21.8186,21.8186,0,0,1,8.28-.977c9.1286.4934,24.4351-2.4672,36.2579-1.9738S221.2783,176.2233,221.2783,176.2233Z"/></g><g><path fill="#ffffff" d="M279.504,176.2233H221.2882v-2.704a5.7807,5.7807,0,0,1,.1282-1.2435,6.6552,6.6552,0,0,1,6.543-5.4278h41.6857a9.83,9.83,0,0,1,7.7469,3.77,9.6285,9.6285,0,0,1,1.056,1.658A9.8548,9.8548,0,0,1,279.504,176.2233Z"/></g><g><path fill="#e2e6ee" d="M279.504,176.2233H221.2882v-2.704c.4045-.158,12.7109-4.6976,35.33-4.6976,11.7833,0,17.7539.9079,20.7737,1.7961a9.6285,9.6285,0,0,1,1.056,1.658A9.8548,9.8548,0,0,1,279.504,176.2233Z"/></g><path fill="url(#h)" d="M279.504,176.2233H163.0625a9.8731,9.8731,0,0,1,.523-2.7139,9.0662,9.0662,0,0,1,.523-1.2336H278.448a9.0667,9.0667,0,0,1,.5231,1.2336A9.8886,9.8886,0,0,1,279.504,176.2233Z"/><g><path fill="#6d7dd6" d="M279.504,176.2233H163.0625a9.8731,9.8731,0,0,1,.523-2.7139H278.9711A9.8886,9.8886,0,0,1,279.504,176.2233Z"/></g></g><g data-name="Laptop"><path fill="url(#i)" d="M134.4332,170.7955H57.4568l-7.9049-19.7771L40.1865,127.61a1.7156,1.7156,0,0,1-.1382-.6514,1.9574,1.9574,0,0,1,1.9639-2.0527h72.7229a1.9736,1.9736,0,0,1,1.8356,1.2435l13.609,34.0077Z"/><g><path fill="#4b5d8c" d="M134.4332,170.7955h-3.5824l-15.1288-39.633a6.5309,6.5309,0,0,0-6.0989-4.2041H40.0483a1.9574,1.9574,0,0,1,1.9639-2.0527h72.7229a1.9736,1.9736,0,0,1,1.8356,1.2435Z"/></g><g><circle fill="#abb3cc" r="4.934" cx="83.609" cy="148.591"/></g><g><path fill="#4b5d8c" d="M57.457 170.796H134.433V176.224H57.457z"/></g><g><path fill="#464675" d="M134.433 170.796H157.131V176.224H134.433z"/></g><g><path fill="#4b5d8c" d="M132.1458,168.2888H59.3182l-7.4789-18.7112c8.9914,3.6788,22.2685,8.2539,35.6575,9.8411,14.4629,1.7086,30.42.2241,40.6248-1.1951Z"/></g></g></g></g></g></svg>